<svg xmlns="http://www.w3.org/2000/svg">

    <symbol viewBox="0 0 22 17" id="filter">
        <title>Filter</title>
        <path d="M 0.3 0 h 21.3 v 2.7 H 0.3 V 0 z m 4 7.3 h 13.3 V 10 H 4.3 V 7.3 z m 4 6.7 h 5.3 v 2.7 H 8.3 V 14 z" fill-rule="nonzero" />
    </symbol>

    <symbol viewBox="0 0 14 8" id="chevron">
        <title>chevron</title>
        <path d="M 12.6 8.1 l 1.4 -1.4 L 7.4 -0.1 L 0.6 6.6 l 1.4 1.4 l 5.3 -5.3 z" fill-rule="nonzero" />
    </symbol>

    <symbol viewBox="0 0 26 26" id="search">
        <title>search</title>
        <path d="M 19.1 17.7 l 6.1 6.1 a 1 1 0 0 1 -1.4 1.4 l -6.1 -6.1 a 10.8 10.8 0 0 1 -6.9 2.5 C 4.8 21.6 0 16.8 0 10.8 S 4.8 0 10.8 0 s 10.8 4.8 10.8 10.8 a 10.8 10.8 0 0 1 -2.5 6.9 z m -2 -0.8 a 8.8 8.8 0 1 0 -0.1 0.1 a 1 1 0 0 1 0.1 -0.1 z"
            fill-rule="nonzero" />
    </symbol>
    <symbol viewBox="0 0 16 18" id="download">
        <title>download</title>
        <path d="M 2.4 6.9 l 5.5 5 l 5.5 -5 M 8 0 v 12 M 0 16.8 h 16" fill="none" fill-rule="evenodd" stroke-width="2" />
    </symbol>
    <symbol viewBox="0 0 48 48" id="facebook">
        <title>facebook</title>
        <path d="M 35 4 h -6 c -5.5 0 -10 4.5 -10 10 v 6 h -6 v 8 h 6 v 16 h 8 V 28 h 6 l 2 -8 h -8 v -6 a 2 2 0 0 1 2 -2 h 6 V 4 z"/>
    </symbol>
    <symbol viewBox="0 0 48 48" id="twitter">
        <title>twitter</title>
        <path d="M 44 8.4 a 19.9 19.9 0 0 1 -5.7 2.8 a 8.2 8.2 0 0 0 -9.1 -2.3 a 8.1 8.1 0 0 0 -5.2 7.7 v 1.8 a 19.4 19.4 0 0 1 -16.4 -8.2 s -7.3 16.3 9.1 23.5 A 21.2 21.2 0 0 1 4 37.4 c 16.4 9 36.4 0 36.4 -20.8 a 8.1 8.1 0 0 0 -0.1 -1.5 A 13.9 13.9 0 0 0 44 8.4 z" />
    </symbol>
    <symbol viewBox="0 0 48 48" id="happy">
        <title>happy</title>
        <path d="M 24 48 C 10.7 48 0 37.3 0 24 C 0 10.7 10.7 0 24 0 C 37.3 0 48 10.7 48 24 C 48 37.3 37.3 48 24 48 z M 24 45.6 C 35.9 45.6 45.6 35.9 45.6 24 C 45.6 12.1 35.9 2.4 24 2.4 C 12.1 2.4 2.4 12.1 2.4 24 C 2.4 35.9 12.1 45.6 24 45.6 z M 24.2 37.2 C 19.9 37.2 15.8 35.2 13.4 31.8 C 13 31.3 13.2 30.5 13.8 30.2 C 14.3 29.8 15.1 30 15.5 30.5 C 17.4 33.2 20.7 34.9 24.2 34.9 C 27.5 34.9 30.5 33.5 32.5 31 C 33 30.5 33.7 30.4 34.3 30.8 C 34.9 31.1 35 31.9 34.5 32.4 C 32.1 35.4 28.3 37.2 24.2 37.2 z M 32.4 20.4 C 31.1 20.4 30 19.3 30 18 C 30 16.7 31.1 15.6 32.4 15.6 C 33.7 15.6 34.8 16.7 34.8 18 C 34.8 19.3 33.7 20.4 32.4 20.4 z M 15.6 20.4 C 14.3 20.4 13.2 19.3 13.2 18 C 13.2 16.7 14.3 15.6 15.6 15.6 C 16.9 15.6 18 16.7 18 18 C 18 19.3 16.9 20.4 15.6 20.4 z" />
    </symbol>
    <symbol viewBox="0 0 48 48" id="sad">
        <title>sad</title>
        <path d="M 24 48 C 10.7 48 0 37.3 0 24 C 0 10.7 10.7 0 24 0 C 37.3 0 48 10.7 48 24 C 48 37.3 37.3 48 24 48 z M 24 45.6 C 35.9 45.6 45.6 35.9 45.6 24 C 45.6 12.1 35.9 2.4 24 2.4 C 12.1 2.4 2.4 12.1 2.4 24 C 2.4 35.9 12.1 45.6 24 45.6 z M 24.2 30 C 28.3 30 32.1 31.8 34.5 34.8 C 35 35.3 34.9 36.1 34.3 36.4 C 33.7 36.8 33 36.7 32.5 36.2 C 30.5 33.7 27.5 32.3 24.2 32.3 C 20.7 32.3 17.4 34 15.5 36.7 C 15.1 37.2 14.3 37.4 13.8 37 C 13.2 36.7 13 35.9 13.4 35.4 C 15.8 32 19.9 30 24.2 30 z M 32.4 20.4 C 31.1 20.4 30 19.3 30 18 C 30 16.7 31.1 15.6 32.4 15.6 C 33.7 15.6 34.8 16.7 34.8 18 C 34.8 19.3 33.7 20.4 32.4 20.4 z M 15.6 20.4 C 14.3 20.4 13.2 19.3 13.2 18 C 13.2 16.7 14.3 15.6 15.6 15.6 C 16.9 15.6 18 16.7 18 18 C 18 19.3 16.9 20.4 15.6 20.4 z" />
    </symbol>
    <symbol viewBox="0 0 34 34" id="user">
        <title>user</title>
        <path d="M 10.1 30.3 a 5.5 5.5 0 0 1 -0.1 0 h 0 l 0.1 0.1 z m -0.9 -0.5 a 1.1 1.1 0 0 1 -0.2 -0.6 c 0 -4.4 3.6 -8 8 -8 c 4.4 0 8 3.6 8 8 c 0 0.2 -0.1 0.4 -0.2 0.5 C 29.1 27.2 32 22.4 32 17 c 0 -8.3 -6.7 -15 -15 -15 C 8.7 2 2 8.7 2 17 c 0 5.4 2.9 10.2 7.2 12.8 z m 14.7 0.5 h 0 a 5.2 5.2 0 0 1 0 0 z M 17 34 C 7.6 34 0 26.4 0 17 S 7.6 0 17 0 s 17 7.6 17 17 s -7.6 17 -17 17 z m -4.3 -19.3 c 0 -2.4 1.9 -4.4 4.3 -4.4 c 2.4 0 4.3 2 4.3 4.4 c 0 2.4 -1.9 4.4 -4.3 4.4 c -2.4 0 -4.3 -2 -4.3 -4.4 z"
            fill-rule="nonzero" />
    </symbol>

    <symbol viewBox="0 0 16 28" id="arrow-filled-right">
        <title>arrow filled right</title>
        <path d="M 0 0 l 16 14 L 0 28 z" fill-rule="nonzero" />
    </symbol>

    <symbol viewBox="0 0 18 18" id="close">
        <title>close</title>
        <path d="M 9 7.6 L 16.3 0.3 l 1.4 1.4 L 10.4 9 l 7.3 7.3 l -1.4 1.4 L 9 10.4 l -7.3 7.3 l -1.4 -1.4 L 7.6 9 L 0.3 1.7 L 1.7 0.3 L 9 7.6 z"
            fill-rule="nonzero" />
    </symbol>
    <symbol width="24" height="24" viewBox="0 0 24 24" id="circle-close">
        <title>circle-close</title>
        <path d="M12 10.586l3.293-3.293 1.414 1.414L13.414 12l3.293 3.293-1.414 1.414L12 13.414l-3.293 3.293-1.414-1.414L10.586 12 7.293 8.707l1.414-1.414L12 10.586zM12 23c6.075 0 11-4.925 11-11S18.075 1 12 1 1 5.925 1 12s4.925 11 11 11zm0 1C5.373 24 0 18.627 0 12S5.373 0 12 0s12 5.373 12 12-5.373 12-12 12z" fill-rule="nonzero"/>
    </symbol>

    <symbol viewBox="0 0 30 34" id="bus">
        <title>bus</title>
        <path d="M 24.4 28.1 a 1.9 1.9 0 0 1 -1.9 -1.9 c 0 -1 0.8 -1.9 1.9 -1.9 c 1 0 1.9 0.8 1.9 1.9 c 0 1 -0.8 1.9 -1.9 1.9 z m -18.8 0 a 1.9 1.9 0 0 1 -1.9 -1.9 c 0 -1 0.8 -1.9 1.9 -1.9 c 1 0 1.9 0.8 1.9 1.9 c 0 1 -0.8 1.9 -1.9 1.9 z M 3.8 5.9 h 22.5 V 19 c 0 0.9 -0.8 1.7 -1.7 1.7 H 5.5 a 1.7 1.7 0 0 1 -1.7 -1.7 V 5.9 z M 28.3 0.3 H 1.7 C 0.8 0.3 0 1.1 0 2 v 26.2 c 0 0.9 0.8 1.7 1.7 1.7 h 2 v 3.7 H 7.5 v -3.7 H 22.5 v 3.7 h 3.8 v -3.7 h 2 c 1 0 1.7 -0.8 1.7 -1.7 v -26.2 c 0 -0.9 -0.8 -1.7 -1.7 -1.7 z"
            fill-rule="nonzero" />
    </symbol>

    <symbol viewBox="0 0 35 29" id="taxi">
        <title>taxi</title>
        <path d="M 27.8 19.9 c 1.1 0 2.1 -0.9 2.1 -2.1 c 0 -1.2 -0.9 -2.1 -2.1 -2.1 s -2.1 0.9 -2.1 2.1 c 0 1.2 0.9 2.1 2.1 2.1 z M 8.7 5.1 l -1.3 6.3 h 20 l -1.3 -6.3 h -17.5 z M 7 15.6 c -1.1 0 -2.1 0.9 -2.1 2.1 c 0 1.2 0.9 2.1 2.1 2.1 s 2.1 -0.9 2.1 -2.1 c 0 -1.2 -0.9 -2.1 -2.1 -2.1 z m -6.3 2 c 0 -2.9 1.9 -5.3 4.5 -6 l 1.7 -8.7 h 7.3 V 0.8 h 6.3 v 2.1 h 7.3 l 1.7 8.7 c 2.6 0.7 4.5 3.2 4.5 6 V 24.1 h -4.2 v 4.2 h -4.2 V 24.1 H 9.1 v 4.2 H 4.9 V 24.1 H 0.7 v -6.4 z"
            fill-rule="nonzero" />
    </symbol>
    <symbol viewBox="0 0 40 31" id="car">
        <title>car</title>
        <path  d="M 5.1 11.3 L 7 0 h 26 l 1.9 11.3 A 7 7 0 0 1 40 18 v 8 h -5 v 5 h -5 v -5 H 10 v 5 H 5 v -5 H 0 v -8 a 7 7 0 0 1 5.1 -6.7 z M 8.2 11 h 23.6 L 30 3 H 10 l -1.8 8 z M 32.5 21 a 2.5 2.5 0 1 0 0 -5 a 2.5 2.5 0 0 0 0 5 z m -25 0 a 2.5 2.5 0 1 0 0 -5 a 2.5 2.5 0 0 0 0 5 z"/>
    </symbol>


    <symbol viewBox="0 0 34 29" id="ferry">
        <title>ferry</title>
        <path d="M 31.1 4.6 l -2.9 9.8 l 5.9 0 l -2 5.9 c -1.3 -0.1 -2.6 -0.7 -3.5 -1.5 c -1 0.9 -2.5 1.5 -4.1 1.5 c -1.5 0 -3.1 -0.7 -4.1 -1.5 c -1 0.9 -2.5 1.5 -4.1 1.5 c -1.5 0 -3.1 -0.7 -4.1 -1.5 c -1 0.9 -2.5 1.5 -4.1 1.5 c -1.5 0 -3.1 -0.7 -4.1 -1.5 c -0.8 0.8 -2.1 1.4 -3.5 1.5 v -7.8 h 3.9 V 4.6 L 0.7 4.6 V 0.7 h 26.6 l 5.7 3.4 v 0.6 h -2 z M 17.4 12.5 h 8.4 l 2.4 -7.9 H 17.4 v 7.9 z m -10.8 0 h 8.8 V 4.6 H 6.6 v 7.9 z m 17.9 11.8 c 1.5 0 3.1 -0.7 4.1 -1.5 c 0.8 0.8 2.1 1.4 3.5 1.5 v 3.9 c -1.3 -0.1 -2.6 -0.7 -3.5 -1.5 c -1 0.9 -2.5 1.5 -4.1 1.5 c -1.5 0 -3.1 -0.7 -4.1 -1.5 c -1 0.9 -2.5 1.5 -4.1 1.5 c -1.5 0 -3.1 -0.7 -4.1 -1.5 c -1 0.9 -2.5 1.5 -4.1 1.5 c -1.5 0 -3.1 -0.7 -4.1 -1.5 c -0.8 0.8 -2.1 1.4 -3.5 1.5 v -3.9 c 1.3 -0.1 2.6 -0.7 3.5 -1.5 c 1 0.9 2.5 1.5 4.1 1.5 c 1.5 0 3.1 -0.7 4.1 -1.5 c 1 0.9 2.5 1.5 4.1 1.5 c 1.5 0 3.1 -0.7 4.1 -1.5 c 1 0.9 2.5 1.5 4.1 1.5 z"
            fill-rule="nonzero" />
    </symbol>

    <symbol viewBox="0 0 31 34" id="metro">
        <title>metro</title>
        <path d="M 20.9 30 h 9.4 v 3.7 H 20.9 v -3.7 H 9.7 l -7.5 -5.6 V 9.6 c 0 -5.1 4.2 -9.3 9.4 -9.3 h 7.5 c 5.2 0 9.4 4.2 9.4 9.3 v 14.8 l -7.5 5.6 z m -5.6 -9.3 c 4.1 0 7.5 -3.4 7.5 -7.4 l 0 -7.4 H 7.8 v 7.4 c 0 4 3.4 7.4 7.5 7.4 z m -7.5 3.7 c 1 0 1.9 -0.8 1.9 -1.9 c 0 -1 -0.8 -1.9 -1.9 -1.9 a 1.9 1.9 0 0 0 -1.9 1.9 c 0 1 0.8 1.9 1.9 1.9 z m 16.9 -1.9 c 0 -1 -0.8 -1.9 -1.9 -1.9 a 1.9 1.9 0 0 0 -1.9 1.9 c 0 1 0.8 1.9 1.9 1.9 c 1 0 1.9 -0.8 1.9 -1.9 z M 0.3 33.7 v -3.7 H 9.7 v 3.7 H 0.3 z"
            fill-rule="nonzero" />
    </symbol>

    <symbol viewBox="0 0 27 34" id="tram">
        <title>tram</title>
        <path d="M 18 25.3 c 0 0.5 0.4 0.9 0.9 0.9 c 0.5 0 0.9 -0.4 0.9 -0.9 a 0.9 0.9 0 0 0 -0.9 -0.9 a 0.9 0.9 0 0 0 -0.9 0.9 z m -11.1 0 c 0 0.5 0.4 0.9 0.9 0.9 s 0.9 -0.4 0.9 -0.9 a 0.9 0.9 0 0 0 -0.9 -0.9 a 0.9 0.9 0 0 0 -0.9 0.9 z M 20.8 5.9 H 6 l 1.8 14.8 h 11.1 L 20.8 5.9 z m 0.9 17.6 c 0.5 0 0.9 -0.4 0.9 -0.9 a 0.9 0.9 0 0 0 -0.9 -0.9 a 0.9 0.9 0 0 0 -0.9 0.9 c 0 0.5 0.4 0.9 0.9 0.9 z m 0 2.8 c 0.5 0 0.9 -0.4 0.9 -0.9 a 0.9 0.9 0 0 0 -0.9 -0.9 a 0.9 0.9 0 0 0 -0.9 0.9 c 0 0.5 0.4 0.9 0.9 0.9 z M 5.1 24.4 a 0.9 0.9 0 0 0 -0.9 0.9 c 0 0.5 0.4 0.9 0.9 0.9 s 0.9 -0.4 0.9 -0.9 a 0.9 0.9 0 0 0 -0.9 -0.9 z m 0 -2.8 a 0.9 0.9 0 0 0 -0.9 0.9 c 0 0.5 0.4 0.9 0.9 0.9 s 0.9 -0.4 0.9 -0.9 a 0.9 0.9 0 0 0 -0.9 -0.9 z M 0.5 24.4 V 5.9 L 6 0.3 h 14.8 l 5.5 5.6 v 18.5 l -5.5 5.6 h 5.5 v 3.7 H 0.5 v -3.7 h 5.5 L 0.5 24.4 z"
            fill-rule="nonzero" />
    </symbol>

    <symbol viewBox="0 0 11 18" id="chevron-left">
        <title>chevron left</title>
        <path fill-rule="nonzero" d="M 10.4 1.7 L 9 0.3 L 0.3 9 L 9 17.7 l 1.4 -1.4 L 3.1 9 z" />
    </symbol>
    <symbol viewBox="0 0 11 18" id="chevron-right">
        <title>chevron right</title>
        <path fill-rule="nonzero" d="M 0.3 1.7 L 1.7 0.3 L 10.4 9 l -8.7 8.7 l -1.4 -1.4 L 7.6 9 z" />
    </symbol>

    <symbol viewBox="0 0 36 40" id="journey">
        <title>journey</title>
        <path d="M 18 17.5 c 0.9 0 1.7 -0.7 1.7 -1.7 c 0 -0.9 -0.8 -1.7 -1.7 -1.7 s -1.7 0.7 -1.7 1.7 c 0 0.9 0.8 1.7 1.7 1.7 z m 0 -8.6 c 3.9 0 7 3.1 7 6.9 c 0 1.6 -0.6 3.1 -1.5 4.2 l -5.1 6.4 a 0.5 0.5 0 0 1 -0.8 0 l -5.1 -6.4 A 6.8 6.8 0 0 1 11 15.8 c 0 -3.8 3.1 -6.9 7 -6.9 z m 0 21.7 c 7.1 0 12.9 -5.7 12.9 -12.8 C 30.9 10.7 25.1 5 18 5 C 10.9 5 5.1 10.7 5.1 17.8 c 0 7.1 5.8 12.8 12.9 12.8 z m 13.8 -1.4 L 36 33.3 L 29.3 40 l -5.5 -5.4 c -1.8 0.6 -3.8 0.9 -5.8 0.9 c -9.9 0 -18 -8 -18 -17.8 C 0 8 8.1 0 18 0 s 18 8 18 17.8 c 0 4.3 -1.6 8.3 -4.2 11.4 z" fill-rule="nonzero"/>
    </symbol>
    <symbol viewBox="0 0 42 43" id="nol">
        <title>nol</title>
        <path d="M 22 23.7 c 0.4 0.3 0.7 0.8 0.9 1.3 c 0.2 0.5 0.3 1.2 0.3 1.9 v 8.1 h -2.5 v -7.2 c 0 -0.5 0 -0.9 -0.1 -1.2 a 2.2 2.2 0 0 0 -0.3 -0.7 c -0.3 -0.5 -0.8 -0.8 -1.6 -0.8 c -0.4 0 -0.7 0.1 -1.1 0.3 a 3 3 0 0 0 -0.9 0.8 a 3.8 3.8 0 0 0 -0.6 1.2 a 4.5 4.5 0 0 0 -0.2 1.5 v 6.2 h -2.5 V 23 h 2.2 l 0 0.1 c 0 0.1 0.1 0.3 0.1 0.6 c 0 0.2 0.1 0.5 0.1 0.8 c 0.1 -0.1 0.2 -0.3 0.3 -0.4 a 4.4 4.4 0 0 1 4.7 -1.2 c 0.5 0.2 0.9 0.4 1.2 0.7 z m 12.2 5.3 c 0 -1.4 -0.3 -2.5 -0.8 -3.2 c -0.5 -0.7 -1.3 -1 -2.2 -1 c -0.5 0 -0.9 0.1 -1.3 0.3 a 2.7 2.7 0 0 0 -0.9 0.9 a 4.3 4.3 0 0 0 -0.6 1.3 a 6.5 6.5 0 0 0 -0.2 1.7 c 0 1.5 0.3 2.5 0.8 3.2 c 0.5 0.7 1.2 1 2.2 1 c 0.5 0 0.9 -0.1 1.3 -0.3 A 2.9 2.9 0 0 0 33.3 32 c 0.3 -0.4 0.5 -0.8 0.6 -1.3 a 6.3 6.3 0 0 0 0.2 -1.7 z m 1.1 -4.5 c 0.5 0.6 0.9 1.2 1.1 2 c 0.3 0.8 0.4 1.6 0.4 2.5 c 0 0.9 -0.1 1.7 -0.4 2.5 a 6 6 0 0 1 -1.2 2 a 5.4 5.4 0 0 1 -1.8 1.3 c -0.7 0.3 -1.5 0.5 -2.3 0.5 c -0.8 0 -1.6 -0.1 -2.3 -0.4 a 5.1 5.1 0 0 1 -1.8 -1.3 a 5.7 5.7 0 0 1 -1.1 -2 c -0.3 -0.8 -0.4 -1.6 -0.4 -2.5 c 0 -0.9 0.1 -1.7 0.4 -2.5 a 6 6 0 0 1 1.2 -2 a 5.5 5.5 0 0 1 1.8 -1.3 c 0.7 -0.3 1.5 -0.5 2.3 -0.5 c 0.8 0 1.6 0.2 2.3 0.5 c 0.7 0.3 1.3 0.7 1.8 1.3 z m 4.8 -6.1 c 0.4 -0.3 0.9 -0.4 1.5 -0.4 h 0.2 v 17 h -2.5 V 19.2 l 0 0 c 0.2 -0.3 0.5 -0.6 0.8 -0.8 z M 22.2 0.4 c 0.4 -0.3 0.8 -0.4 1.4 -0.4 h 0.4 v 12.2 c 0 1 -0.1 1.8 -0.4 2.5 c -0.3 0.7 -0.7 1.4 -1.2 1.9 c -0.5 0.5 -1.1 0.9 -1.8 1.1 c -0.7 0.2 -1.4 0.4 -2.2 0.4 h 0 c -1.6 0 -2.9 -0.5 -3.8 -1.5 c -0.9 -1 -1.3 -2.3 -1.3 -4 c 0 -0.9 0 -1.6 0.1 -2.2 c 0.1 -0.6 0.1 -0.9 0.2 -1 l 0.1 -0.2 h 2.2 l -0.1 0.4 c 0 0.1 -0.1 0.5 -0.2 1 a 9.6 9.6 0 0 0 -0.1 1.5 l 0 0.3 c 0 0.8 0.1 1.4 0.3 1.9 c 0.2 0.5 0.4 0.8 0.6 1.1 c 0.3 0.3 0.5 0.4 0.8 0.5 c 0.3 0.1 0.7 0.1 1.1 0.1 c 0.3 0 0.7 0 1.1 -0.1 a 2.2 2.2 0 0 0 0.9 -0.5 c 0.3 -0.2 0.5 -0.6 0.7 -1.1 c 0.2 -0.5 0.3 -1.1 0.3 -2 V 1.2 l 0.1 -0.1 c 0.2 -0.3 0.4 -0.5 0.8 -0.8 z m 10.6 12.5 V 8.2 h -0.3 c -0.5 0 -0.9 0.1 -1.4 0.2 c -0.4 0.1 -0.8 0.3 -1.1 0.5 a 2.4 2.4 0 0 0 -0.7 0.8 c -0.2 0.3 -0.3 0.7 -0.3 1.2 c 0 0.3 0 0.6 0.1 0.8 c 0.1 0.2 0.2 0.4 0.3 0.6 c 0.2 0.2 0.4 0.3 0.7 0.4 c 0.3 0.1 0.7 0.1 1.1 0.1 h 1.4 z m 6.3 0 v -6.7 h 2.5 v 9 h -6.4 c -0.1 1.2 -0.5 2.2 -1.2 2.9 c -0.8 0.8 -2 1.2 -3.5 1.2 h 0 a 9.7 9.7 0 0 1 -1.9 -0.2 c -0.3 -0.1 -0.5 -0.1 -0.7 -0.2 a 2.5 2.5 0 0 1 -0.5 -0.2 l -0.3 -0.1 l 0.6 -2 l 0.3 0.1 a 7.3 7.3 0 0 0 0.8 0.2 c 0.2 0 0.4 0.1 0.7 0.1 a 6.3 6.3 0 0 0 1.9 -0.1 c 0.3 -0.1 0.6 -0.2 0.8 -0.3 a 1.4 1.4 0 0 0 0.5 -0.6 c 0.1 -0.2 0.1 -0.5 0.2 -0.8 h -1.7 c -0.6 0 -1.2 -0.1 -1.7 -0.2 a 4.1 4.1 0 0 1 -1.4 -0.7 a 3.5 3.5 0 0 1 -1 -1.2 c -0.2 -0.5 -0.4 -1.1 -0.4 -1.7 a 4.8 4.8 0 0 1 1.6 -3.6 c 0.5 -0.5 1.2 -0.8 1.9 -1.1 c 0.8 -0.3 1.6 -0.4 2.5 -0.4 h 2.7 v 6.7 h 3.8 z m 1.3 -7.5 a 1.5 1.5 0 0 1 -1.1 -0.5 A 1.7 1.7 0 0 1 38.9 3.6 c 0 -0.4 0.2 -0.8 0.4 -1.2 a 1.5 1.5 0 0 1 1.1 -0.5 c 0.4 0 0.8 0.2 1.1 0.5 c 0.3 0.3 0.4 0.7 0.4 1.2 a 1.6 1.6 0 0 1 -0.4 1.2 c -0.3 0.3 -0.7 0.5 -1.1 0.5 h 0 z m -18.7 32.7 S 11.6 50 10.9 36.9 C 5.2 31.5 0 35.8 0 35.8 s 10.1 -12 10.9 1.1 c 5.6 5.4 10.9 1.1 10.9 1.1 z" fill-rule="nonzero"/>
    </symbol>

    <symbol viewBox="0 0 16 16" id="location">
        <title>location</title>
        <path d="M 0 7.6 L 16 0 L 8.4 16 L 6.7 9.3 z" fill-rule="nonzero"/>
    </symbol>
    <symbol viewBox="0 0 24 24" id="done">
        <title>done</title>
        <path d="M12 23c6.075 0 11-4.925 11-11S18.075 1 12 1 1 5.925 1 12s4.925 11 11 11zm0 1C5.373 24 0 18.627 0 12S5.373 0 12 0s12 5.373 12 12-5.373 12-12 12zm4.287-16.7l1.426 1.4-7.588 7.727-3.838-3.908 1.426-1.402 2.412 2.456 6.162-6.274z" fill-rule="nonzero"/>
    </symbol>
    
    <symbol viewBox="0 0 48 48" id="mic">
        <path d="M 25.4 41.1 h 6.6 V 44 H 16 v -2.9 h 6.6 v -3.9 C 16.1 36.4 11 30.8 11 24 v -4.8 h 2.9 V 24 c 0 5.7 4.5 10.3 10.1 10.3 c 5.6 0 10.1 -4.6 10.1 -10.3 v -4.8 H 37 V 24 c 0 6.8 -5.1 12.4 -11.6 13.2 v 3.9 z M 24 30.2 c -3.5 0 -6.4 -2.9 -6.4 -6.4 V 10.4 C 17.6 6.9 20.5 4 24 4 s 6.4 2.9 6.4 6.4 v 13.3 c 0 3.6 -2.9 6.4 -6.4 6.4 z"/>
    </symbol>

    <symbol viewBox="0 0 48 48" id="news">
        <title>news</title>
        <path d="M 6.2 27.2 c -0.9 0.5 -1.9 1 -2.8 1.5 A 21.5 21.5 0 0 1 3 24.5 C 3 12.6 12.6 3 24.5 3 c 9.4 0 17.4 6 20.3 14.4 a 119.5 119.5 0 0 0 -5.4 -3.9 c -2.7 -3.7 -6.8 -6.3 -11.5 -7.2 a 32.1 32.1 0 0 1 4.2 7.8 a 237.2 237.2 0 0 0 -2.7 1.2 a 29.2 29.2 0 0 0 -4.8 -8.6 a 29.1 29.1 0 0 0 -6.2 14 a 388.7 388.7 0 0 0 -3.2 1.7 a 32.1 32.1 0 0 1 6 -16.1 C 12.5 7.9 6 15.5 6 24.5 c 0 0.9 0.1 1.8 0.2 2.7 z m 3.1 7.8 c 2.7 3.9 6.9 6.7 11.8 7.6 a 32.1 32.1 0 0 1 -4.6 -9.1 c 1 -0.2 2 -0.4 3 -0.5 a 29.2 29.2 0 0 0 5 9.2 a 29.1 29.1 0 0 0 5.5 -10.9 c 1.1 -0.2 2.1 -0.3 3.2 -0.5 a 32.1 32.1 0 0 1 -5.3 11.8 c 6.9 -1.3 12.4 -6.4 14.3 -13 c 1.1 -0.1 2.1 -0.3 3.2 -0.4 C 43.3 38.9 34.7 46 24.5 46 a 1.5 1.5 0 0 1 -0.1 0 c -7.7 0 -14.5 -4.1 -18.3 -10.3 c 1.1 -0.2 2.1 -0.5 3.1 -0.7 z M 2 34 c 11.1 -6.3 23.8 -13 34.2 -17 c 4.2 2.5 8 5.4 11.8 8.8 C 32.6 27.3 19.9 28.9 2 34 z"/>
    </symbol>

    <symbol viewBox="0 0 35 40" id="fines">
        <title>fines</title>
        <path d="M6.729 11.429c.028.147.06.293.094.438a11.342 11.342 0 0 0-.816 4.237c0 3.708 1.776 7.003 4.527 9.09H2.612v2.598h29.776v-2.597h-7.922c2.751-2.088 4.527-5.383 4.527-9.091 0-1.497-.29-2.927-.816-4.237.034-.145.066-.291.094-.438H35v25.974A2.605 2.605 0 0 1 32.388 40H2.612A2.605 2.605 0 0 1 0 37.403V11.429h6.729zm1.655 3.992A10.976 10.976 0 0 0 17.5 20.26c3.8 0 7.148-1.92 9.116-4.84.017.226.026.454.026.684 0 5.02-4.093 9.09-9.142 9.09-5.049 0-9.142-4.07-9.142-9.09 0-.23.009-.458.026-.683zm9.247 2.501c-4.977 0-9.012-4.012-9.012-8.961C8.62 4.012 12.654 0 17.631 0c4.976 0 9.01 4.012 9.01 8.961 0 4.95-4.034 8.961-9.01 8.961z" fill-rule="nonzero"/>
    </symbol>

    <symbol viewBox="0 0 32 32" id="support">
        <title>support</title>
        <path d="M29.957 23.829L32 32l-8.171-2.043A15.927 15.927 0 0 1 16 32C7.163 32 0 24.837 0 16S7.163 0 16 0s16 7.163 16 16c0 2.844-.742 5.514-2.043 7.829zM8.8 18.4a2.4 2.4 0 1 0 0-4.8 2.4 2.4 0 0 0 0 4.8zm7.2 0a2.4 2.4 0 1 0 0-4.8 2.4 2.4 0 0 0 0 4.8zm7.2 0a2.4 2.4 0 1 0 0-4.8 2.4 2.4 0 0 0 0 4.8z" fill-rule="nonzero"/>
    </symbol>

    <symbol viewBox="0 0 26 32" id="location-pin">
        <title>location-pin</title>
        <path d="M12.529 15.448a3.01 3.01 0 0 1-3.02-3c0-1.657 1.352-3 3.02-3a3.01 3.01 0 0 1 3.02 3c0 1.656-1.353 3-3.02 3m0-15.448C5.609 0 0 5.57 0 12.444c0 2.879.987 5.527 2.64 7.636l9.189 11.577a.892.892 0 0 0 .7.343.892.892 0 0 0 .7-.343l9.189-11.577a12.337 12.337 0 0 0 2.64-7.636C25.058 5.571 19.448 0 12.528 0" fill-rule="evenodd"/>
    </symbol>

    <symbol viewBox="0 0 32 21" id="email">
        <title>email</title>
        <path d="M.195.289h31.61L16 12.484.195.289zM0 19.41V1.655l10.829 8.293L0 19.41zm21.171-9.463L32 1.655v17.756L21.171 9.948zM16 14.045l4.195-3.317 10.83 9.463H.975l10.83-9.463L16 14.045z" fill-rule="evenodd"/>
    </symbol>

    <symbol viewBox="0 0 32 32" id="call-us">
        <title>call-us</title>
        <path d="M26.5 24.867c.7.566.933 1.5.566 2.332-.466 1.1-2.099 3.067-2.633 3.6-2.933 2.968-9.7-.699-16.1-7.132C1.933 17.233-1.733 10.5 1.2 7.533 1.734 7 3.7 5.366 4.8 4.9c.8-.333 1.768-.1 2.334.6l3.2 4.067c.667.833.533 2.032-.266 2.733-.834.734-1.401 1.234-1.534 1.367-1.235 1.233.532 3.767 3.265 6.501 2.735 2.733 5.301 4.533 6.534 3.3.167-.135.635-.7 1.368-1.534.699-.801 1.9-.934 2.733-.267l4.066 3.2zm-10-14.3a6.547 6.547 0 0 1 3.167 1.766c.9.9 1.5 2 1.734 3.134.2.866-.467 1.7-1.367 1.633a1.282 1.282 0 0 1-1.2-1 4.019 4.019 0 0 0-1.067-1.9c-.533-.532-1.2-.9-1.9-1.066-.534-.167-.966-.634-1-1.2-.068-.902.766-1.568 1.633-1.368zm8.8 6.933c-.667-.034-1.2-.534-1.2-1.166-.2-2.068-1.066-4.1-2.666-5.701a8.947 8.947 0 0 0-5.701-2.667 1.322 1.322 0 0 1-1.2-1.233c-.067-.8.634-1.466 1.433-1.4 2.667.233 5.3 1.366 7.333 3.4a11.824 11.824 0 0 1 3.4 7.333c.066.801-.6 1.5-1.4 1.434zm1.6-12.4c3.134 3.167 4.8 7.267 4.9 11.434.033.767-.633 1.4-1.4 1.333-.7-.033-1.2-.6-1.233-1.267-.1-3.467-1.5-6.933-4.167-9.6-2.633-2.667-6.1-4.066-9.6-4.2-.667-.033-1.233-.567-1.267-1.234a1.295 1.295 0 0 1 1.333-1.4C19.633.3 23.733 1.967 26.9 5.1z" fill-rule="evenodd"/>
    </symbol>

    <symbol viewBox="0 0 32 33" id="chat-mahboub">
        <title>chat-mahboub</title>
        <path d="M21.287 24.209l.556-.418.835 1.183-.556.417c-1.392.974-3.2 1.53-5.148 1.53-1.948 0-3.757-.556-5.148-1.53l-.556-.417.834-1.183.557.418c1.113.765 2.713 1.252 4.313 1.252 1.67 0 3.2-.418 4.313-1.252zm-2.296-9.183c1.53-1.183 6.052-2.991 5.983-2.991.904.417 2.296 1.67 2.296 1.67-4.105.208-8.279 1.321-8.279 1.321zm-8.834-2.991c.834 0 1.46.695 1.53 1.53 0 .835-.696 1.53-1.53 1.53-.835 0-1.53-.695-1.53-1.53 0-.835.695-1.53 1.53-1.53zM16.974.278c8.139 0 14.678 6.609 14.678 14.679v5.913h-1.948v-5.844C29.704 8 24 2.296 16.974 2.296c-7.026 0-12.73 5.634-12.73 12.66v6.192h-.557c-.209 0-.417 0-.626-.07 1.739 5.496 6.748 9.53 12.87 9.67.139-.418.556-.765 1.112-.765.696 0 1.253.556 1.253 1.252 0 .695-.557 1.252-1.253 1.252-.556 0-1.043-.348-1.182-.835A14.817 14.817 0 0 1 2.157 20.73c-1.114-.556-1.81-1.67-1.81-2.99v-1.67c0-1.392.836-2.644 2.088-3.13C3.478 5.773 9.6.277 16.974.277z" fill-rule="evenodd"/>
    </symbol>

    <symbol viewBox="0 0 32 28" id="sign-language">
        <title>sign-language</title>
        <path d="M30.486 7.187c-.014.007 2.01 2.499 1.399 6.954-.657.337-1.123.474-1.536 1.04-1.353 1.91-.94 3.11-2.354 5.784-.267.458-.474.572-.764.947-.474.72-.587 1.232-1.13 1.904-.323.397-.566.565-.903.946-.46.49-.948 1.208-1.131 1.307-.36.215-.574.872-.902.994-.283.138-.848-.732-.405-1.307.267-.373.366-.434.58-.725.742-.902 2.5-3.057 1.674-2.484-.596.43-1.337 1.177-2.346 1.72-.406.213-2.185 1.031-2.62 1.039-.986.03-1.987.404-2.308.137-.536-.405-.07-1.177.496-1.314.551-.176.513-.13 1.315-.313.865-.176.352-.2 2.17-.773.603-.77 3.072-2.337 2.033-1.803-1.123.603-2.926 1.13-3.125 1.077-.52-.068-1.391.054-2.208-.129-.672-.16-.734-.611-1.406-1.04-.465-.29-.97-.642-1.077-.863.123-.344.269-.527.582-.72.813-.581 2.138 1.002 2.338 1.079.03-.04.362-.12 2.094-.176.244.007 2.491-1.743 2.528-1.803.176-.49.115-.36-.091-.23-.917.633-2.72.565-3.34.587-.412-.022-2.032-1.367-2.804-1.94-.565-.421-.344-.787-.405-1.315-.053-.694 0-1.123.222-1.764-.337-.154-.405-.321.183-1.575.473-.954.35-1.39.855-1.948.39-.45.122-.26.68-.496.65-.222 1.047-.229 1.673-.405.986-.305 1.499-.565 2.438-.856.612-.206.925-.436 1.536-.458.657-.062 1.009.222 1.673.229 1.766.092 2.682-.313 4.386-1.307zm-6.556 7.092c.3-.91-.755-.826-1.63-2.484-1.513.573-2.33.313-2.843.267-.23-.03-.192.894-1.628 1.986.604.483.91 1.92.903 1.904a4.716 4.716 0 0 1 1.812 1.085c1.704-.948 1.742-.52 2.483-1.085.613-.42.58-.55.903-1.673zm-8.627-8.132c.467.267.97.619 1.087.856-.13.328-.282.512-.588.718-.828.577-2.192-1.08-2.35-1.084-.077.036-.48.102-2.083.136-.245.022-2.491 1.772-2.53 1.857-.175.466-.113.336.092.175.916-.602 2.72-.534 3.346-.542.405.008 2.025 1.352 2.797 1.948.566.398.336.773.405 1.307.053.688-.007 1.108-.221 1.765.336.137.406.306-.23 1.582-.429.933-.314 1.369-.81 1.942-.39.435-.121.245-.68.451-.65.252-1.048.259-1.72.45-.94.292-1.451.552-2.392.865-.611.183-.925.413-1.536.45-.657.046-1.009-.236-1.673-.275-1.773-.061-2.682.345-4.386 1.315.007.015-2.01-2.47-1.399-6.916.657-.351 1.124-.481 1.536-1.085 1.345-1.879.94-3.08 2.353-5.738.258-.474.474-.582.763-.994.474-.688.582-1.199 1.131-1.849.321-.42.566-.589.903-.955.45-.505.94-1.223 1.085-1.307.406-.23.619-.887.956-1.04.274-.106.832.765.404 1.353-.275.359-.374.42-.588.725-.741.895-2.506 3.042-1.673 2.438.595-.397 1.337-1.146 2.345-1.673.406-.229 2.187-1.047 2.63-1.077.978-.007 1.972-.382 2.3-.137.536.436.062 1.2-.496 1.353-.551.16-.513.114-1.307.275-.88.198-.36.221-2.171.763-.612.802-3.087 2.369-2.032 1.81 1.116-.58 2.918-1.107 3.117-1.085.513.1 1.393-.023 2.21.176.664.145.733.597 1.405 1.047zM9.29 11.298c-.62.443-.58.58-.9 1.666-.298.948.749.856 1.627 2.491 1.514-.552 2.33-.29 2.843-.23.23.016.19-.908 1.628-1.986-.604-.496-.91-1.933-.903-1.94-1.109-.33-1.812-1.064-1.812-1.04-1.704.924-1.75.497-2.483 1.04z" fill-rule="evenodd"/>
    </symbol>
    <symbol viewBox="0 0 50 50" id="notification">
      <title>notification</title>
      <path d="M 25 0 C 22.792969 0 21 1.792969 21 4 C 21 6.207031 22.792969 8 25 8 C 27.207031 8 29 6.207031 29 4 C 29 1.792969 27.207031 0 25 0 Z M 19.375 6.09375 C 14.804688 8.050781 12 12.457031 12 18 C 12 29 8.199219 31.761719 5.9375 33.40625 C 4.933594 34.132813 4 34.808594 4 36 C 4 40.207031 10.28125 42 25 42 C 39.71875 42 46 40.207031 46 36 C 46 34.808594 45.066406 34.132813 44.0625 33.40625 C 41.800781 31.761719 38 29 38 18 C 38 12.441406 35.199219 8.046875 30.625 6.09375 C 29.769531 8.367188 27.566406 10 25 10 C 22.433594 10 20.230469 8.363281 19.375 6.09375 Z M 19 43.875 C 19 43.914063 19 43.960938 19 44 C 19 47.308594 21.691406 50 25 50 C 28.308594 50 31 47.308594 31 44 C 31 43.960938 31 43.914063 31 43.875 C 29.117188 43.953125 27.117188 44 25 44 C 22.882813 44 20.882813 43.953125 19 43.875 Z "/>
    </symbol>

    <symbol viewBox="0 0 33 34" id="press-release">
        <title>press-release</title>      
        <path d="M28.886 31.22c1.16 0 2.114-.955 2.114-2.122V11.146c0-.743-.608-1.358-1.35-1.365l-2.845-.03-.005.722-2-.006v-7.12C24.8 2.606 24.195 2 23.458 2H3.322C2.598 2 2 2.603 2 3.344V29.1c0 1.172.943 2.12 2.1 2.12h24.786zm-24.785 2C1.835 33.22 0 31.374 0 29.1V3.344C0 1.501 1.49 0 3.322 0h20.136C25.3 0 26.8 1.5 26.8 3.348v4.404l2.87.029A3.372 3.372 0 0 1 33 11.146v17.952a4.126 4.126 0 0 1-4.114 4.122H4.1zm24.739-2l-.028 2h-.809a3.317 3.317 0 0 1-3.327-3.344l.124-19.415 2 .006v18.636c0 1.15.906 2.085 2.04 2.117zM6.2 6.244h14.4v8.244H6.2V6.244zm2 6.244h10.4V8.244H8.2v4.244zm-1 6.244h12.4v2H7.2v-2zm0 5.463h12.4v2H7.2v-2z" fill-rule="nonzero"/>
    </symbol>

    <symbol viewBox="0 0 28 23" id="briefcase">
        <title>briefcase</title>
        <path d="M25.57 3.78c.974 0 1.763.784 1.763 1.75v7.694H.667V5.53c0-.966.79-1.75 1.764-1.75h5.855V1.75C8.286.783 9.076 0 10.049 0h7.902c.974 0 1.764.783 1.764 1.749v2.032h5.854zm-3.951 13.221a1.897 1.897 0 0 0 1.905-1.889h3.81v5.806c0 .966-.79 1.749-1.764 1.749H2.43a1.756 1.756 0 0 1-1.763-1.749v-5.806h3.809c0 1.043.853 1.889 1.905 1.889a1.897 1.897 0 0 0 1.905-1.889h11.428c0 1.043.853 1.889 1.905 1.889zM10.19 3.781h7.62V1.888h-7.62v1.893z" fill-rule="nonzero"/>
        
    </symbol>

    <symbol viewBox="0 0 48 48" id="audio-on">
        <title>audio on</title>
        <path d="M28 8v32l-12.952-6.746-5.048-.17V15.96h5.048L28 8zm2 6h2v20h-2V14zm4-4h2v28h-2V10zm4-4h2v36h-2V6z"/>
    </symbol>

    <symbol viewBox="0 0 48 48" id="audio-off">
        <title>audio off</title>
        <path d="M32 16.19v23.66L20.19 33.7l-6.23 9.234-1.658-1.118L38.584 2.85l1.659 1.118L32 16.19zm0-6.832L16.05 33.004l-2.05-.07V15.812h5.048L32 7.85v1.507z"/>
    </symbol>


    <symbol viewBox="0 0 48 48" id="sign-on">
        <title>sign on</title>
        <path d="M42.09 15.866c-.02.01 2.537 3.158 1.765 8.787-.83.426-1.417.6-1.94 1.314-1.707 2.413-1.185 3.93-2.971 7.31-.338.578-.599.722-.964 1.196-.599.908-.742 1.556-1.428 2.405-.407.502-.714.715-1.14 1.196-.58.618-1.196 1.527-1.428 1.652-.453.27-.725 1.1-1.139 1.256-.356.173-1.07-.926-.51-1.652.337-.472.462-.549.732-.916.936-1.14 3.155-3.863 2.113-3.139-.752.543-1.688 1.487-2.961 2.174-.513.269-2.76 1.303-3.31 1.312-1.243.04-2.507.511-2.912.174-.677-.512-.087-1.488.627-1.661.695-.222.646-.164 1.659-.396 1.092-.222.445-.252 2.74-.976.762-.974 3.879-2.954 2.566-2.278-1.417.761-3.694 1.428-3.945 1.36-.656-.086-1.756.07-2.788-.162-.848-.204-.926-.773-1.775-1.314-.587-.368-1.223-.812-1.359-1.092.155-.434.34-.666.734-.908 1.027-.735 2.7 1.265 2.952 1.362.039-.05.458-.152 2.644-.222.308.01 3.145-2.202 3.192-2.279.222-.619.145-.455-.116-.29-1.158.8-3.434.714-4.215.742-.52-.028-2.566-1.728-3.54-2.452-.715-.532-.435-.994-.512-1.66-.067-.878 0-1.42.28-2.23-.425-.195-.511-.406.231-1.99.597-1.206.442-1.756 1.08-2.461.492-.57.153-.329.858-.628.82-.28 1.321-.289 2.112-.51 1.245-.387 1.892-.716 3.078-1.083.772-.26 1.167-.55 1.94-.579.829-.078 1.273.28 2.112.29 2.23.115 3.386-.396 5.537-1.652zm-8.279 8.961c.378-1.15-.953-1.043-2.058-3.139-1.909.725-2.942.396-3.589.338-.29-.039-.242 1.13-2.054 2.51.762.61 1.148 2.426 1.139 2.405a5.953 5.953 0 0 1 2.287 1.372c2.152-1.198 2.2-.657 3.136-1.372.774-.531.733-.694 1.14-2.114zm-10.89-10.275c.589.338 1.225.782 1.372 1.082-.164.415-.356.646-.742.907-1.046.729-2.768-1.365-2.968-1.37-.096.046-.606.128-2.63.172-.309.028-3.145 2.24-3.193 2.346-.222.59-.144.425.116.222 1.156-.761 3.434-.675 4.224-.685.511.01 2.557 1.708 3.532 2.462.714.502.423.975.51 1.651.068.87-.009 1.4-.28 2.23.426.174.513.386-.288 1.999-.542 1.179-.397 1.73-1.024 2.453-.492.55-.153.31-.857.571-.82.318-1.324.327-2.172.57-1.188.367-1.833.695-3.02 1.091-.772.232-1.168.522-1.94.57-.83.057-1.273-.3-2.112-.348-2.238-.078-3.386.435-5.538 1.661.01.019-2.537-3.12-1.765-8.739.83-.444 1.418-.608 1.939-1.371 1.698-2.374 1.187-3.891 2.97-7.25.327-.6.599-.735.964-1.256.599-.87.734-1.515 1.428-2.336.405-.532.714-.745 1.14-1.208.568-.638 1.187-1.545 1.37-1.651.512-.291.78-1.121 1.206-1.314.347-.134 1.051.967.51 1.71-.346.453-.471.53-.741.916-.936 1.13-3.164 3.844-2.113 3.08.752-.501 1.688-1.447 2.961-2.114.513-.289 2.76-1.323 3.319-1.36 1.236-.01 2.49-.483 2.904-.174.677.55.079 1.517-.626 1.71-.695.201-.647.143-1.65.347-1.111.25-.455.28-2.74.965-.773 1.013-3.898 2.993-2.566 2.288 1.409-.734 3.684-1.4 3.935-1.372.647.125 1.758-.03 2.79.222.839.183.926.754 1.775 1.323zm-7.594 6.51c-.781.559-.733.732-1.136 2.104-.376 1.198.945 1.082 2.055 3.148 1.91-.697 2.942-.367 3.589-.29.289.02.24-1.149 2.054-2.51-.762-.628-1.148-2.444-1.139-2.453-1.4-.416-2.287-1.343-2.287-1.314-2.152 1.169-2.21.63-3.136 1.314z"/>
    </symbol>

    <symbol viewBox="0 0 48 48" id="sign-off">
        <title>sign off</title>
        <path d="M30.737 18.061c.235-.083.484-.168.763-.254.772-.26 1.167-.55 1.94-.579.829-.078 1.273.28 2.112.29 2.23.115 3.386-.396 5.537-1.652-.019.01 2.538 3.158 1.766 8.787-.83.426-1.417.6-1.94 1.314-1.707 2.413-1.185 3.93-2.971 7.31-.338.578-.599.722-.964 1.196-.599.908-.742 1.556-1.428 2.405-.407.502-.714.715-1.14 1.196-.58.618-1.196 1.527-1.428 1.652-.453.27-.725 1.1-1.139 1.256-.356.173-1.07-.926-.51-1.652.337-.472.462-.549.732-.916.936-1.14 3.155-3.863 2.113-3.139-.752.543-1.688 1.487-2.961 2.174-.513.269-2.76 1.303-3.31 1.312-1.243.04-2.507.511-2.912.174-.677-.512-.087-1.488.627-1.661.695-.222.646-.164 1.659-.396 1.092-.222.445-.252 2.74-.976.762-.974 3.879-2.954 2.566-2.278-1.417.761-3.694 1.428-3.945 1.36-.656-.086-1.756.07-2.788-.162-.848-.204-.926-.773-1.775-1.314-.587-.368-1.223-.812-1.359-1.092.155-.434.34-.666.734-.908 1.027-.735 2.7 1.265 2.952 1.362.039-.05.458-.152 2.644-.222.308.01 3.145-2.202 3.192-2.279.222-.619.145-.455-.116-.29-1.158.8-3.434.714-4.215.742-.52-.028-2.566-1.728-3.54-2.452a1.394 1.394 0 0 1-.35-.354L13.96 42.934l-1.658-1.118L38.584 2.85l1.659 1.118-9.506 14.092zm-4.984 7.39c.335.713.502 1.504.496 1.49a5.953 5.953 0 0 1 2.287 1.372c2.152-1.198 2.2-.657 3.136-1.372.774-.531.733-.694 1.14-2.114.377-1.15-.954-1.043-2.059-3.139-1.249.474-2.123.497-2.76.44l-2.24 3.323zm-8.858 4.667c-.126.044-.256.09-.395.135-.771.232-1.167.522-1.939.57-.83.057-1.273-.3-2.112-.348-2.238-.078-3.386.435-5.538 1.661.01.019-2.537-3.12-1.765-8.739.83-.444 1.418-.608 1.939-1.371 1.698-2.374 1.187-3.891 2.97-7.25.327-.6.599-.735.964-1.256.599-.87.734-1.515 1.428-2.336.405-.532.714-.745 1.14-1.208.568-.638 1.187-1.545 1.37-1.651.512-.291.78-1.121 1.206-1.314.347-.134 1.051.967.51 1.71-.346.453-.471.53-.741.916-.936 1.13-3.164 3.844-2.113 3.08.752-.501 1.688-1.447 2.961-2.114.513-.289 2.76-1.323 3.319-1.36 1.236-.01 2.49-.483 2.904-.174.677.55.079 1.517-.626 1.71-.695.201-.647.143-1.65.347-1.111.25-.455.28-2.74.965-.773 1.013-3.898 2.993-2.566 2.288 1.409-.734 3.684-1.4 3.935-1.372.647.125 1.758-.03 2.79.222.839.183.926.754 1.775 1.323.589.338 1.225.782 1.372 1.082-.164.415-.356.646-.742.907-1.046.729-2.768-1.365-2.968-1.37-.096.046-.606.128-2.63.172-.309.028-3.145 2.24-3.193 2.346-.222.59-.144.425.116.222 1.156-.761 3.434-.675 4.224-.685.511.01 2.557 1.708 3.532 2.462.074.052.138.104.192.156l-1.684 2.497a7.117 7.117 0 0 1-.39-1.28c-1.4-.416-2.287-1.343-2.287-1.314-2.152 1.169-2.21.63-3.136 1.314-.781.56-.733.733-1.136 2.105-.376 1.198.945 1.082 2.055 3.148 1.09-.398 1.894-.461 2.503-.428l-2.854 4.232z"/>
    </symbol>

    <symbol viewBox="0 0 38 40" id="wheel-chair">
        <title>Wheel Chair</title>
        <path  d="M32.857 26.371l.263-.202 1.666-1.282c.439-.34.97-.466 1.479-.398a2.02 2.02 0 0 1 .948 3.598l-1.667 1.281-1.64 1.263c-.154.122-.32.219-.494.29a2.021 2.021 0 0 1-.896.137 1.974 1.974 0 0 1-1.289-.61l-3.32-3.404-2.746-2.815H16a1.992 1.992 0 0 1-1.421-.596 2.684 2.684 0 0 1-1.246-2.272V11.108c0-.74.299-1.412.782-1.898a2.65 2.65 0 0 1 3.77 0c.483.486.781 1.157.781 1.898v3.357H26c.368 0 .701.15.942.393.242.243.391.579.391.95 0 .37-.15.705-.39.948a1.325 1.325 0 0 1-.943.394h-7.334V20.2H25.965a2.019 2.019 0 0 1 .222.009 1.994 1.994 0 0 1 1.276.631l3.297 3.38 2.097 2.15zM16 6.835c-.92 0-1.753-.382-2.357-1.001a3.45 3.45 0 0 1-.976-2.416c0-.943.373-1.799.976-2.416A3.284 3.284 0 0 1 16 0c.92 0 1.753.383 2.357 1.002.603.617.976 1.473.976 2.416a3.45 3.45 0 0 1-.976 2.416A3.284 3.284 0 0 1 16 6.835zM14.333 40a14.29 14.29 0 0 1-10.13-4.203A14.286 14.286 0 0 1 0 25.67c0-2.66.73-5.203 2.048-7.393a14.33 14.33 0 0 1 5.575-5.272l1.242 2.375 1.244 2.376a8.989 8.989 0 0 0-3.493 3.298 8.921 8.921 0 0 0-1.283 4.616 8.91 8.91 0 0 0 2.639 6.332 8.995 8.995 0 0 0 6.361 2.627c1.99 0 3.872-.663 5.396-1.8a8.938 8.938 0 0 0 3.247-4.648l2.557.758 2.559.76a14.311 14.311 0 0 1-5.174 7.425A14.334 14.334 0 0 1 14.333 40z"/>
    </symbol>

    <symbol viewBox="0 0 26 26" id="eye-off">
        <title>Eye off</title>
        <path style=" " d="M 1.90625 0.96875 C 1.863281 0.976563 1.820313 0.988281 1.78125 1 C 1.40625 1.066406 1.105469 1.339844 1 1.703125 C 0.894531 2.070313 1.003906 2.460938 1.28125 2.71875 L 23.28125 24.71875 C 23.679688 25.117188 24.320313 25.117188 24.71875 24.71875 C 25.117188 24.320313 25.117188 23.679688 24.71875 23.28125 L 20.21875 18.78125 C 23.605469 16.675781 25.722656 13.777344 25.8125 13.59375 C 26.113281 13.195313 26.113281 12.804688 25.8125 12.40625 C 25.613281 12.105469 20.300781 5 13 5 C 11.058594 5 9.261719 5.519531 7.6875 6.25 L 2.71875 1.28125 C 2.511719 1.058594 2.210938 0.945313 1.90625 0.96875 Z M 13 7 C 18.199219 7 22.386719 11.398438 23.6875 13 C 22.898438 13.960938 21.125 15.851563 18.75 17.3125 L 17.53125 16.09375 C 18.40625 14.257813 18.0625 11.96875 16.5 10.40625 C 14.9375 8.84375 12.699219 8.523438 10.84375 9.40625 L 9.21875 7.78125 C 10.398438 7.292969 11.636719 7 13 7 Z M 4.90625 7.90625 C 4.820313 7.96875 4.742188 8.03125 4.65625 8.09375 C 4.453125 8.140625 4.28125 8.28125 4.1875 8.46875 C 1.8125 10.332031 0.277344 12.316406 0.1875 12.40625 C -0.113281 12.707031 -0.113281 13.195313 0.1875 13.59375 C 0.386719 13.894531 5.601563 21 13 21 C 14.5 21 15.886719 20.6875 17.1875 20.1875 L 16 19.03125 C 15.980469 19 15.960938 18.96875 15.9375 18.9375 L 6.3125 9.3125 L 5.28125 8.3125 C 5.253906 8.277344 5.222656 8.246094 5.1875 8.21875 Z M 5.1875 10.15625 L 13.9375 18.9375 C 13.628906 18.964844 13.3125 19 13 19 C 12.632813 19 12.261719 18.980469 11.90625 18.9375 L 4.09375 11.125 C 4.425781 10.808594 4.792969 10.480469 5.1875 10.15625 Z M 3.125 12.09375 L 9.28125 18.25 C 5.863281 16.929688 3.285156 14.195313 2.3125 13 C 2.519531 12.761719 2.796875 12.445313 3.125 12.09375 Z " />
    </symbol>
    <symbol viewBox="0 0 48 48" id="translate">
        <title>Translate</title>
        <path d="M7.545 17.02l-1.448 4.524H4.122L9.125 6.94h2.37l5.002 14.605H14.39l-1.58-4.524H7.546zm1.844-5.687L7.939 15.6h4.477l-1.448-4.136c-.395-1.034-.526-1.81-.79-2.714-.263.774-.527 1.68-.79 2.584zm22.64 22.102c0 .388-.13.647-.263.52-.262-.13-.788-.517-1.448-1.034-.659-.517-1.184-.903-1.58-1.034.79.13 1.58.257 2.37.389l.132-.258c-.131-.13-.264-.517-.527-1.293-.262-.647-.395-1.034-.395-1.164 0-.258.132-.646.527-1.421.263-.39.395-.906.658-1.423v-.13l-.133-.13c-.658.257-1.58.516-2.896.904V39.51c-.13 1.035-.13 1.551-.263 1.551l-.527.13c-.395-.258-.657-.646-.657-1.292 0-.26 0-.646.132-1.164.132-.517.132-.905.132-1.164V27.49c0-.13-.132-.517-.395-.905h.394c.132 0 .395 0 .659.129.262.13.525.13.657.13.395 0 .79-.258 1.45-.517.92-.519 1.314-.777 1.447-.777.658.258 1.185.516 1.448.905-.13.388-.659.904-1.316 1.68-.658.646-1.053 1.294-1.053 1.81.921 1.552 1.448 2.714 1.448 3.49zm9.742-2.456c-.92 0-2.105.13-3.816.388.262 1.034.395 2.197.395 3.618v3.62c0 1.68-.527 2.714-1.448 3.231-.265-.257-.66-.775-1.186-1.422-.525-.646-.92-1.164-1.316-1.421.526.128 1.316.258 2.37.517l.262.128.133-.128v-6.72c0-.519-.133-.777-.395-1.036-.659.13-1.185.13-1.711.259-.79.13-1.317.13-1.712.13-.526 0-.92-.39-1.316-1.034 1.053-.13 2.633-.26 4.739-.517.262-.13 1.185-.259 2.501-.517 1.053-.258 1.974-.388 2.632-.388.397 0 .659 0 1.054.259s.658.517.658.776c-.264.127-.922.257-1.844.257zm.395 4.266c1.186.517 1.711 1.163 1.71 1.939 0 .647-.13 1.034-.526 1.034-.394-.387-1.184-1.034-1.974-1.81-.788-.905-1.579-1.422-1.974-1.81.92 0 1.843.26 2.764.647zm-2.5-9.177c.263 0 .526 0 .658.26.395.258.527.388.527.646-.13.257-.921.388-2.369.646-1.316.128-2.238.258-2.765.258-.92 0-1.447-.26-1.447-.777 1.184-.128 2.106-.257 2.763-.387 0 0 .396-.129 1.317-.388.657-.128 1.053-.258 1.316-.258zM33.74 34.21c.263 0 .395.518.132 1.552 0 .646-.131 1.293-.526 1.81-.395.646-.921.904-1.317.904-.132 0-.262 0-.395-.13-.132-.128-.132-.258-.132-.387 0-.258.132-.517.527-1.034.395-.388.658-.775.921-1.034.132-.129.263-.388.395-.905l.395-.776zm-.92-20.42v2.843l-9.216-5.817L32.82 5v2.714s18.034 1.034 8.293 15.897c3.293-11.114-8.293-9.822-8.293-9.822zM15.18 34.21v-2.843l9.214 5.817L15.18 43v-2.714s-18.034-1.034-8.293-15.898C3.596 35.503 15.18 34.21 15.18 34.21z"/>
    </symbol>

    <symbol viewBox="0 0 26 26" id="instagram">
        <title>instagram</title>
        <path d="M6 2a4 4 0 0 0-4 4v14a4 4 0 0 0 4 4h14a4 4 0 0 0 4-4V6a4 4 0 0 0-4-4H6zm0-2h14a6 6 0 0 1 6 6v14a6 6 0 0 1-6 6H6a6 6 0 0 1-6-6V6a6 6 0 0 1 6-6zm10.81 12.39a3.8 3.8 0 1 0-7.517 1.115 3.8 3.8 0 0 0 7.518-1.114zm1.98-.293A5.8 5.8 0 1 1 7.314 13.8a5.8 5.8 0 0 1 11.474-1.702z" fill-rule="nonzero"/>
    </symbol>

    <symbol viewBox="0 0 24 23" id="linkedin">
        <title>linkedin</title>
        <path d="M23.95 14.067v8.877h-5.133v-8.282c0-2.081-.742-3.501-2.6-3.501-1.419 0-2.263.957-2.634 1.883-.136.33-.17.791-.17 1.254v8.646H8.277s.07-14.028 0-15.481h5.135v2.194c-.01.017-.024.034-.034.05h.034v-.05c.682-1.053 1.9-2.558 4.628-2.558 3.378 0 5.91 2.213 5.91 6.968zM2.907 0C1.149 0 0 1.155 0 2.674 0 4.16 1.116 5.351 2.838 5.351h.034c1.79 0 2.904-1.19 2.904-2.677C5.743 1.155 4.663 0 2.906 0zM.305 22.944h5.133V7.463H.305v15.481z" fill-rule="nonzero"/>
    </symbol>

    <symbol viewBox="0 0 25 20" id="youtube">
        <title>youtube</title>
        <path d="M0 10c0-3.333.432-5.196.432-5.196C.752 2.717 2.686.76 4.762.489c0 0 1.931-.489 7.615-.489 5.683 0 7.618.49 7.618.49 2.07.295 4.017 2.228 4.312 4.317 0 0 .446 2.116.446 5.193 0 3.077-.446 5.193-.446 5.193-.311 2.088-2.246 4.014-4.325 4.269 0 0-3.06.538-7.606.538-4.546 0-7.61-.538-7.61-.538-2.074-.27-4.034-2.178-4.335-4.27 0 0-.431-1.86-.431-5.192zm10.422 4.466l6.182-3.804c.592-.364.594-.959 0-1.324l-6.182-3.804c-.592-.364-1.077-.09-1.077.616v7.7c0 .705.483.982 1.077.616z" fill-rule="nonzero"/>
    </symbol>

    <symbol viewBox="0 0 24 24" id="exclamation">
        <title>exclamation</title>
        <path d="M12 0C5.371 0 0 5.371 0 12s5.371 12 12 12 12-5.371 12-12S18.629 0 12 0zm1.172 18.055h-2.344v-2.18h2.344zm0-4.032h-2.344V5.97h2.344z"/>
    </symbol>

    <symbol viewBox="0 0 30 30" id="logout">
        <path style="line-height:normal;text-indent:0;text-align:start;text-decoration-line:none;text-decoration-style:solid;text-decoration-color:#000;text-transform:none;block-progression:tb;isolation:auto;mix-blend-mode:normal" d="M 5 3 C 3.897 3 3 3.897 3 5 L 3 25 C 3 26.103 3.897 27 5 27 L 19 27 C 20.103 27 21 26.103 21 25 L 21 16 L 13 16 C 12.448 16 12 15.552 12 15 C 12 14.448 12.448 14 13 14 L 21 14 L 21 5 C 21 3.897 20.103 3 19 3 L 5 3 z M 21 14 L 21 16 L 26.585938 16 L 24.292969 18.292969 A 1.0001 1.0001 0 1 0 25.707031 19.707031 L 29.707031 15.707031 A 1.0001 1.0001 0 0 0 29.707031 14.292969 L 25.707031 10.292969 A 1.0001 1.0001 0 0 0 24.990234 9.9902344 A 1.0001 1.0001 0 0 0 24.292969 11.707031 L 26.585938 14 L 21 14 z" font-weight="400" font-family="sans-serif" white-space="normal" overflow="visible"/>
    </symbol>

    <symbol viewBox="0 0 32 32" id="dashboard">
        <path style=" " d="M 5 5 L 5 11 L 11 11 L 11 5 Z M 13 7 L 13 9 L 27 9 L 27 7 Z M 5 13 L 5 19 L 11 19 L 11 13 Z M 13 15 L 13 17 L 27 17 L 27 15 Z M 5 21 L 5 27 L 11 27 L 11 21 Z M 7 23 L 9 23 L 9 25 L 7 25 Z M 13 23 L 13 25 L 27 25 L 27 23 Z "/>
    </symbol>

    <symbol viewBox="0 0 50 50" id="faq">
        <path style=" " d="M 25 0 C 21.5 0 18.195313 1.292969 15.59375 3.59375 C 12.695313 6.195313 11 10 11 14 C 11 15.101563 11.898438 16 13 16 L 15 16 C 16.101563 16 17 15.101563 17 14 C 17 11.699219 17.988281 9.601563 19.6875 8 C 21.1875 6.699219 23 6 25 6 C 25.300781 6 25.605469 5.992188 25.90625 6.09375 C 29.605469 6.492188 32.507813 9.492188 32.90625 13.09375 C 33.304688 16.394531 31.585938 19.492188 28.6875 21.09375 C 24.488281 23.292969 21.90625 27.492188 21.90625 32.09375 L 21.90625 38 C 21.90625 39.101563 22.804688 40 23.90625 40 L 25.90625 40 C 27.007813 40 27.90625 39.101563 27.90625 38 L 27.90625 32.09375 C 27.90625 29.792969 29.300781 27.605469 31.5 26.40625 C 36.601563 23.707031 39.511719 18.199219 38.8125 12.5 C 38.210938 6 32.992188 0.792969 26.59375 0.09375 C 26.09375 -0.0078125 25.5 0 25 0 Z M 23 44 C 22.449219 44 22 44.445313 22 45 L 22 49 C 22 49.554688 22.449219 50 23 50 L 27 50 C 27.554688 50 28 49.554688 28 49 L 28 45 C 28 44.445313 27.554688 44 27 44 Z "/>
    </symbol>

	<symbol viewBox="0 0 33 28" id="home"> 	
       <polygon id="Path" points="14.1168166 27 14.1168166 21.160263 17.6478893 21.160263 17.6478893 27 27 27 27 14.2941176 31.7647059 14.2941176 15.8823529 0 0 14.2941176 4.76470588 14.2941176 4.76470588 27"></polygon>		
   </symbol>	
   
   <symbol viewBox="0 0 19 25" id="driver-car-owner"> 	
		<path d="M5.95338041,13.4514318 L12.4038397,13.4514318 C14.0818585,13.4514318 15.7073072,14.0368379 17,15.106741 C18.2667501,16.1551725 19,17.7138673 19,19.3582105 L19,25 L0,25 L0,19.1827831 C-1.07731699e-15,17.6383494 0.639404776,16.1628324 1.76632373,15.106741 C2.90114088,14.0432478 4.39812234,13.4514318 5.95338041,13.4514318 Z" id="Path" fill-rule="evenodd"></path>
		<circle id="Oval" cx="9.5" cy="5.5" r="5.5"></circle>
		<circle id="Oval" stroke="#FFFFFF" stroke-width="2" cx="9.5" cy="26.5" r="8.5"></circle>
		<rect id="Rectangle" fill="#FFFFFF" x="8.49999999" y="19" width="2" height="4"></rect>
		<polygon id="Path-2" fill="#FFFFFF" points="8.49999999 22.5180287 6.39986907 25 12.8942221 25 10.5 22.5180287"></polygon>
   </symbol>
   
   <symbol viewBox="0 0 19 25" id="driver-car-owner-mob"> 	
		<path d="M5.95338041,13.4514318 L12.4038397,13.4514318 C14.0818585,13.4514318 15.7073072,14.0368379 17,15.106741 C18.2667501,16.1551725 19,17.7138673 19,19.3582105 L19,25 L0,25 L0,19.1827831 C-1.07731699e-15,17.6383494 0.639404776,16.1628324 1.76632373,15.106741 C2.90114088,14.0432478 4.39812234,13.4514318 5.95338041,13.4514318 Z" id="Path" fill-rule="evenodd"></path>
		<circle id="Oval" cx="9.5" cy="5.5" r="5.5"></circle>
		<circle id="Oval" stroke="#EE0000" stroke-width="2" cx="9.5" cy="26.5" r="8.5"></circle>
		<rect id="Rectangle" fill="#EE0000" x="8.49999999" y="19" width="2" height="4"></rect>
		<polygon id="Path-2" fill="#EE0000" points="8.49999999 22.5180287 6.39986907 25 12.8942221 25 10.5 22.5180287"></polygon>
   </symbol>   
   
   <symbol viewBox="0 0 25 22" id="desktop"> 	
		<rect id="Rectangle" stroke="#FFFFFF" fill="#ee0000" stroke-width="3" x="1.5" y="1.5" width="22" height="14" rx="0.5"></rect>
		<path d="M9.44323721,17 L15.4372301,17 L16.0278231,18.852727 L17.4438511,20.8358786 C17.6043174,21.0606122 17.5522185,21.3728784 17.327485,21.5333447 C17.2426979,21.5938851 17.1411175,21.6264286 17.036935,21.6264286 L7.93655573,21.6264286 C7.66041335,21.6264286 7.43655573,21.402571 7.43655573,21.1264286 C7.43655573,21.0273683 7.46598082,20.9305403 7.52109779,20.8482296 L8.74294004,19.02355 L9.44323721,17 Z" id="Path-4" ></path>
	</symbol>
	
	<symbol viewBox="0 0 15 15" id="globe">
		<path d="M14.982,7C14.736,3.256,11.744,0.263,8,0.017V0H7.5H7v0.017C3.256,0.263,0.263,3.256,0.017,7H0v0.5
		V8h0.017C0.263,11.744,3.256,14.736,7,14.982V15h0.5H8v-0.018c3.744-0.246,6.736-3.238,6.982-6.982H15V7.5V7H14.982z M4.695,1.635
		C4.212,2.277,3.811,3.082,3.519,4H2.021C2.673,2.983,3.599,2.16,4.695,1.635z M1.498,5h1.758C3.122,5.632,3.037,6.303,3.01,7H1.019
		C1.072,6.296,1.238,5.623,1.498,5z M1.019,8H3.01c0.027,0.697,0.112,1.368,0.246,2H1.498C1.238,9.377,1.072,8.704,1.019,8z
		 M2.021,11h1.497c0.292,0.918,0.693,1.723,1.177,2.365C3.599,12.84,2.673,12.018,2.021,11z M7,13.936
		C5.972,13.661,5.087,12.557,4.55,11H7V13.936z M7,10H4.269C4.128,9.377,4.039,8.704,4.01,8H7V10z M7,7H4.01
		c0.029-0.704,0.118-1.377,0.259-2H7V7z M7,4H4.55C5.087,2.443,5.972,1.339,7,1.065V4z M12.979,4h-1.496
		c-0.293-0.918-0.693-1.723-1.178-2.365C11.4,2.16,12.327,2.983,12.979,4z M8,1.065C9.027,1.339,9.913,2.443,10.45,4H8V1.065z M8,5
		h2.73c0.142,0.623,0.229,1.296,0.26,2H8V5z M8,8h2.99c-0.029,0.704-0.118,1.377-0.26,2H8V8z M8,13.936V11h2.45
		C9.913,12.557,9.027,13.661,8,13.936z M10.305,13.365c0.483-0.643,0.885-1.447,1.178-2.365h1.496
		C12.327,12.018,11.4,12.84,10.305,13.365z M13.502,10h-1.758c0.134-0.632,0.219-1.303,0.246-2h1.99
		C13.928,8.704,13.762,9.377,13.502,10z M11.99,7c-0.027-0.697-0.112-1.368-0.246-2h1.758c0.26,0.623,0.426,1.296,0.479,2H11.99z"/>
	</symbol>
	
</svg>