<?xml version="1.0" encoding="utf-8"?>
<!-- Generator: Adobe Illustrator 18.1.0, SVG Export Plug-In . SVG Version: 6.00 Build 0)  -->
<svg version="1.1" id="Layer_1" xmlns="http://www.w3.org/2000/svg" xmlns:xlink="http://www.w3.org/1999/xlink" x="0px" y="0px"
	 viewBox="0 0 1190.6 841.9" enable-background="new 0 0 1190.6 841.9" xml:space="preserve">
<path fill="#333333" d="M1018.4,140H803.7V64.8c0-35.7-29-64.7-64.7-64.7H449.3c-35.7,0-64.7,29-64.7,64.7V140H169.9
	c-35.7,0-64.7,29-64.7,64.7v284.6h977.9V204.6C1083.1,168.9,1054.1,140,1018.4,140 M454.5,70h279.4v70H454.5V70z"/>
<path fill="#333333" d="M873.5,628.9c-38.6,0-69.9-31.3-69.9-69.9H384.6c0,38.6-31.3,69.9-69.8,69.9s-69.9-31.3-69.9-69.9H105.2
	v214.7c0,35.7,28.9,64.7,64.7,64.7h848.5c35.7,0,64.7-28.9,64.7-64.7V559H943.4C943.4,597.6,912.1,628.9,873.5,628.9"/>
</svg>
