<?xml version="1.0" encoding="utf-8"?>
<!-- Generator: Adobe Illustrator 18.1.0, SVG Export Plug-In . SVG Version: 6.00 Build 0)  -->
<svg version="1.1" id="Layer_6" xmlns="http://www.w3.org/2000/svg" xmlns:xlink="http://www.w3.org/1999/xlink" x="0px" y="0px"
	 viewBox="0 0 1190.6 841.9" enable-background="new 0 0 1190.6 841.9" xml:space="preserve">
<path fill-rule="evenodd" clip-rule="evenodd" d="M829.9,792.7l40.7-25.9c-23.2-107.4-124.2-234.1-146-240.3l-21.9,11.2L681,548.9
	l-32.3,16.5l-6.4,3.3l-50.5,25.8C521,488,508.5,451.5,462.3,328.5l44.2-22.6l64.7-33l18.9-9.7c8.6-38.4-56.3-216.2-105.4-257.7
	l-18.8,6.6l-21.4,9.5L431,27.7l-20.8,10.8L393.8,48l-17.9,11.9c-60.5,41.8-93.4,80.4-85.7,135.8l0.5,2.3l-0.3,0.2
	c47,242.3,140.5,434.2,306.4,614.4c40.4,38.7,91.7,33,160.3,12.1l26.5-9.8l27.4-12.5l15.5-8.4L829.9,792.7L829.9,792.7z"/>
</svg>
