<?xml version="1.0" encoding="utf-8"?>
<!-- Generator: Adobe Illustrator 18.1.0, SVG Export Plug-In . SVG Version: 6.00 Build 0)  -->
<svg version="1.1" id="Layer_6" xmlns="http://www.w3.org/2000/svg" xmlns:xlink="http://www.w3.org/1999/xlink" x="0px" y="0px"
	 viewBox="0 0 612 792" enable-background="new 0 0 612 792" xml:space="preserve">
<g>
	<path fill="#233642" d="M495.7,261.8H326.3c-62.4,0-113,57.9-113,129.3v25.8c0,71.4,50.6,129.3,113,129.3h88.5l97.9,112.1V544.7
		c54.3-9.4,95.9-63.1,95.9-127.8h0.1v-25.8C608.7,319.6,558,261.8,495.7,261.8z"/>
	<path fill="#233642" d="M175.7,380.1v-27.5c0-76.2,53.8-137.7,120.2-137.7h94.3c-16.6-47.6-57.2-81.2-104.7-81.2H116.2
		c-62.3,0-112.9,57.8-112.9,129.2v25.9c0,64.8,41.7,118.3,96,127.7v113.6l77-86.7C175.4,425.7,175.7,398.6,175.7,380.1z"/>
</g>
</svg>
