<?xml version="1.0" encoding="utf-8"?>
<!-- Generator: Adobe Illustrator 18.1.0, SVG Export Plug-In . SVG Version: 6.00 Build 0)  -->
<svg version="1.1" id="Layer_3" xmlns="http://www.w3.org/2000/svg" xmlns:xlink="http://www.w3.org/1999/xlink" x="0px" y="0px"
	 viewBox="0 0 595.3 841.9" enable-background="new 0 0 595.3 841.9" xml:space="preserve">
<path fill="#2A327B" d="M297.4,365.2c93.3,0,168.6-75.3,168.6-168.6c0-93.3-75.3-168.5-168.6-168.5c-93.2,0-168.5,75.2-168.5,168.5
	C128.9,290,204.2,365.2,297.4,365.2z"/>
<g>
	<path fill="#2A327B" d="M336.1,643.2v104.8c33.6,11.5,59.7,37.5,72,69.9h105.3C496.2,729.6,425.8,659.2,336.1,643.2z"/>
	<path fill="#2A327B" d="M81.5,818h105.3c12.2-32.5,38.3-58.4,72-69.9V643.2C169.1,659.2,98.7,729.6,81.5,818z"/>
	<path fill="#2A327B" d="M297.5,562.5c149.7,0,273.9,111.3,294.2,255.5h0.7V619.8c0-94.2-76.3-170.5-170.5-170.5H173
		c-94.2,0-170.5,76.3-170.5,170.5V818h0.7C23.6,673.8,147.7,562.5,297.5,562.5z"/>
</g>
</svg>
