<?xml version="1.0" encoding="utf-8"?>
<!-- Generator: Adobe Illustrator 18.1.0, SVG Export Plug-In . SVG Version: 6.00 Build 0)  -->
<svg version="1.1" id="_x2014_ÎÓÈ_x5F_1" xmlns="http://www.w3.org/2000/svg" xmlns:xlink="http://www.w3.org/1999/xlink"
	 x="0px" y="0px" viewBox="0 0 450 560" enable-background="new 0 0 450 560" xml:space="preserve">
<g>
	<path fill="#FFFFFF" d="M225.4,540.2c-122.8,0-222.7-99.9-222.7-222.7c0-122.8,99.9-222.7,222.7-222.7
		c122.8,0,222.7,99.9,222.7,222.7C448.1,440.2,348.2,540.2,225.4,540.2z M225.4,110.2c-114.3,0-207.2,93-207.2,207.2
		s93,207.2,207.2,207.2c114.3,0,207.3-93,207.3-207.2S339.7,110.2,225.4,110.2z"/>
</g>
<g>
	<g>
		
			<rect x="311.8" y="239.5" fill="#FFFFFF" stroke="#FFFFFF" stroke-width="0.25" stroke-miterlimit="10" width="44.8" height="3.3"/>
	</g>
	<g>
		
			<rect x="332.5" y="218.7" fill="#FFFFFF" stroke="#FFFFFF" stroke-width="0.25" stroke-miterlimit="10" width="3.3" height="44.8"/>
	</g>
</g>
<g>
	<g>
		
			<rect x="156.6" y="279.4" fill="#FFFFFF" stroke="#FFFFFF" stroke-width="0.25" stroke-miterlimit="10" width="44.8" height="3.3"/>
	</g>
</g>
<g>
	<path fill="#FFFFFF" d="M111.9,267h26.2l50.3,133.8h-28.6L147.9,368h-46.3l-12.1,32.8H61.6L111.9,267z M139.8,346.1l-15.1-41.6
		l-15.3,41.6H139.8z"/>
</g>
<g>
	<path fill="#FFFFFF" d="M248.3,216.5h36.1l69.3,184.3h-39.5l-16.4-45.2H234l-16.6,45.2H179L248.3,216.5z M286.7,325.5l-20.8-57.4
		l-21,57.4H286.7z"/>
</g>
</svg>
