<?xml version="1.0" encoding="utf-8"?>
<!-- Generator: Adobe Illustrator 18.1.0, SVG Export Plug-In . SVG Version: 6.00 Build 0)  -->
<svg version="1.1" id="Layer_1" xmlns="http://www.w3.org/2000/svg" xmlns:xlink="http://www.w3.org/1999/xlink" x="0px" y="0px"
	 viewBox="0 0 1190.6 841.9" enable-background="new 0 0 1190.6 841.9" xml:space="preserve">
<g>
	<g enable-background="new    ">
		<g>
			<g>
				<path fill="#333333" d="M607,7C428.1,7,283,152,283,330.9c0,75,25.5,143.9,68.3,198.8l237.6,301.4c4.2,5.4,10.7,8.9,18.1,8.9
					c7.4,0,13.9-3.5,18.1-8.9l237.6-301.4c42.7-54.9,68.3-123.8,68.3-198.8C930.9,152,785.9,7,607,7 M607,451
					c-66.3,0-120.1-53.8-120.1-120.1c0-66.3,53.8-120.1,120.1-120.1c66.3,0,120.1,53.8,120.1,120.1C727.1,397.2,673.3,451,607,451"
					/>
			</g>
		</g>
	</g>
</g>
</svg>
