<?xml version="1.0" encoding="utf-8"?>
<!-- Generator: Adobe Illustrator 18.1.0, SVG Export Plug-In . SVG Version: 6.00 Build 0)  -->
<svg version="1.1" id="icon" xmlns="http://www.w3.org/2000/svg" xmlns:xlink="http://www.w3.org/1999/xlink" x="0px" y="0px"
	 viewBox="0 0 168.4 238.1" enable-background="new 0 0 168.4 238.1" xml:space="preserve">
<g>
	<rect x="1" y="184.3" fill="#FFFFFF" width="166.7" height="18.5"/>
	<path fill="#FFFFFF" d="M84.3,165.7l37.1-37.1c10.2-9.8,16.6-23.5,16.6-38.8c0-29.7-24-53.7-53.7-53.7c-29.7,0-53.7,24-53.7,53.7
		c0,15.3,6.4,29,16.6,38.8L84.3,165.7z M84.3,80.6c5.1,0,9.3,4.1,9.3,9.3c0,5.1-4.1,9.3-9.3,9.3s-9.3-4.1-9.3-9.3
		C75.1,84.7,79.2,80.6,84.3,80.6z"/>
</g>
</svg>
