<?xml version="1.0" encoding="utf-8"?>
<!-- Generator: Adobe Illustrator 18.1.0, SVG Export Plug-In . SVG Version: 6.00 Build 0)  -->
<svg version="1.1" id="Layer_6" xmlns="http://www.w3.org/2000/svg" xmlns:xlink="http://www.w3.org/1999/xlink" x="0px" y="0px"
	 viewBox="0 0 1190.6 841.9" enable-background="new 0 0 1190.6 841.9" xml:space="preserve">
<g>
	<path fill="#233642" d="M820.5,241.5c0,32.6-4.7,61.9-14,88.1c-9.3,26.2-22.4,48.9-39.3,67.9c-16.9,19.1-37.1,34.3-60.7,45.8
		c-23.6,11.5-49.7,18.9-78.3,22l-4.7,116.2c-0.4,7.1-6.1,12.5-17,16.1c-11,3.6-26.7,5.4-47.4,5.4c-13.1,0-24.1-0.3-33-0.9
		c-9-0.6-16-1.7-21.2-3.3c-5.2-1.6-8.9-3.8-11.3-6.6c-2.4-2.8-3.8-6.3-4.1-10.7L484,441.1c-0.4-12.7,0.2-23,1.8-31
		c1.6-8,4.5-14.3,8.6-19.1c4.2-4.8,9.5-8.1,15.8-9.8c6.3-1.8,13.9-2.7,22.6-2.7h8.3c21,0,39.2-3.4,54.5-10.1
		c15.3-6.8,27.9-15.7,37.8-26.8c9.9-11.1,17.2-24.2,21.8-39.3c4.6-15.1,6.8-31.2,6.8-48.2c0-19.1-2.7-36.5-8-52.4
		c-5.4-15.9-13.6-29.6-24.5-41.1C618.7,149,605,140.2,588.5,134c-16.5-6.1-35.8-9.2-58.1-9.2c-20.2,0-38.1,2-53.6,5.9
		c-15.5,4-28.8,8.3-39.9,13.1c-11.1,4.8-20.4,9.1-27.7,13.1c-7.4,4-13,5.9-17,5.9c-2.8,0-5.4-0.9-7.7-2.7c-2.4-1.8-4.4-5.1-6-9.8
		c-1.6-4.8-2.9-11.5-3.9-20.3c-1-8.7-1.5-19.9-1.5-33.3c0-13.9,0.6-24,1.8-30.4c1.2-6.4,3.8-11.5,7.7-15.5c4-4,11.5-8.6,22.6-14
		c11.1-5.4,24.5-10.3,39.9-14.9c15.5-4.5,32.8-8.4,51.8-11.6c19.1-3.1,38.9-4.8,59.6-4.8c46.8,0,86.9,6.5,120.3,19.4
		c33.3,12.9,60.6,30.3,81.9,52.1c21.2,21.9,36.8,46.9,46.7,75.1C815.6,180.4,820.5,210.2,820.5,241.5z M644.2,752
		c0,16.3-1.3,30-3.9,41.1c-2.6,11.1-7.1,20.1-13.7,26.8c-6.6,6.8-15.3,11.6-26.2,14.6c-10.9,3-24.3,4.5-40.2,4.5
		c-16.7,0-30.4-1.5-41.1-4.5c-10.7-3-19.3-7.8-25.9-14.6c-6.6-6.8-11.1-15.7-13.7-26.8c-2.6-11.1-3.9-24.8-3.9-41.1
		c0-16.7,1.3-30.7,3.9-42c2.6-11.3,7.1-20.5,13.7-27.4c6.6-6.9,15.2-11.9,25.9-14.9c10.7-3,24.4-4.5,41.1-4.5
		c15.9,0,29.3,1.5,40.2,4.5c10.9,3,19.6,8,26.2,14.9c6.6,6.9,11.1,16.1,13.7,27.4C642.9,721.3,644.2,735.3,644.2,752z"/>
</g>
</svg>
