<?xml version="1.0" encoding="utf-8"?>
<!-- Generator: Adobe Illustrator 18.1.0, SVG Export Plug-In . SVG Version: 6.00 Build 0)  -->
<svg version="1.1" id="Layer_1" xmlns="http://www.w3.org/2000/svg" xmlns:xlink="http://www.w3.org/1999/xlink" x="0px" y="0px"
	 viewBox="0 0 1190.6 841.9" enable-background="new 0 0 1190.6 841.9" xml:space="preserve">
<g>
	<g enable-background="new    ">
		<g>
			<g>
				<path fill="#333333" d="M596,3.6C416.5,3.6,271,149.1,271,328.6c0,75.2,25.6,144.3,68.5,199.4l238.3,302.3
					c4.3,5.4,10.8,8.9,18.2,8.9c7.4,0,13.9-3.5,18.2-8.9L852.5,528c42.9-55.1,68.5-124.2,68.5-199.4C920.9,149.1,775.5,3.6,596,3.6
					 M596,449c-66.5,0-120.5-53.9-120.5-120.5c0-66.5,53.9-120.4,120.5-120.4c66.5,0,120.5,53.9,120.5,120.4
					C716.5,395.1,662.5,449,596,449"/>
			</g>
		</g>
	</g>
</g>
</svg>
