<?xml version="1.0" encoding="utf-8"?>
<!-- Generator: Adobe Illustrator 18.1.0, SVG Export Plug-In . SVG Version: 6.00 Build 0)  -->
<svg version="1.1" id="Layer_5" xmlns="http://www.w3.org/2000/svg" xmlns:xlink="http://www.w3.org/1999/xlink" x="0px" y="0px"
	 viewBox="0 0 1190.6 841.9" enable-background="new 0 0 1190.6 841.9" xml:space="preserve">
<rect x="458.9" y="597.3" fill="#423E24" width="262.6" height="117.8"/>
<rect x="458.9" y="694.9" fill="#423E24" width="262.6" height="47.4"/>
<rect x="500.7" y="732" fill="#423E24" width="178.8" height="108"/>
<path fill="#423E24" d="M650.9,335.8v210.5h73c5.9-23.6,18.1-44.6,35.7-59.9c3.9-3.4,11.9-10.1,12.1-10.2
	c54.5-49.5,88.7-120.8,88.7-200.2c0-149.3-121-270.3-270.3-270.3c-149.3,0-270.3,121-270.3,270.3c0,79.4,34.2,150.8,88.7,200.2
	c0.1,0.1,8.1,6.8,12,10.2c17.6,15.3,29.8,36.3,35.8,59.9h73V335.8"/>
</svg>
