<?xml version="1.0" encoding="utf-8"?>
<!-- Generator: Adobe Illustrator 18.1.0, SVG Export Plug-In . SVG Version: 6.00 Build 0)  -->
<svg version="1.1" id="icon" xmlns="http://www.w3.org/2000/svg" xmlns:xlink="http://www.w3.org/1999/xlink" x="0px" y="0px"
	 viewBox="0 0 168.4 168.4" enable-background="new 0 0 168.4 168.4" xml:space="preserve">
<path fill="#171C8F" d="M94.8,11.2c-40.5,0-73.1,32.7-73.1,73.1c0,14.9,4.4,28.7,12,40.2l-32.9,33h57.5v-28.1
	c0-13.4,10.8-24.2,24.2-24.2h24.8c13.4,0,24.2,10.8,24.2,24.2v18.3c21.9-12.6,36.5-36.2,36.5-63.4C167.9,43.9,135.2,11.2,94.8,11.2z
	 M94.8,94.8c-11.6,0-20.9-9.3-20.9-20.9c0-11.6,9.3-20.9,20.9-20.9c11.6,0,20.9,9.3,20.9,20.9C115.7,85.5,106.3,94.8,94.8,94.8z"/>
</svg>
