<?xml version="1.0" encoding="utf-8"?>
<!-- Generator: Adobe Illustrator 18.1.0, SVG Export Plug-In . SVG Version: 6.00 Build 0)  -->
<svg version="1.1" id="Layer_1" xmlns="http://www.w3.org/2000/svg" xmlns:xlink="http://www.w3.org/1999/xlink" x="0px" y="0px"
	 viewBox="0 0 595.3 595.3" enable-background="new 0 0 595.3 595.3" xml:space="preserve">
<path fill="#1D5E74" d="M137.7,231.5c55.4,0,100.5-45.1,100.5-100.5c0-55.4-45.1-100.5-100.5-100.5S37.2,75.6,37.2,131
	C37.2,186.4,82.3,231.5,137.7,231.5z"/>
<path fill="#1D5E74" d="M406.6,231.5C462,231.5,507,186.4,507,131C507,75.6,462,30.5,406.6,30.5S306.1,75.6,306.1,131
	C306.1,186.4,351.2,231.5,406.6,231.5z"/>
<path fill="#1D5E74" d="M585.2,324c-3.5-2-7.8-2-11.3-0.1l-103.6,57.9V296c0-6.3-5.1-11.4-11.4-11.4H66.4c-6.3,0-11.4,5.1-11.4,11.4
	v41.4l-35-19.5c-3.5-1.9-7.8-1.9-11.3,0.1c-3.5,2-5.6,5.8-5.6,9.8V433c0,4.1,2.1,7.8,5.6,9.8c3.5,2,7.8,2.1,11.3,0.1l35-19.5v128.5
	c0,6.3,5.1,11.4,11.4,11.4h392.5c6.3,0,11.4-5.1,11.4-11.4v-81.8l103.6,57.8c3.5,2,7.9,1.9,11.3-0.1c3.5-2,5.6-5.8,5.6-9.8V333.9
	C590.9,329.8,588.7,326.1,585.2,324z M363.8,463.5H156.5v-79.2h207.3V463.5z"/>
</svg>
