<?xml version="1.0" encoding="utf-8"?>
<!-- Generator: Adobe Illustrator 18.1.0, SVG Export Plug-In . SVG Version: 6.00 Build 0)  -->
<svg version="1.1" id="Layer_6" xmlns="http://www.w3.org/2000/svg" xmlns:xlink="http://www.w3.org/1999/xlink" x="0px" y="0px"
	 viewBox="0 0 1190.6 841.9" enable-background="new 0 0 1190.6 841.9" xml:space="preserve">
<g>
	<path fill="#233642" d="M809.4,239.4c0,32.5-4.7,61.8-14,87.9c-9.3,26.1-22.4,48.8-39.2,67.8c-16.8,19-37.1,34.3-60.6,45.7
		c-23.6,11.5-49.6,18.9-78.2,22l-4.7,115.9c-0.4,7.1-6.1,12.5-16.9,16c-10.9,3.6-26.7,5.3-47.3,5.3c-13,0-24.1-0.3-33-0.9
		c-9-0.6-16-1.7-21.1-3.3c-5.1-1.6-8.9-3.8-11.3-6.5c-2.4-2.7-3.8-6.3-4.1-10.7l-5.4-140.2c-0.4-12.7,0.2-23,1.8-30.9
		c1.6-7.9,4.5-14.2,8.6-19c4.2-4.8,9.4-8,15.8-9.8c6.3-1.8,13.9-2.6,22.6-2.6h8.3c21,0,39.1-3.4,54.3-10.1
		c15.3-6.7,27.8-15.6,37.7-26.8c9.9-11.1,17.1-24.2,21.7-39.2c4.6-15.1,6.8-31.1,6.8-48.1c0-19-2.7-36.4-8-52.3
		c-5.4-15.9-13.5-29.5-24.4-41c-10.9-11.5-24.5-20.3-41-26.5c-16.5-6.1-35.8-9.2-57.9-9.2c-20.2,0-38,2-53.5,5.9
		c-15.4,4-28.7,8.3-39.8,13.1c-11.1,4.8-20.3,9.1-27.6,13.1c-7.4,3.9-13,5.9-16.9,5.9c-2.8,0-5.3-0.9-7.7-2.7
		c-2.4-1.8-4.4-5.1-6-9.8c-1.6-4.8-2.9-11.5-3.8-20.2c-1-8.7-1.5-19.8-1.5-33.3c0-13.9,0.6-24,1.8-30.3c1.2-6.4,3.8-11.5,7.7-15.5
		c4-3.9,11.5-8.6,22.6-14c11.1-5.3,24.4-10.3,39.9-14.9c15.4-4.5,32.7-8.4,51.7-11.6c19-3.1,38.8-4.8,59.4-4.8
		c46.7,0,86.7,6.4,120,19.3c33.3,12.9,60.5,30.2,81.7,52c21.2,21.8,36.7,46.8,46.6,74.9C804.5,178.4,809.4,208.1,809.4,239.4z
		 M633.6,748.7c0,16.3-1.3,29.9-3.9,41c-2.6,11.1-7.1,20-13.7,26.8c-6.5,6.7-15.3,11.5-26.1,14.5s-24.3,4.5-40.1,4.5
		c-16.7,0-30.3-1.5-41-4.5s-19.3-7.8-25.8-14.5c-6.5-6.7-11.1-15.6-13.7-26.8c-2.6-11.1-3.9-24.7-3.9-41c0-16.7,1.3-30.6,3.9-41.9
		c2.5-11.3,7.1-20.4,13.7-27.3c6.5-6.9,15.2-11.9,25.8-14.9c10.7-3,24.4-4.5,41-4.5c15.8,0,29.2,1.5,40.1,4.5
		c10.9,3,19.6,7.9,26.1,14.9c6.5,6.9,11.1,16,13.7,27.3C632.3,718.1,633.6,732,633.6,748.7z"/>
</g>
</svg>
