<?xml version="1.0" encoding="utf-8"?>
<!-- Generator: Adobe Illustrator 18.1.0, SVG Export Plug-In . SVG Version: 6.00 Build 0)  -->
<svg version="1.1" id="Layer_6" xmlns="http://www.w3.org/2000/svg" xmlns:xlink="http://www.w3.org/1999/xlink" x="0px" y="0px"
	 viewBox="0 0 1190.6 841.9" enable-background="new 0 0 1190.6 841.9" xml:space="preserve">
<path fill-rule="evenodd" clip-rule="evenodd" d="M826.7,786.9l40.5-25.7c-23.1-106.8-123.5-232.7-145.1-238.8l-21.8,11.2
	l-21.7,11.1l-32.1,16.4l-6.4,3.3L589.9,590c-70.3-105.9-82.7-142.2-128.6-264.5l43.9-22.5l64.3-32.8l18.8-9.6
	c8.5-38.2-56-214.9-104.7-256.1L464.8,11l-21.3,9.5l-13.3,6.1l-20.6,10.7l-16.4,9.5l-17.8,11.8c-60.1,41.5-92.9,79.9-85.2,135
	l0.5,2.3l-0.3,0.2C337.1,436.9,430,627.6,595,806.8c40.1,38.5,91.2,32.9,159.3,12l26.3-9.8l27.3-12.5l15.4-8.4L826.7,786.9
	L826.7,786.9z"/>
</svg>
