<svg xmlns="http://www.w3.org/2000/svg" xmlns:xlink="http://www.w3.org/1999/xlink" width="338.984" height="231.41" viewBox="0 0 338.984 231.41">
  <defs>
    <linearGradient id="linear-gradient" x1="1.311" y1="0.479" x2="-1.735" y2="0.555" gradientUnits="objectBoundingBox">
      <stop offset="0" stop-opacity="0"/>
      <stop offset="0.99"/>
    </linearGradient>
    <linearGradient id="linear-gradient-2" x1="-0.311" y1="0.479" x2="2.735" y2="0.555" xlink:href="#linear-gradient"/>
    <linearGradient id="linear-gradient-3" x1="0.632" y1="1.692" x2="0.196" y2="-2.658" xlink:href="#linear-gradient"/>
    <linearGradient id="linear-gradient-4" x1="0.838" y1="0.55" x2="-0.529" y2="-0.613" gradientUnits="objectBoundingBox">
      <stop offset="0" stop-color="#fff"/>
      <stop offset="1" stop-color="gray"/>
    </linearGradient>
    <linearGradient id="linear-gradient-5" x1="-0.191" y1="0.748" x2="1.529" y2="-0.613" xlink:href="#linear-gradient-4"/>
    <linearGradient id="linear-gradient-6" x1="0.881" y1="0.5" x2="0.121" y2="0.5" gradientUnits="objectBoundingBox">
      <stop offset="0" stop-color="#d3d3d3"/>
      <stop offset="0.502" stop-color="#fff"/>
      <stop offset="1" stop-color="#cbcbcb"/>
    </linearGradient>
    <linearGradient id="linear-gradient-7" x1="0.173" y1="1.028" x2="1.13" y2="-0.857" xlink:href="#linear-gradient"/>
  </defs>
  <g id="Add_customers" transform="translate(-790.016 -2621.812)">
    <path id="Path_10519" data-name="Path 10519" d="M20.955,238.573c-26.522-19.11-19.94-64.748-18.214-79.448.957-8.093,2.955-16.185,7.071-23.115,11.859-19.98,37.114-25.028,55.78-38.115C86.362,83.411,99.585,58.428,121.937,46.8c12.3-6.4,26.318-8.13,40.046-8.9,24.923-1.4,52.2.953,70.722,18.458,13.4,12.66,20.076,31.343,31.98,45.541,10.494,12.525,24.667,21.113,35.651,33.173,16.314,17.9,24.652,45.278,15.832,68.213-8.195,21.248-20.739,35.19-27.245,37.29-20.883,6.75-61.5,2.211-83.345,3.756-23.408,1.65-49.5,3.392-72.951,3.467-36.186.12-85.558,2.107-111.643-9.263" transform="translate(789.264 2584.241)" fill="#efeefb"/>
    <g id="Group_5953" data-name="Group 5953" transform="translate(804.932 2694.008)">
      <g id="Group_5952" data-name="Group 5952" transform="translate(183 6.462)">
        <ellipse id="Ellipse_440" data-name="Ellipse 440" cx="24" cy="27.5" rx="24" ry="27.5" transform="translate(26.069 12.53)" fill="#e49d7d"/>
        <path id="Path_10511" data-name="Path 10511" d="M-4101.992-3329.014s-9.591-8.442-20.154-9.37-21.215,6.364-21.215,6.364l9.724-15.027,13.436-2.652,14.32,9.016Z" transform="translate(4173.835 3358.188)"/>
        <path id="Path_10515" data-name="Path 10515" d="M-4157.437-3082.687s9.314.682,12.418,7.481c1.574,3.448,5.256,9.236,8.229,18.7s2.438,8.169,2.438,8.169-12.9,11.094-54.789,11.32-53.2-11.32-53.2-11.32-.194,1.662,1.47-7.256,6.531-18.045,6.531-18.045,4.607-8.607,13.2-7.729S-4157.437-3082.687-4157.437-3082.687Z" transform="translate(4242.351 3165.865)" fill="#3c3c3c"/>
        <path id="Path_10512" data-name="Path 10512" d="M-4106.924-3233.416a34.017,34.017,0,0,1-7.426,16.619c-6.669,8.245-13.966,8.044-13.966,8.044s-6.721-.008-13.259-6.807a38.184,38.184,0,0,1-8.664-15.734l1.769,28.109,20.154,18.386,10.253-1.591,11.139-25.987Z" transform="translate(4178.768 3274.789)"/>
        <path id="Path_10518" data-name="Path 10518" d="M-4118.3-3081.338a5.956,5.956,0,0,1,2.1.35,6.579,6.579,0,0,1,1.834,1.2s-18.814,31.038-47.164,24.134c-24.269-6.381-27.617-23.537-27.617-23.537l24.9,10.147Z" transform="translate(4206.676 3165.716)"/>
        <path id="Union_48" data-name="Union 48" d="M13.547,102.536C5.132,96.939,0,86.138,0,86.138s3.693-5.439,5.492-15.4,1.7-24.453,1.7-24.453S5.963,32.422,7.767,22.85,14.41,8,14.41,8A38.928,38.928,0,0,1,23.2,2.713,48.826,48.826,0,0,1,34.2,0V12.4s-23.558-.88-19.787,33.886C17.234,83.34,33.658,83.706,33.658,83.706v.122c3.571-.23,16.693-3.264,19.128-35.215,4.843-35.449-18.57-36.12-18.57-36.12V.046A46.16,46.16,0,0,1,44.677,2.713,38.96,38.96,0,0,1,53.464,8S58.3,13.279,60.106,22.85s.576,23.432.576,23.432.217,11.8,3.222,20.283S70.976,83.83,70.976,83.83s-8.235,13.109-16.649,18.706c-7.431,4.942-18.244,5.708-20.669,5.819v.169S21.961,108.132,13.547,102.536Z" transform="translate(17.396 0)" fill="#2e2e2e"/>
        <path id="Path_10516" data-name="Path 10516" d="M-4022.266-3191.826s.324,11.693-3.87,20.189-12.908,13.793-12.908,13.793a67.082,67.082,0,0,0,10.816-5.948,36.651,36.651,0,0,0,7.393-7.134,19.915,19.915,0,0,1-3.418,14.561c-5.038,7.249-16.736,14.432-16.736,14.432s11.061-3.109,18.1-8.051a31.777,31.777,0,0,0,10.043-11.716s-4.425-10.027-6.591-16.214A66.718,66.718,0,0,1-4022.266-3191.826Z" transform="translate(4100.412 3244.96)" fill="#4f4e4e"/>
        <path id="Path_10517" data-name="Path 10517" d="M-4179.844-3161.643s-.151,10,2.928,16.7a24.137,24.137,0,0,0,9.385,10.117s-6.307-3.3-9.385-6.455-2.928-6.172-2.928-6.172l-6.214,9.9a56.838,56.838,0,0,0,4.428-12.142A116.1,116.1,0,0,0-4179.844-3161.643Z" transform="translate(4204.458 3223.312)" fill="#4f4e4e"/>
      </g>
      <g id="Group_5954" data-name="Group 5954" transform="translate(5591.98 3917.896)">
        <path id="Path_10529" data-name="Path 10529" d="M-5510.328-3804.892a95.726,95.726,0,0,0-18.944-2.324,74.708,74.708,0,0,0-17.549,2.324l1.046,12.669,16.5,9.646,18.944-11.855Z" transform="translate(-16.062 -32.282)" fill="#c3c3c3"/>
        <path id="Path_8935" data-name="Path 8935" d="M279.74,190.62s2.847,7.889-13.464,12.734-25.263,24.014-24.911,40.138v-2.369s50.719,18.637,93.728,1.436c0,0,4.141-30.784-25.263-41,0,0-6.095-1.795-4.307-8.973,0,0,9.352-7.152,9.709-15.556,0-2.592,2.408-7.781,1.763-13.124,2.976-25.408-10.5-27.244-18.754-27.713-27.171-1.547-32.276,27.211-25.222,44.9C275.986,186.149,277.022,188.276,279.74,190.62Z" transform="translate(-5837.077 -4031.003)" fill="#f7af87"/>
        <path id="Path_8936" data-name="Path 8936" d="M341.454,269.16s.642-16.625-4.572-26.937c-4.4-8.718-14.842-11.175-24.429-14.026a5.978,5.978,0,0,0-1.99-.546,8.414,8.414,0,0,0-2.477,1.526c-4.693,3.418-3.269,17.948-15.8,18.843-9.644-.285-14.2-16.327-19.45-21.68-11.5,3.389-20.494,3.32-26.528,13.384s-9.023,15.969-7.889,27.552C238.286,267.282,290.095,287.6,341.454,269.16Z" transform="translate(-5836.752 -4056.875)" fill="#171c8e"/>
        <path id="Path_8939" data-name="Path 8939" d="M351.962,174.206a2.729,2.729,0,0,1,2.326-1.176,2.478,2.478,0,0,1,1.519,1.609,8.164,8.164,0,0,1,.469,2.615,17.746,17.746,0,0,1-2.43,9.981c-.946,1.505-2.354,2.822-3.769,2.361a1.317,1.317,0,0,1-.745-.536,2.852,2.852,0,0,1-.331-.894,24.727,24.727,0,0,1-.11-8.7c.159-1.251.248-2.474,1.022-3.283C350.554,175.5,351.3,174.883,351.962,174.206Z" transform="translate(-5870.284 -4043.393)" fill="#f7af87"/>
        <path id="Path_10522" data-name="Path 10522" d="M352.891,174.206a2.729,2.729,0,0,0-2.326-1.176,2.478,2.478,0,0,0-1.519,1.609,8.163,8.163,0,0,0-.469,2.615,17.745,17.745,0,0,0,2.43,9.981c.946,1.505,2.354,2.822,3.769,2.361a1.317,1.317,0,0,0,.746-.536,2.852,2.852,0,0,0,.331-.894,24.726,24.726,0,0,0,.11-8.7c-.159-1.251-.248-2.474-1.022-3.283C354.3,175.5,353.553,174.883,352.891,174.206Z" transform="translate(-5921.362 -4043.393)" fill="#f7af87"/>
        <path id="Path_10520" data-name="Path 10520" d="M277.911,181.963a2.53,2.53,0,0,0,.759-2.154c-.235-.773-1.049-1.173-1.056-1.919a1.5,1.5,0,0,1,.587-1.084,2.4,2.4,0,0,1,1.443-.628.946.946,0,0,1,.531.117,1.09,1.09,0,0,1,.393.531,7.643,7.643,0,0,1-.173,5.784,2.933,2.933,0,0,1-.545.959,2.761,2.761,0,0,1-1.2.642c-.69.221-1.5.228-1.664-.635C276.868,182.957,277.593,182.4,277.911,181.963Z" transform="translate(-5797.031 -4042.026)" fill="url(#linear-gradient)"/>
        <path id="Path_10521" data-name="Path 10521" d="M280.126,181.963a2.53,2.53,0,0,1-.759-2.153c.235-.773,1.049-1.173,1.056-1.919a1.5,1.5,0,0,0-.587-1.084,2.4,2.4,0,0,0-1.443-.628.946.946,0,0,0-.531.117,1.09,1.09,0,0,0-.393.531,7.643,7.643,0,0,0,.173,5.784,2.933,2.933,0,0,0,.545.959,2.761,2.761,0,0,0,1.2.642c.69.221,1.5.228,1.664-.635C281.168,182.957,280.443,182.4,280.126,181.963Z" transform="translate(-5847.797 -4042.026)" fill="url(#linear-gradient-2)"/>
        <path id="Path_8963" data-name="Path 8963" d="M295.19,215.17s3.927,4.79,12.473,5.046c9.222.276,13.57-3.134,13.57-3.134s-4.066,8.973-14.219,10.975c-6.426,1.284-13.653-1.477-14.944-4.832C292.07,223.26,296.281,219.346,295.19,215.17Z" transform="translate(-5852.786 -4055.486)" fill="url(#linear-gradient-3)"/>
        <path id="Path_10523" data-name="Path 10523" d="M23.527-.34c6.26,0,19.432-2.84,23.813,2.472,4.548,5.512,0,19.6,0,28.589A38.683,38.683,0,0,1,44.219,46.1c-4,9.285-11.648,18.956-20.565,18.956-8.562,0-16.2-9.171-20.482-18.207A37.981,37.981,0,0,1-.287,30.721c0-8.783-2.433-20.124,2.192-25.938C6.056-.438,17.108-.34,23.527-.34Z" transform="translate(-5566.861 -3895.608)" fill="#f7af87"/>
        <path id="Path_10524" data-name="Path 10524" d="M-5504.711-3869.75s2.435-19.087,1.452-24.784-2.554-10.017-5.5-10.017-2.947-8.839-15.125-6.482-33.39,0-32.8,21.606c.335,12.271,1.358,20.639,1.358,20.639l1.582,2.338,1.184,4.717s-.785-13.552,0-18.07,9.428-4.125,21.606-3.732,13.945-2.357,20.034-7.463c1.888-1.583,3.458-1.034,2.978,6.118-.43,2.852.727,5.511.756,9.491.045,6.279-.756,13.657-.756,13.657l1.787-6.436Z" transform="translate(-13.002)" fill="#404040"/>
        <path id="Union_49" data-name="Union 49" d="M22.259,7.871,12.436,5.054,2.613,7.871,0,9.8.894,5.051l9.49-4.4L11.141,0h2.59l.757.65,9.49,4.4L24.872,9.8Z" transform="translate(-5555.364 -3853.705)" fill="#404040"/>
        <path id="Path_10527" data-name="Path 10527" d="M-5522.909-3808.73h3.308l2.745-.735s-2.552,2.2-3.083,4.238a8.5,8.5,0,0,0,.169,4.19,9.336,9.336,0,0,0,3.3.144,14.088,14.088,0,0,0,3.575-1.315s-4,3.263-8.045,3.487-8.136-2.593-8.136-2.593a12.425,12.425,0,0,0,3.457.686,5.888,5.888,0,0,0,2.712-.686,6.548,6.548,0,0,0,0-3.913,14.592,14.592,0,0,0-2.712-4.238Z" transform="translate(-21.558 -31.585)" fill="#404040"/>
        <path id="Path_10532" data-name="Path 10532" d="M-5515.613-3776.432l4.63,2.085v8.147a9.617,9.617,0,0,1-3.889-1.005,44.288,44.288,0,0,1-7.063-4.355Z" transform="translate(-33.434 -42.507)" fill="url(#linear-gradient-4)"/>
        <path id="Path_10531" data-name="Path 10531" d="M-5518.023-3776.4l-3.913,2.065,1.159,7.293a9.907,9.907,0,0,0,4.248-.963,24.385,24.385,0,0,0,5.546-3.543Z" transform="translate(-23.77 -41.826)" fill="url(#linear-gradient-5)"/>
        <path id="Path_10528" data-name="Path 10528" d="M-5496.858-3803.848a39.1,39.1,0,0,1-5.927,10.925,41.093,41.093,0,0,1-9.646,8.136l11.506,13.714,6.625-25.337Z" transform="translate(-29.475 -33.325)" fill="#fff"/>
        <path id="Path_10530" data-name="Path 10530" d="M-5509.875-3803.848a39.1,39.1,0,0,0,5.928,10.925,41.083,41.083,0,0,0,9.646,8.136l-11.506,13.714-6.625-25.337Z" transform="translate(-52.944 -33.325)" fill="#fff"/>
      </g>
      <g id="Group_5950" data-name="Group 5950" transform="translate(70.461 0)">
        <path id="Path_10499" data-name="Path 10499" d="M-4946.626-4055.533l9.274,35.174,3.135,11.842,9.927,18.983H-5034.7v-4.876l8.186-17.764,9.23-42.145,12.713-12.887s20.376-1.916,22.292-1.916h21.072l12.017,6.1Z" transform="translate(5049.556 4095.648)" fill="url(#linear-gradient-6)"/>
        <path id="Path_8948" data-name="Path 8948" d="M120.38,298.638V278.3s8.68-32.62,38.842-36.36,62.8,1.241,62.8,1.241,31.825,4.129,37.593,43.377v15.077S179.463,324.806,120.38,298.638Z" transform="translate(-120.38 -151.886)" fill="#fff"/>
        <path id="Path_8949" data-name="Path 8949" d="M172.29,184.27c-1.289-.8-6.555,2.713-7.972,3.262a4.1,4.1,0,0,0-1.536,1.058c-2.236,2.387-2.108,6.1-1.4,9.285a35.371,35.371,0,0,0,1.591,5.243,7.956,7.956,0,0,0,1.185,2.2c1.591,1.886,4.376,2.14,6.826,1.854,1.448-.167,3.063-.6,3.723-1.909a4.327,4.327,0,0,0,.382-1.591C175.751,197.231,177.923,187.676,172.29,184.27Z" transform="translate(-128.667 -153.089)" fill="#f7af87"/>
        <path id="Path_8950" data-name="Path 8950" d="M238.619,187.59c1.112-1.257,6.179,1.76,7.429,2.635a5.85,5.85,0,0,1,1.72,4.233,18.508,18.508,0,0,1-.559,5.187,22.142,22.142,0,0,1-1.985,5.752,5.2,5.2,0,0,1-3.529,2.992c-1.391.176-2.719-.972-3.406-2.944a14.942,14.942,0,0,1-.451-4.082,12.6,12.6,0,0,1,.221-3.182C238.6,195.994,237.477,188.879,238.619,187.59Z" transform="translate(-144.382 -153.73)" fill="#f7af87"/>
        <path id="Path_8951" data-name="Path 8951" d="M184.252,246.093c-.914,3.171-1.68,4.025-1.768,5.427.052.824-.337-.754,0,0,1.008,6.7,3.387,14.953,17.711,15.469,16.8-.618,17.93-14.471,17.973-14.835a2.9,2.9,0,0,0-.39-1.345c-2.053-4.424-1.679-10.128-1.138-15.324a2.594,2.594,0,0,0-.08-1.289,1.321,1.321,0,0,0-.8-.66c-3.556-1.5-7.375-.565-11.139-.708-5.172-.191-10.184-2.57-15.363-2.578-2.307,0-2.482.859-2.809,3.747a96.356,96.356,0,0,1-2.2,12.1Z" transform="translate(-133.045 -162.51)" fill="#f7af87"/>
        <path id="Path_8952" data-name="Path 8952" d="M184.59,228s2.984,11.7,10.216,19.357,24.354,6.2,22.333-.644c-1.7-5.736,1.488-18.713,1.488-18.713Z" transform="translate(-133.503 -162.05)" fill="url(#linear-gradient-7)"/>
        <path id="Path_8954" data-name="Path 8954" d="M225.824,194.274c-2.133,21.31-12.093,38.89-27.017,38.89s-27.017-17.4-27.017-38.89,9.6-45.714,24.527-45.714S230.187,150.717,225.824,194.274Z" transform="translate(-129.296 -145.814)" fill="#f7af87"/>
        <path id="Union_44" data-name="Union 44" d="M99.77,87.506C95.238,80.363,92.421,59.7,92.421,59.7a40.462,40.462,0,0,0-3.1-10.663,99.944,99.944,0,0,0-6.556-11.912c-.353-.561-.674-1.049-.674-1.049S78.059,27.522,68.377,30.1c-8.212,2.185-11.161,1.795-11.868,1.626-.729.169-3.773.559-12.247-1.626a12.125,12.125,0,0,0-14.153,5.978A60.844,60.844,0,0,0,24.3,46.219,119.464,119.464,0,0,0,19.452,59.7S17.4,79.592,12.727,86.736,0,103.749,0,103.749,4.8,91.472,6.966,83.788,10.4,59.7,10.4,59.7s1.055-16.2,9.047-29.6S32.746,6.216,39.989,2.635C46.411-.54,54.71-.029,56.508.128c1.743-.157,9.787-.668,16.01,2.507C79.537,6.216,84.675,16.7,92.421,30.1s8.768,29.6,8.768,29.6S103.3,77.946,105.4,85.63s8.038,19.426,8.038,19.426S104.3,94.648,99.77,87.506Z" transform="translate(12.653 0)" fill="#fff"/>
        <rect id="Rectangle_2950" data-name="Rectangle 2950" width="64" height="6" rx="3" transform="translate(37.608 10.992)"/>
        <rect id="Rectangle_2951" data-name="Rectangle 2951" width="68" height="7" rx="3.5" transform="translate(34.608 18.992)"/>
        <path id="Path_10500" data-name="Path 10500" d="M-4968.841-3971.488s.767,41.211,0,54.948c-.044.068-6.466,0-6.466,0v-55.1a17.852,17.852,0,0,0,3.2.335C-4970.5-3971.3-4968.841-3971.488-4968.841-3971.488Z" transform="translate(5039.008 4075.724)" fill="#dfdfdf"/>
        <path id="Union_46" data-name="Union 46" d="M27.188,52.551c-.21,0-7.013-.028-12.057-3.622C10.006,45.279,6.3,37.912,6.3,37.912a59.674,59.674,0,0,1-3.533-8.375A108.145,108.145,0,0,1,0,19.023L.343,2.158,2.561-.732V1.742S.87,17.683,4.219,26.257c3.273,8.381,3.472,9.231,7.11,14.122a29.775,29.775,0,0,1,3.278-8.325c2.338-3.648,11.175-4.525,12.315-4.624v-.01l.061,0,.061,0v.01c1.14.1,9.978.976,12.316,4.624a29.546,29.546,0,0,1,3.247,8.2c3.549-4.784,3.774-5.69,7.019-14,3.35-8.574,1.659-24.516,1.659-24.516V0l2.561,3.79V19.023A108.006,108.006,0,0,1,51.08,29.536a59.674,59.674,0,0,1-3.533,8.375s-3.71,7.367-8.834,11.018a22.056,22.056,0,0,1-11.52,3.584v.038ZM30.4,42.735l-.937,2.813,3.75,2.143a20.981,20.981,0,0,0,8.337-6.072,13.265,13.265,0,0,0-.606-3.466,13.843,13.843,0,0,0-2.622-4.329l-11.34-1.759L15.644,33.824a13.824,13.824,0,0,0-2.622,4.329,13.426,13.426,0,0,0-.614,3.6,20.951,20.951,0,0,0,8.222,5.937l3.75-2.143-.937-2.813,3.606.035v-.035Z" transform="translate(42.153 34.745)"/>
      </g>
    </g>
    <g id="Group_5957" data-name="Group 5957" transform="translate(239.246 1258.246)">
      <g id="Ellipse_371" data-name="Ellipse 371" transform="translate(824.754 1515.754)" fill="#161c8f" stroke="#fff" stroke-width="8">
        <circle cx="32.5" cy="32.5" r="32.5" stroke="none"/>
        <circle cx="32.5" cy="32.5" r="28.5" fill="none"/>
      </g>
      <path id="Union_4" data-name="Union 4" d="M7.647,17.647V12.353H2.353a2.353,2.353,0,1,1,0-4.706H7.647V2.353a2.353,2.353,0,1,1,4.705,0V7.647h5.294a2.353,2.353,0,1,1,0,4.706H12.352v5.294a2.353,2.353,0,1,1-4.705,0Z" transform="translate(847.754 1537.754)" fill="#fff"/>
    </g>
  </g>
</svg>
