<svg xmlns="http://www.w3.org/2000/svg" xmlns:xlink="http://www.w3.org/1999/xlink" width="303.898" height="193.925" viewBox="0 0 303.898 193.925">
  <defs>
    <linearGradient id="linear-gradient" x1="0.497" y1="1.059" x2="0.505" y2="-1.414" gradientUnits="objectBoundingBox">
      <stop offset="0" stop-color="#010101" stop-opacity="0"/>
      <stop offset="0.95" stop-color="#010101"/>
    </linearGradient>
    <linearGradient id="linear-gradient-2" x1="0.518" y1="-2.566" x2="0.439" y2="11.612" xlink:href="#linear-gradient"/>
    <linearGradient id="linear-gradient-3" x1="0.532" y1="-1.566" x2="0.476" y2="2.273" xlink:href="#linear-gradient"/>
    <linearGradient id="linear-gradient-4" x1="0.506" y1="-7.599" x2="0.473" y2="42.572" gradientUnits="objectBoundingBox">
      <stop offset="0" stop-color="#fff"/>
      <stop offset="1" stop-color="#555"/>
    </linearGradient>
    <linearGradient id="linear-gradient-7" x1="0.345" y1="-2.697" x2="0.975" y2="10.586" xlink:href="#linear-gradient"/>
    <linearGradient id="linear-gradient-8" x1="0.435" y1="-3.771" x2="0.74" y2="16.726" xlink:href="#linear-gradient"/>
    <linearGradient id="linear-gradient-9" x1="0.5" y1="1.051" x2="0.502" y2="-1.05" gradientUnits="objectBoundingBox">
      <stop offset="0" stop-color="#fff" stop-opacity="0"/>
      <stop offset="0.95" stop-color="#fff"/>
    </linearGradient>
    <linearGradient id="linear-gradient-10" x1="1" y1="0.5" x2="0" y2="0.5" xlink:href="#linear-gradient"/>
    <linearGradient id="linear-gradient-11" x1="1" y1="0.5" x2="0" y2="0.5" xlink:href="#linear-gradient"/>
    <linearGradient id="linear-gradient-12" x1="1" y1="0.5" x2="0" y2="0.5" xlink:href="#linear-gradient-9"/>
    <linearGradient id="linear-gradient-13" x1="1.033" y1="1.016" x2="0.184" y2="0.194" xlink:href="#linear-gradient"/>
    <linearGradient id="linear-gradient-14" x1="1" y1="0.5" x2="0" y2="0.5" xlink:href="#linear-gradient"/>
    <linearGradient id="linear-gradient-15" x1="0.635" y1="-2.909" x2="0.403" y2="2.97" xlink:href="#linear-gradient"/>
    <linearGradient id="linear-gradient-16" x1="0.643" y1="-3.131" x2="0.397" y2="3.113" xlink:href="#linear-gradient"/>
    <linearGradient id="linear-gradient-17" x1="1" y1="0.5" x2="0" y2="0.5" xlink:href="#linear-gradient-9"/>
    <linearGradient id="linear-gradient-18" x1="0.43" y1="-0.563" x2="0.55" y2="1.8" xlink:href="#linear-gradient-9"/>
  </defs>
  <g id="Add_vehicle" transform="translate(-808 -1510)">
    <g id="car" transform="translate(808 1515.568)">
      <path id="Path_8050" data-name="Path 8050" d="M5.117,173.145a3.746,3.746,0,0,0,.067.594c.157,1.034.333,2.064.508,3.093,3.233,17.454,11.582,34.576,26.42,44.135,17.589,11.353,40.3,9.923,60.919,6.407s41.815-8.772,62.115-3.754c14.028,3.458,26.591,11.636,40.7,14.64,30.961,6.587,61.207-12.562,85.527-32.8,7.477-6.25,14.918-12.8,20.089-21.047a41.724,41.724,0,0,0,3.777-7.585,34.941,34.941,0,0,0,1.191-3.687,30.479,30.479,0,0,0,.175-16.6c-2.167-7.428-7.194-13.124-12.931-18.47-5.571-5.238-11.811-10.13-16.6-16a60.017,60.017,0,0,1-5.845-8.664c-5.207-9.208-8.687-19.518-14.172-28.618q-1.8-2.914-3.669-5.5c-28.344-38.843-76.521-25.354-118.326-27.377-14.361-.683-29.963-1.034-41.6,7.405-9.5,6.884-14.608,18.466-23.744,25.84A48.559,48.559,0,0,1,58.3,91.782c-8.093,3.53-16.964,5.845-24.666,10.2a51.915,51.915,0,0,0-18.884,18.677A68.08,68.08,0,0,0,7.289,138.08a86.16,86.16,0,0,0-2.172,35.066Z" transform="translate(-4.232 -51.224)" fill="#e5d5f4" opacity="0.24"/>
      <path id="Path_8051" data-name="Path 8051" d="M7,322.39a3.746,3.746,0,0,0,.067.594C9.846,341.472,18.308,360.1,34,370.193c17.589,11.371,40.3,9.941,60.919,6.425s41.815-8.772,62.115-3.754c14.028,3.458,26.591,11.636,40.7,14.64,30.961,6.587,61.207-12.562,85.527-32.8,7.477-6.25,14.918-12.8,20.089-21.047a41.469,41.469,0,0,0,4.968-11.272Z" transform="translate(-5.665 -200.469)" fill="#161c8f" opacity="0.24"/>
      <path id="Path_8052" data-name="Path 8052" d="M7,322.39a3.746,3.746,0,0,0,.067.594C9.846,341.472,18.308,360.1,34,370.193c17.589,11.371,40.3,9.941,60.919,6.425s41.815-8.772,62.115-3.754c14.028,3.458,26.591,11.636,40.7,14.64,30.961,6.587,61.207-12.562,85.527-32.8,7.477-6.25,14.918-12.8,20.089-21.047a41.469,41.469,0,0,0,4.968-11.272Z" transform="translate(-5.665 -200.469)" fill="url(#linear-gradient)"/>
      <path id="Path_8053" data-name="Path 8053" d="M9.65,330.59c3.233,17.454,11.582,34.576,26.42,44.135,17.589,11.353,40.3,9.923,60.919,6.407s41.815-8.772,62.115-3.754c14.028,3.458,26.59,11.636,40.7,14.64,30.961,6.587,61.207-12.562,85.527-32.8,7.477-6.25,14.918-12.8,20.089-21.047a41.723,41.723,0,0,0,3.777-7.585Z" transform="translate(-7.74 -204.982)" fill="#bdbebe"/>
      <path id="Path_8054" data-name="Path 8054" d="M292.1,342.178c-11.978-.094-24.086.45-35.808-2-.247-3.336,1.951-6.483,4.788-8.251s6.227-2.4,9.541-2.824c10.508-1.349,21.132-1.084,31.743-.787q36.756,1.016,73.508,2.248,18.376.611,36.752,1.281c7.644.274,12.108,1.96,17.086,5.481a3.5,3.5,0,0,1-1.1,6.259c-20.323,5.306-43.959,3.93-64.3,2.846C340.249,345.159,316.243,342.362,292.1,342.178Z" transform="translate(-240.649 -203.598)" fill="url(#linear-gradient-2)"/>
      <path id="Path_8055" data-name="Path 8055" d="M4.322,271.236c.036,1.016.1,2.028.211,3.044.121,1.763.333,3.512.576,5.238H306.426a36.193,36.193,0,0,0,1.03-5.238,25.625,25.625,0,0,0,.207-3.044,27.264,27.264,0,0,0-.562-6.295,20.122,20.122,0,0,0-.486-2.01c-.108-.351-.211-.7-.333-1.034a29.819,29.819,0,0,0-2.99-6.295,35.06,35.06,0,0,0-2.1-3.039,65.38,65.38,0,0,0-7.513-8.093H7.276a74.153,74.153,0,0,0-1.8,8.093c-.193,1.012-.351,2.023-.49,3.039-.261,2.077-.45,4.19-.594,6.295-.072,1.016-.108,2.028-.126,3.044C4.2,267.014,4.218,269.127,4.322,271.236Z" transform="translate(-3.774 -157.583)" fill="#161c8f" opacity="0.24"/>
      <path id="Path_8056" data-name="Path 8056" d="M432.823,317.887c-2.154.364-4.231,1.079-6.376,1.475a43.042,43.042,0,0,1-8.237.45,587.053,587.053,0,0,1-60.4-4.047,11.591,11.591,0,0,1-3.907-.935,23.508,23.508,0,0,1-3.242-2.4c-3.35-2.473-7.783-2.967-11.937-2.644s-8.224,1.371-12.378,1.637a2.931,2.931,0,0,1-1.718-.256c-.958-.58-.989-1.933-.9-3.044.369-4.244,1.111-8.853,4.267-11.69,3.354-3.035,8.34-3.147,12.859-3.084a54.739,54.739,0,0,1,11.056.9c3.835.863,7.428,2.563,11.2,3.664,7.572,2.2,15.615,1.929,23.5,1.637l43.672-1.623c6.038-.22,12.194-.45,18.012,1.187s14.806,7.086,14.266,14.271c-.45,6.173-1.511,8.574-5.719,8.242C451.734,321.2,437.931,317.015,432.823,317.887Z" transform="translate(-302.326 -184.478)" fill="#161c8f"/>
      <path id="Path_8057" data-name="Path 8057" d="M432.823,317.887c-2.154.364-4.231,1.079-6.376,1.475a43.042,43.042,0,0,1-8.237.45,587.053,587.053,0,0,1-60.4-4.047,11.591,11.591,0,0,1-3.907-.935,23.508,23.508,0,0,1-3.242-2.4c-3.35-2.473-7.783-2.967-11.937-2.644s-8.224,1.371-12.378,1.637a2.931,2.931,0,0,1-1.718-.256c-.958-.58-.989-1.933-.9-3.044.369-4.244,1.111-8.853,4.267-11.69,3.354-3.035,8.34-3.147,12.859-3.084a54.739,54.739,0,0,1,11.056.9c3.835.863,7.428,2.563,11.2,3.664,7.572,2.2,15.615,1.929,23.5,1.637l43.672-1.623c6.038-.22,12.194-.45,18.012,1.187s14.806,7.086,14.266,14.271c-.45,6.173-1.511,8.574-5.719,8.242C451.734,321.2,437.931,317.015,432.823,317.887Z" transform="translate(-302.326 -184.478)" fill="url(#linear-gradient-3)"/>
      <path id="Path_8058" data-name="Path 8058" d="M4.25,304c.036,1.016.1,2.028.211,3.044H307.4A25.63,25.63,0,0,0,307.59,304Z" transform="translate(-3.702 -190.347)" fill="url(#linear-gradient-4)"/>
      <path id="Path_8059" data-name="Path 8059" d="M5.5,286.274H308.35a20.139,20.139,0,0,0-.486-2.01c-.108-.351-.211-.7-.333-1.034H5.626C5.531,284.224,5.531,285.235,5.5,286.274Z" transform="translate(-5.024 -178.916)" fill="url(#linear-gradient-4)"/>
      <path id="Path_8060" data-name="Path 8060" d="M14,265.439H312.309a35.069,35.069,0,0,0-2.1-3.039H14.49C14.3,263.412,14.139,264.423,14,265.439Z" transform="translate(-12.805 -167.451)" fill="url(#linear-gradient-4)"/>
      <path id="Path_8061" data-name="Path 8061" d="M259.952,336.161l.836.054c11.3.818,27.876-2.464,30.156-3.619s4.092-6.151,3.147-12.805c-.526,3.093-1.749,5.225-3.147,5.921-2.289,1.156-18.853,4.438-30.156,3.619h-.067c.049.5.067,1.012.067,1.538a17.117,17.117,0,0,1-.836,5.292Z" transform="translate(-105.427 -199.038)" fill="#161c8f"/>
      <path id="Path_8062" data-name="Path 8062" d="M409.43,335.87h0l19.415,1.974s27.566.98,51.625,1.924a17.3,17.3,0,0,1-.45-3.826,16.142,16.142,0,0,1,.279-3.057c-24.023-.944-51.468-1.924-51.468-1.924L410,329.04a16.79,16.79,0,0,1,.139,2.1A15.561,15.561,0,0,1,409.43,335.87Z" transform="translate(-358.758 -204.129)" fill="#161c8f"/>
      <path id="Path_8063" data-name="Path 8063" d="M259.952,336.161l.836.054c11.3.818,27.876-2.464,30.156-3.619s4.092-6.151,3.147-12.805c-.526,3.093-1.749,5.225-3.147,5.921-2.289,1.156-18.853,4.438-30.156,3.619h-.067c.049.5.067,1.012.067,1.538a17.117,17.117,0,0,1-.836,5.292Z" transform="translate(-105.427 -199.038)" fill="url(#linear-gradient-7)"/>
      <path id="Path_8064" data-name="Path 8064" d="M409.43,335.87h0l19.415,1.974s27.566.98,51.625,1.924a17.3,17.3,0,0,1-.45-3.826,16.142,16.142,0,0,1,.279-3.057c-24.023-.944-51.468-1.924-51.468-1.924L410,329.04a16.79,16.79,0,0,1,.139,2.1A15.561,15.561,0,0,1,409.43,335.87Z" transform="translate(-358.758 -204.129)" fill="url(#linear-gradient-8)"/>
      <path id="Path_8065" data-name="Path 8065" d="M263.9,274.719v-.261a14.716,14.716,0,0,1,29.131-3.426,10.856,10.856,0,0,1,.247,1.349l18.835,1.92s27.427.98,51.468,1.924a2.365,2.365,0,0,1,.072-.387,17.05,17.05,0,0,1,33.389,0h0a16.889,16.889,0,0,1,.279,1.888h.067c11.3.818,27.876-2.464,30.156-3.619,1.4-.7,2.621-2.828,3.147-5.921v-.139c-1-6.744-4.753-9.838-10.013-13.938-4.681-3.651-20.233-7.985-26.19-9.559l-1.677-.45c-2.374-.629-15.566-7.005-24.981-11.636A52.606,52.606,0,0,0,347,227.118c-3.147-.139-6.78-.3-10.571-.45-6.974-.279-14.536-.54-20.862-.629a122.612,122.612,0,0,0-33.317,4.685c-.854.247-6.029,8.349-8.246,11.056s-9.469,9.1-9.469,9.1-2.248.243-3.741,9.258c0,.157-.054.3-.067.45A19.828,19.828,0,0,0,263.9,274.719Z" transform="translate(-242.019 -147.434)" fill="#161c8f"/>
      <path id="Path_8066" data-name="Path 8066" d="M419.866,267.344a33.5,33.5,0,0,1-12.927,2.2,23.38,23.38,0,0,1-6.335-.661,28.847,28.847,0,0,1-5.733-2.54q-7.729-4.114-15.5-8.143a30.944,30.944,0,0,0-7-2.927,31.5,31.5,0,0,0-7.216-.571l-19.473-.031c-18.434-.031-36.909-5.944-55.3-6.9a234.583,234.583,0,0,0-26.73.135,36.963,36.963,0,0,0,9.177-5.8,4.691,4.691,0,0,0,1.767-2.455,18.027,18.027,0,0,0-.135-2.77,4.688,4.688,0,0,1,2.981-3.844,13.515,13.515,0,0,1,5.036-.827q22.184-.841,44.368-1.628a111.971,111.971,0,0,1,17.67.333c19.455,2.428,36.136,14.658,54.6,21.262,4.334,1.556,8.808,2.81,12.882,4.946S418.184,263.059,419.866,267.344Z" transform="translate(-232.609 -149.833)" fill="url(#linear-gradient-9)"/>
      <path id="Path_8067" data-name="Path 8067" d="M341.11,227.5c.243.387,1.066.715,2.639.98,10.2,1.713,28.286,14.743,35.52,17.454s19.675.243,19.675.243a7.593,7.593,0,0,0,.207-.823l-1.677-.45c-2.374-.629-15.566-7.005-24.981-11.636a52.606,52.606,0,0,0-20.826-5.346C348.515,227.8,344.9,227.639,341.11,227.5Z" transform="translate(-246.722 -148.243)" fill="url(#linear-gradient-10)"/>
      <path id="Path_8068" data-name="Path 8068" d="M481.77,250.772a1.308,1.308,0,0,1-.9,2.325c-13.664-.9-57.025-3.822-61.148-4.649-4.919-.985-15.737-1.965-17.535-5.4a10.944,10.944,0,0,1-.7-7.3s32.579-5.764,48.914-2.1C463.228,236.51,475.736,245.912,481.77,250.772Z" transform="translate(-356.826 -150.959)" fill="url(#linear-gradient-11)"/>
      <path id="Path_8069" data-name="Path 8069" d="M324.5,290.037s-11.969-9.348-14.59-10-18.7-.162-18.7-.162,4.757,3.6,7.545,4.591S320.728,290.694,324.5,290.037Z" transform="translate(-149.63 -176.969)" fill="url(#linear-gradient-12)"/>
      <ellipse id="Ellipse_355" data-name="Ellipse 355" cx="13.318" cy="13.318" rx="13.318" ry="13.318" transform="translate(125.115 117.591)" fill="#606161"/>
      <ellipse id="Ellipse_356" data-name="Ellipse 356" cx="13.318" cy="13.318" rx="13.318" ry="13.318" transform="translate(125.115 117.591)" fill="url(#linear-gradient-13)"/>
      <ellipse id="Ellipse_357" data-name="Ellipse 357" cx="9.536" cy="9.536" rx="9.536" ry="9.536" transform="translate(128.739 121.544)" fill="#161c8f"/>
      <ellipse id="Ellipse_358" data-name="Ellipse 358" cx="12.544" cy="12.544" rx="12.544" ry="12.544" transform="translate(24.009 114.547)" fill="#606161"/>
      <ellipse id="Ellipse_359" data-name="Ellipse 359" cx="12.544" cy="12.544" rx="12.544" ry="12.544" transform="translate(24.009 114.547)" fill="url(#linear-gradient-14)"/>
      <ellipse id="Ellipse_360" data-name="Ellipse 360" cx="8.983" cy="8.983" rx="8.983" ry="8.983" transform="translate(27.426 118.27)" fill="#161c8f"/>
      <ellipse id="Ellipse_361" data-name="Ellipse 361" cx="7.918" cy="7.918" rx="7.918" ry="7.918" transform="translate(130.322 123.373)" fill="url(#linear-gradient-15)"/>
      <ellipse id="Ellipse_362" data-name="Ellipse 362" cx="7.18" cy="7.18" rx="7.18" ry="7.18" transform="translate(29.189 120.028)" fill="url(#linear-gradient-16)"/>
      <path id="Path_8070" data-name="Path 8070" d="M85.244,129.718a4.547,4.547,0,0,0,1.938,3.44c7.644,6.344,19.334,1.434,28.933,3.966,6.848,1.8,12.248,7.392,19.113,9.087,2.936.733,6.011.715,8.992,1.2,3.408.558,6.69,1.8,10.116,2.289a24.864,24.864,0,0,0,13.682-1.938c-5.207-9.208-8.687-19.518-14.172-28.618q-1.8-2.914-3.669-5.5c-8.174-.175-17.086,4.874-24.163,7.356-11.515,4.047-24.374,1.763-36.181,4.856C87.757,126.391,85.365,127.569,85.244,129.718Z" transform="translate(99.455 -85.577)" fill="url(#linear-gradient-17)"/>
      <path id="Path_8071" data-name="Path 8071" d="M367.594,170.309c21.474.98,43.1-2.41,64.678-2.325,19.99.09,40.466,3.093,59.633-2.635,2.671-.8,5.868-2.761,5.171-5.472-9.078-2.163-16.721-8.21-25.457-11.564a45.668,45.668,0,0,0-24.985-2.185c-5,1-10.031,2.815-15.062,2.01-4.159-.665-7.792-3.075-11.618-4.8a26.216,26.216,0,0,0-8.79-1.906c-8.093,3.529-16.964,5.845-24.666,10.2A52.278,52.278,0,0,0,367.594,170.309Z" transform="translate(-356.651 -100.872)" fill="url(#linear-gradient-18)"/>
    </g>
    <g id="Group_5948" data-name="Group 5948" transform="translate(197.246 -5.754)">
      <g id="Ellipse_371" data-name="Ellipse 371" transform="translate(824.754 1515.754)" fill="#161c8f" stroke="#fff" stroke-width="8">
        <circle cx="32.5" cy="32.5" r="32.5" stroke="none"/>
        <circle cx="32.5" cy="32.5" r="28.5" fill="none"/>
      </g>
      <path id="Union_4" data-name="Union 4" d="M7.647,17.647V12.353H2.353a2.353,2.353,0,1,1,0-4.706H7.647V2.353a2.353,2.353,0,1,1,4.705,0V7.647h5.294a2.353,2.353,0,1,1,0,4.706H12.352v5.294a2.353,2.353,0,1,1-4.705,0Z" transform="translate(847.754 1537.754)" fill="#fff"/>
    </g>
  </g>
</svg>
