<svg id="audio" xmlns="http://www.w3.org/2000/svg" width="17.353" height="29.366" viewBox="0 0 17.353 29.366">
  <path id="Path_7058" data-name="Path 7058" d="M597.443,1107.027h-3.535v1.576a4.962,4.962,0,0,1-4.82,5.043,4.764,4.764,0,0,1-4.82-5.043v-1.576h-3.857v1.891a8.221,8.221,0,0,0,6.749,8.195v5.043h3.535v-5.043a8.5,8.5,0,0,0,7.07-8.195v-1.891Z" transform="translate(-580.411 -1092.789)" fill="#171c8e" fill-rule="evenodd"/>
  <path id="Path_7059" data-name="Path 7059" d="M592.754,1081.572v8.107a3.563,3.563,0,0,0,3.5,3.567,3.307,3.307,0,0,0,3.178-3.567v-12a3.307,3.307,0,0,0-3.178-3.567,3.563,3.563,0,0,0-3.5,3.567v3.891Z" transform="translate(-587.415 -1074.114)" fill="#171c8e" fill-rule="evenodd"/>
</svg>
