<svg xmlns="http://www.w3.org/2000/svg" xmlns:xlink="http://www.w3.org/1999/xlink" width="48" height="34" viewBox="0 0 48 34">
  <defs>
    <linearGradient id="linear-gradient" x1="1.043" y1="0.215" x2="-0.033" y2="0.756" gradientUnits="objectBoundingBox">
      <stop offset="0" stop-color="#6b6b6b"/>
      <stop offset="0.492" stop-color="#9e9fa0"/>
      <stop offset="1" stop-color="#666667"/>
    </linearGradient>
  </defs>
  <path id="Car_Make" d="M9673.03,11085.021c-4.533-3.209-7.03-7.479-7.03-12.021s2.5-8.81,7.03-12.021a31.414,31.414,0,0,1,33.941,0c4.531,3.212,7.028,7.481,7.028,12.021s-2.5,8.812-7.028,12.021a31.409,31.409,0,0,1-33.941,0Zm2.313-21.787c-3.913,2.61-6.07,6.078-6.07,9.767s2.157,7.158,6.07,9.769a28.586,28.586,0,0,0,29.315,0c3.913-2.61,6.07-6.078,6.07-9.769s-2.157-7.156-6.07-9.767a28.568,28.568,0,0,0-29.315,0Zm19.627,17.885v-2.786h-10.665v2.786H9681.7v-2.786h-2.607v-3.715a3.78,3.78,0,0,1,2.842-3.716l1.186-5.339h13.036l1.186,5.339a3.779,3.779,0,0,1,2.845,3.716v3.715h-2.607v2.786Zm0-6.5a1.108,1.108,0,0,0,1.186,1.16,1.321,1.321,0,0,0,1.423-1.16,1.517,1.517,0,0,0-1.423-1.395A1.31,1.31,0,0,0,9694.971,11074.618Zm-13.271,0a1.318,1.318,0,0,0,1.42,1.16,1.108,1.108,0,0,0,1.186-1.16,1.31,1.31,0,0,0-1.186-1.395A1.514,1.514,0,0,0,9681.7,11074.618Zm1.659-3.947h12.561l-.713-3.946h-11.138Z" transform="translate(-9666 -11056.001)" fill="url(#linear-gradient)"/>
</svg>
