<svg id="Group_365" data-name="Group 365" xmlns="http://www.w3.org/2000/svg" width="36.636" height="45.387" viewBox="0 0 36.636 45.387">
  <circle id="Ellipse_17" data-name="Ellipse 17" cx="18.318" cy="18.318" r="18.318" transform="translate(0 8.75)" fill="#281987" opacity="0.1"/>
  <path id="Path_67" data-name="Path 67" d="M123.9,1440.6s6.57-14.832-4.257-22.467-17.4-8.136-22.341-12.767c0,0-5.512,5.917-.814,9.2,5.195,3.63,22.546,5.575,26.294,15.081A22.657,22.657,0,0,1,123.9,1440.6Z" transform="translate(-89.238 -1405.368)" fill="#281987"/>
  <path id="Path_68" data-name="Path 68" d="M122.617,1447.895s3.518-12.943-6.284-17.831-15.235-4.478-19.854-7.645c0,0-3.766,5.524.484,7.621,4.7,2.318,19.123,1.742,23.374,9.044A18.728,18.728,0,0,1,122.617,1447.895Z" transform="translate(-89.346 -1410.674)" fill="#281987"/>
  <path id="Path_69" data-name="Path 69" d="M121.294,1454.226s1.24-11.449-7.73-14.274-13.521-1.745-17.865-3.809c0,0-2.45,5.191,1.436,6.4,4.3,1.333,16.45-1.1,21.038,4.52A16.083,16.083,0,0,1,121.294,1454.226Z" transform="translate(-89.345 -1414.946)" fill="#281987"/>
</svg>
