<svg xmlns="http://www.w3.org/2000/svg" width="61.596" height="37.472" viewBox="0 0 61.596 37.472">
  <g id="british" transform="translate(-1159.271 -416.598)">
    <path id="Path_6210" data-name="Path 6210" d="M1286.271,416.6v37.05h3.46v-14.6h27.429v-7.6h-27.429V416.6Z" transform="translate(-96.293 0)" fill="#c71229"/>
    <path id="Path_6217" data-name="Path 6217" d="M1317.16,416.6v37.05h-3.46v-14.6h-27.429v-7.6H1313.7V416.6Z" transform="translate(-127 0)" fill="#c71229"/>
    <g id="Group_3703" data-name="Group 3703" transform="translate(1196.139 441.833)">
      <path id="Path_6211" data-name="Path 6211" d="M1357.918,530.622l-17.892-8.608h5.4l12.491,5.908Z" transform="translate(-1333.19 -521.76)" fill="#c71229"/>
      <path id="Path_6212" data-name="Path 6212" d="M1387.031,525.523v-4.557h-8.608Z" transform="translate(-1362.302 -520.966)" fill="#092363"/>
      <path id="Path_6213" data-name="Path 6213" d="M1333.358,536.909l-21.606-11.056v11.056Z" transform="translate(-1311.752 -524.671)" fill="#092363"/>
    </g>
    <g id="Group_3704" data-name="Group 3704" transform="translate(1159.388 416.678)">
      <path id="Path_6211-2" data-name="Path 6211" d="M1340.026,522.013l17.892,8.608h-5.4l-12.491-5.908Z" transform="translate(-1340.026 -518.637)" fill="#c71229"/>
      <path id="Path_6212-2" data-name="Path 6212" d="M1378.422,520.966v4.557h8.608Z" transform="translate(-1378.422 -513.286)" fill="#092363"/>
      <path id="Path_6213-2" data-name="Path 6213" d="M1311.752,525.853l21.605,11.056V525.853Z" transform="translate(-1308.63 -525.853)" fill="#092363"/>
    </g>
    <g id="Group_3702" data-name="Group 3702" transform="translate(1196.139 416.678)">
      <path id="Path_6214" data-name="Path 6214" d="M1340.213,522.013l-23.538,11.629h5.4l18.136-8.928Z" transform="translate(-1315.485 -522.013)" fill="#c71229"/>
      <path id="Path_6215" data-name="Path 6215" d="M1387.031,520.966v4.557h-8.608Z" transform="translate(-1362.302 -513.277)" fill="#092363"/>
      <path id="Path_6216" data-name="Path 6216" d="M1333.358,525.853l-21.606,11.056V525.853Z" transform="translate(-1311.752 -525.844)" fill="#092363"/>
    </g>
    <g id="Group_3705" data-name="Group 3705" transform="translate(1159.388 441.824)">
      <path id="Path_6214-2" data-name="Path 6214" d="M1316.675,533.642l23.538-11.629h-5.4l-18.136,8.928Z" transform="translate(-1316.675 -521.396)" fill="#c71229"/>
      <path id="Path_6215-2" data-name="Path 6215" d="M1378.422,525.523v-4.557h8.608Z" transform="translate(-1378.422 -520.966)" fill="#092363"/>
      <path id="Path_6216-2" data-name="Path 6216" d="M1311.752,536.909l21.605-11.056v11.056Z" transform="translate(-1308.63 -524.671)" fill="#092363"/>
    </g>
  </g>
</svg>
