<svg xmlns="http://www.w3.org/2000/svg" width="24.002" height="24" viewBox="0 0 24.002 24"><path d="M12,24A12,12,0,0,1,3.514,3.516a12,12,0,0,1,16.971,0,12,12,0,0,1,0,16.969A11.908,11.908,0,0,1,12,24ZM7.164,5a1.141,1.141,0,0,0-.8.326l-.613.617a2.678,2.678,0,0,0-.537.869,3.412,3.412,0,0,0-.168.926c-.307,2.33.775,4.5,3.736,7.486,3.371,3.373,6.2,3.736,7.262,3.736.057,0,.1,0,.141,0l.055,0h.029a2.288,2.288,0,0,0,.926-.221l.3-.156.016-.01a5.436,5.436,0,0,0,.557-.314l.619-.617A1.119,1.119,0,0,0,19,16.854a1.032,1.032,0,0,0-.291-.729l-2.187-2.187a1.076,1.076,0,0,0-.777-.328,1.122,1.122,0,0,0-.793.328l-1.1,1.094c-.084,0-.168-.092-.221-.168l-.02-.01a12.5,12.5,0,0,1-2.623-1.871A8.585,8.585,0,0,1,9.334,10.77l-.061-.1c-.055-.094-.105-.182-.156-.266a.37.37,0,0,1-.082-.115.3.3,0,0,0-.088-.1l.7-.7.389-.393a1.15,1.15,0,0,0,.357-.863.957.957,0,0,0-.357-.707l-2.1-2.191A1.079,1.079,0,0,0,7.164,5Z" transform="translate(0.002)" fill="#171c8e"/></svg>