<svg xmlns="http://www.w3.org/2000/svg" width="24.545" height="30" viewBox="0 0 24.545 30">
  <path id="Path_7551" data-name="Path 7551" d="M667.074,1608.135a.684.684,0,0,0,.656-.707l-1-16.346a.682.682,0,0,0-1.363.05l1,16.345a.683.683,0,0,0,.705.658m11.566,1.361a1.453,1.453,0,0,1-1.364,1.364H665a1.455,1.455,0,0,1-1.364-1.364l-1.364-21.818H680Zm-10.908-25.906h6.818v2.726h-6.818Zm15,2.726h-6.818v-2.726a1.365,1.365,0,0,0-1.364-1.365h-6.817a1.364,1.364,0,0,0-1.364,1.365v2.726h-6.818a.681.681,0,1,0,0,1.363h1.364l1.363,21.818a2.891,2.891,0,0,0,2.728,2.728h12.271A2.933,2.933,0,0,0,680,1609.5l1.363-21.818h1.364a.681.681,0,1,0,0-1.363m-7.524,21.817a.683.683,0,0,0,.707-.657l.989-16.344a.682.682,0,0,0-1.363-.05l-.989,16.346a.683.683,0,0,0,.656.705m-4.067,0a.682.682,0,0,0,.681-.683V1591.09a.681.681,0,1,0-1.363,0v16.362a.682.682,0,0,0,.681.683" transform="translate(-658.868 -1582.225)" fill="#171c8f" fill-rule="evenodd"/>
</svg>
