<svg xmlns="http://www.w3.org/2000/svg" width="13.091" height="16" viewBox="0 0 13.091 16">
  <path id="Delete_Btn" d="M663.245,1596.044a.365.365,0,0,0,.35-.377l-.535-8.718a.364.364,0,0,0-.727.027l.536,8.717a.364.364,0,0,0,.376.351m6.168.726a.775.775,0,0,1-.728.728h-6.544a.776.776,0,0,1-.727-.728l-.728-11.636h9.455Zm-5.818-13.817h3.636v1.454H663.6Zm8,1.454h-3.636v-1.454a.728.728,0,0,0-.728-.728H663.6a.728.728,0,0,0-.728.728v1.454h-3.636a.363.363,0,0,0,0,.727h.728l.727,11.636a1.542,1.542,0,0,0,1.455,1.455h6.544a1.564,1.564,0,0,0,1.455-1.455l.727-11.636h.728a.363.363,0,1,0,0-.727m-4.013,11.636a.365.365,0,0,0,.377-.351l.527-8.717a.364.364,0,0,0-.727-.027l-.527,8.718a.364.364,0,0,0,.35.376m-2.169,0a.364.364,0,0,0,.363-.364v-8.726a.363.363,0,1,0-.727,0v8.726a.364.364,0,0,0,.363.364" transform="translate(-658.868 -1582.225)" fill="#fff" fill-rule="evenodd"/>
</svg>
