<svg xmlns="http://www.w3.org/2000/svg" width="16" height="16" viewBox="0 0 16 16">
  <path id="Edit_Btn" d="M410.163,1501.279a.364.364,0,0,0-.363.364v8a1.455,1.455,0,0,1-1.454,1.454H396.707a1.454,1.454,0,0,1-1.454-1.454v-11.637a1.454,1.454,0,0,1,1.454-1.454h8a.364.364,0,1,0,0-.728h-8a2.182,2.182,0,0,0-2.181,2.181v11.637a2.181,2.181,0,0,0,2.181,2.181h11.637a2.181,2.181,0,0,0,2.181-2.181v-8a.364.364,0,0,0-.363-.364m-10.447,4h1.355v1.356l-1.636.281Zm7.236-7.424,1.543,1.544-6.7,6.7v-1.543h-1.542Zm.984-.983a1.09,1.09,0,1,1,1.543,1.542l-.47.47-1.543-1.542Zm-9.411,10.952,3.1-.532,8.363-8.363a1.818,1.818,0,1,0-2.571-2.572l-8.364,8.364Z" transform="translate(-394.526 -1495.825)" fill="#fff" fill-rule="evenodd"/>
</svg>
