<svg xmlns="http://www.w3.org/2000/svg" width="14.547" height="16" viewBox="0 0 14.547 16">
    <path id="svg_filter" d="M575.627,1585.861c-3.615,0-6.545-.651-6.545-1.454s2.931-1.455,6.545-1.455,6.545.651,6.545,1.455-2.931,1.454-6.545,1.454m3.707,2.777c-1.465,1.187-2.98,2.413-2.98,4.5a22.747,22.747,0,0,1-.16,4.005c-.081.325-.09.358-.567.358s-.486-.033-.568-.358a9.329,9.329,0,0,1-.147-1.823h.351a.364.364,0,0,0,0-.728H574.9c0-.23,0-.468,0-.727h.363a.364.364,0,0,0,0-.727H574.9c0-2.083-1.515-3.309-2.98-4.5a7.029,7.029,0,0,1-2.694-3.2,18.462,18.462,0,0,0,12.8,0,7.033,7.033,0,0,1-2.692,3.193m-3.707-6.414c-4.017,0-7.273.977-7.273,2.182,0,4.363,5.819,5.091,5.819,8.727v.362h0c0,.532,0,1,.006,1.425a.189.189,0,0,0-.006.029.209.209,0,0,0,.008.036c.032,2.716.231,3.237,1.447,3.237,1.454,0,1.454-.728,1.454-5.091,0-3.636,5.818-4.364,5.818-8.727,0-1.205-3.256-2.182-7.273-2.182" transform="translate(-568.354 -1582.225)" fill="#171C8F" fill-rule="evenodd" />
</svg>
