<svg xmlns="http://www.w3.org/2000/svg" width="24" height="24" viewBox="0 0 24 24"><path d="M21907,18809a12,12,0,1,1,12-12A11.923,11.923,0,0,1,21907,18809Zm-.512-9.334a1.768,1.768,0,0,0-1.275.533,1.728,1.728,0,0,0-.539,1.287,1.7,1.7,0,0,0,.539,1.27,1.8,1.8,0,0,0,2.553,0,1.705,1.705,0,0,0,.545-1.27,1.731,1.731,0,0,0-.545-1.287A1.769,1.769,0,0,0,21906.49,18799.668Zm.039-7.146a3.875,3.875,0,0,1,1.463.225.734.734,0,0,1,.533.678.97.97,0,0,1-.361.764,10.761,10.761,0,0,1-1.238.875,7.339,7.339,0,0,0-1.062.775,2.48,2.48,0,0,0-.621.887,3.541,3.541,0,0,0-.225,1.342,5.929,5.929,0,0,0,.055.793h3.02l-.016-.375a2.318,2.318,0,0,1,.143-.891,1.479,1.479,0,0,1,.424-.561,10.16,10.16,0,0,1,.945-.639,5.417,5.417,0,0,0,1.529-1.342,2.859,2.859,0,0,0,.523-1.771,2.713,2.713,0,0,0-1.4-2.477,6.569,6.569,0,0,0-3.482-.857,12.3,12.3,0,0,0-2.084.191,8.332,8.332,0,0,0-1.75.475v2.793a7.128,7.128,0,0,1,1.7-.637A7.736,7.736,0,0,1,21906.529,18792.521Z" transform="translate(-21895 -18785.002)" fill="#171c8e"/></svg>