<svg xmlns="http://www.w3.org/2000/svg" width="25.549" height="25" viewBox="0 0 25.549 25">
  <g id="Group_3623" data-name="Group 3623" transform="translate(0.5 0.5)">
    <path id="Union_1" data-name="Union 1" d="M20.482,23.339,14.9,17.762a16.869,16.869,0,0,0,3.229-3.23l5.578,5.578a2.3,2.3,0,0,1,0,3.229,2.3,2.3,0,0,1-3.229,0ZM0,8.942A9.083,9.083,0,0,1,9.129,0a9.083,9.083,0,0,1,9.129,8.942,8.9,8.9,0,0,1-9.129,8.943A8.9,8.9,0,0,1,0,8.942Zm2.355,0a6.841,6.841,0,0,0,6.774,6.924A6.779,6.779,0,1,0,2.355,8.942Z" transform="translate(0 0)" fill="#97999c" stroke="rgba(0,0,0,0)" stroke-miterlimit="10" stroke-width="1"/>
  </g>
</svg>
