<svg xmlns="http://www.w3.org/2000/svg" width="81" height="81" viewBox="0 0 81 81"><g transform="translate(-41)"><rect width="81" height="81" transform="translate(41)" fill="#272ea5"/><g transform="translate(61.779 20.481)"><path d="M1580.713,553.713a15.04,15.04,0,0,0-30.073,0c0,8.553,6.791,14.73,15.036,14.73s15.037-6.177,15.037-14.73m-15.037,11.4a11.166,11.166,0,1,1,11.156-11.4,11.266,11.266,0,0,1-11.156,11.4m0,0h0" transform="translate(-1550.64 -538.984)" fill="#fff" fill-rule="evenodd"/><path d="M1606.29,588.286,1597.1,579.1a27.742,27.742,0,0,1-5.319,5.319l9.187,9.187a3.761,3.761,0,0,0,5.32-5.319m0,0h0" transform="translate(-1567.378 -555.305)" fill="#fff" fill-rule="evenodd"/></g></g></svg>