<svg xmlns="http://www.w3.org/2000/svg" width="11.74" height="17.37" viewBox="0 0 11.74 17.37">
  <g id="Sort" transform="translate(-1320.5 -631.742)">
    <path id="Path_7478" data-name="Path 7478" d="M443.768,1854.648a.27.27,0,0,0-.19.078l-4.911,4.653-4.911-4.653a.269.269,0,0,0-.38.38l5.1,4.832a.268.268,0,0,0,.38,0l5.1-4.832a.269.269,0,0,0-.19-.458" transform="translate(887.703 -1211.405)" fill="#171c8f" stroke="#171c8f" stroke-width="1" fill-rule="evenodd"/>
    <path id="Path_7479" data-name="Path 7479" d="M487.158,1859.56l-5.1-4.833a.27.27,0,0,0-.38,0l-5.1,4.833a.269.269,0,1,0,.38.38l4.911-4.653,4.911,4.653a.269.269,0,0,0,.38-.38" transform="translate(844.504 -1222.406)" fill="#171c8f" stroke="#171c8f" stroke-width="1" fill-rule="evenodd"/>
  </g>
</svg>
