<svg xmlns="http://www.w3.org/2000/svg" width="81" height="81" viewBox="0 0 81 81"><g transform="translate(-41)"><rect width="81" height="81" transform="translate(41)" fill="#272ea5"/><path d="M57.08,101.188H44.653l-2.916,14.577A10.523,10.523,0,0,0,34,125.911v10.783h7.1V143.8h7.1v-7.106H76.61V143.8h7.1v-7.106h7.1V125.911a10.523,10.523,0,0,0-7.737-10.146L80.159,101.19v0H67.732m12.428,21.306a3.55,3.55,0,1,1-3.55,3.55A3.549,3.549,0,0,1,80.161,122.494Zm-2.842-17.755L79.45,115.39H45.363l2.131-10.652ZM44.652,129.593a3.55,3.55,0,1,1,3.55-3.55A3.55,3.55,0,0,1,44.652,129.593Z" transform="translate(17.464 -76.774)" fill="#fff"/><circle cx="11" cy="11" r="11" transform="translate(87 12)" fill="#fff"/><path d="M320.523,1456.275h-9.732v-1.217h2.433a.608.608,0,0,0,.607.608h3.65a.608.608,0,0,0,.608-.608h2.433Zm0,9.123h-9.732v-8.515h9.732Zm-6.691-11.556h3.65v1.216h-3.65Zm6.691.608H318.09v-.608a.609.609,0,0,0-.608-.609h-1.216a.608.608,0,0,0-1.217,0h-1.217a.609.609,0,0,0-.607.609v.608h-2.433a.608.608,0,0,0-.608.608v10.34a.608.608,0,0,0,.608.608h9.732a.608.608,0,0,0,.608-.608v-10.34a.608.608,0,0,0-.608-.608m-8.211,8.515h5.474a.3.3,0,0,0,0-.608h-5.474a.3.3,0,1,0,0,.608m0-1.825H319a.3.3,0,1,0,0-.607h-6.69a.3.3,0,1,0,0,.607m0-1.824h3.649a.3.3,0,1,0,0-.609h-3.649a.3.3,0,1,0,0,.609" transform="translate(-217.183 -1436.626)" fill="#171c8f" fill-rule="evenodd"/></g></svg>