<svg xmlns="http://www.w3.org/2000/svg" xmlns:xlink="http://www.w3.org/1999/xlink" width="256.268" height="171.902" viewBox="0 0 256.268 171.902">
  <defs>
    <linearGradient id="linear-gradient" x1="0.497" y1="-0.196" x2="0.506" y2="1.923" gradientUnits="objectBoundingBox">
      <stop offset="0" stop-opacity="0"/>
      <stop offset="0.95"/>
    </linearGradient>
    <linearGradient id="linear-gradient-2" x1="0.612" y1="0.927" x2="0.412" y2="-0.177" gradientUnits="objectBoundingBox">
      <stop offset="0" stop-opacity="0"/>
      <stop offset="0.99"/>
    </linearGradient>
    <linearGradient id="linear-gradient-3" x1="0.551" y1="0.792" x2="0.438" y2="-0.593" xlink:href="#linear-gradient"/>
    <linearGradient id="linear-gradient-4" x1="0.483" y1="1.425" x2="0.505" y2="0.25" xlink:href="#linear-gradient-2"/>
  </defs>
  <g id="_404" data-name="404" transform="translate(-832 -388.875)">
    <g id="_404_page_not_found_" data-name="404_page_not_found_" transform="translate(832 345.825)">
      <ellipse id="Ellipse_348" data-name="Ellipse 348" cx="128.134" cy="15.83" rx="128.134" ry="15.83" transform="translate(0 183.292)" fill="#161c8f"/>
      <ellipse id="Ellipse_349" data-name="Ellipse 349" cx="128.134" cy="15.83" rx="128.134" ry="15.83" transform="translate(0 183.292)" fill="url(#linear-gradient)"/>
      <path id="Path_7993" data-name="Path 7993" d="M123.3,94.147a21.453,21.453,0,0,0-16.4-3.25,6.217,6.217,0,0,0-2.828,1.211c-1.926,1.625-1.625,4.648-2.137,7.135-.626,3.064-2.682,5.688-3.421,8.711a19.624,19.624,0,0,0-.073,6.891,145.778,145.778,0,0,0,7.217,29.876l-9.22,73.338s9.142,1.479,27.686,2.958l1.458-71.254Z" transform="translate(-65.356 -8.232)" fill="#eea886"/>
      <path id="Path_7994" data-name="Path 7994" d="M58.79,171.818,70.63,219.7V150.641L65.364,134.99Z" transform="translate(-11.016 -17.228)" fill="url(#linear-gradient-2)"/>
      <path id="Path_7995" data-name="Path 7995" d="M306.634,95.4a21.469,21.469,0,0,1,16.4-3.185,6.338,6.338,0,0,1,2.836,1.211c1.918,1.625,1.625,4.648,2.129,7.143.634,3.064,2.69,5.688,3.429,8.711a19.389,19.389,0,0,1,.065,6.883c-1.075,9.007-6.615,20.9-9.8,29.388l8.889,72.287s-9.955,1.674-27.743,3.356l1.484-70.121Z" transform="translate(-104.031 -8.476)" fill="#eea886"/>
      <path id="Path_7996" data-name="Path 7996" d="M260.486,175.8l-4.2,21.575-8.947,19.462-.788-42.354Z" transform="translate(-46.198 -24.627)" fill="url(#linear-gradient-3)"/>
      <rect id="Rectangle_2664" data-name="Rectangle 2664" width="172.04" height="108.379" rx="8.37" transform="translate(42.776 47.398)" fill="#161c8f"/>
      <rect id="Rectangle_2665" data-name="Rectangle 2665" width="172.04" height="108.379" rx="8.37" transform="translate(41.776 54.398)" fill="url(#linear-gradient-4)"/>
      <path id="Path_8269" data-name="Path 8269" d="M8.37,0h155.3a8.37,8.37,0,0,1,8.37,8.37v91.639a8.37,8.37,0,0,1-8.37,8.37H8.37A8.37,8.37,0,0,1,0,100.009V8.37A8.37,8.37,0,0,1,8.37,0Z" transform="translate(42.776 43.05)" fill="#161c8f"/>
      <path id="Path_7997" data-name="Path 7997" d="M129.58,91.082c2.739-3.039,2.739-3.039,5.835-6.68L148.6,68.962a61.392,61.392,0,0,0,5.688-7.232h12.457a89.3,89.3,0,0,0-.479,10.085V91.569h1.763a42.255,42.255,0,0,0,6.013-.488V102.15a48.044,48.044,0,0,0-5.957-.366h-1.82v3.039a43.384,43.384,0,0,0,.479,7.476H154.235a53.718,53.718,0,0,0,.479-7.6v-2.934H137.487c-3.957,0-5.688.057-7.907.236Zm25.191-6.436c0-2.739.122-6.078.366-8.752-1.219,1.7-2.129,2.917-3.771,4.981l-8.9,10.816h12.279Z" transform="translate(-71.567 -2.85)" fill="#fff"/>
      <path id="Path_7998" data-name="Path 7998" d="M195.1,107.488a19.227,19.227,0,0,1-4.437-6.745,40.42,40.42,0,0,1-2.373-13.92c0-6.387,1.52-13,3.836-16.837,3.706-6.2,10.028-9.605,17.683-9.605a20.549,20.549,0,0,1,14.773,5.688,19.121,19.121,0,0,1,4.437,6.745,40.322,40.322,0,0,1,2.373,13.977c0,6.387-1.52,13.075-3.827,16.9-3.649,6.078-10.036,9.483-17.756,9.483C203.851,113.143,198.813,111.193,195.1,107.488Zm5.688-21.128c0,10.881,3.1,16.472,9.118,16.472s9-5.469,9-16.252c-.033-10.458-3.218-15.944-9.093-15.944-5.713,0-9.053,5.794-9.053,15.7Z" transform="translate(-82.568 -2.597)" fill="#fff"/>
      <path id="Path_7999" data-name="Path 7999" d="M245.21,91.082c2.739-3.039,2.739-3.039,5.835-6.68l13.2-15.44a61.175,61.175,0,0,0,5.648-7.232h12.466a87.374,87.374,0,0,0-.488,10.085V91.569h1.763a42.255,42.255,0,0,0,6.013-.488V102.15a48.044,48.044,0,0,0-5.956-.366h-1.82v3.039a42.471,42.471,0,0,0,.488,7.476H269.832a53.57,53.57,0,0,0,.488-7.6v-2.934h-17.2c-3.949,0-5.688.057-7.907.236ZM270.4,84.646c0-2.739.122-6.078.366-8.752-1.219,1.7-2.129,2.917-3.771,4.981l-8.9,10.816h12.279Z" transform="translate(-93.234 -2.85)" fill="#fff"/>
      <path id="Path_8000" data-name="Path 8000" d="M130.3,145.81a18.61,18.61,0,0,1,3.1-.244,5.144,5.144,0,0,1,3.511,1.04,3.381,3.381,0,0,1,1.1,2.617,3.665,3.665,0,0,1-.967,2.674,5.176,5.176,0,0,1-3.827,1.373,5.234,5.234,0,0,1-1.292-.114v5.014H130.29Zm1.625,6.03a5.16,5.16,0,0,0,1.333.13c1.95,0,3.137-.943,3.137-2.674s-1.17-2.438-2.95-2.438a6.8,6.8,0,0,0-1.52.13Z" transform="translate(-71.7 -18.557)" fill="#fff"/>
      <path id="Path_8001" data-name="Path 8001" d="M142.325,154.263l-1.3,3.933H139.4l4.242-12.506h1.934l4.266,12.506h-1.723l-1.333-3.933Zm4.063-1.26-1.227-3.6c-.276-.813-.463-1.56-.65-2.283h0c-.179.739-.39,1.5-.626,2.259L142.659,153Z" transform="translate(-73.407 -18.583)" fill="#fff"/>
      <path id="Path_8002" data-name="Path 8002" d="M163.509,157.6a11.628,11.628,0,0,1-3.844.691,5.875,5.875,0,0,1-6.42-6.314c0-3.73,2.576-6.452,6.769-6.452a7.7,7.7,0,0,1,3.12.577l-.39,1.316a6.42,6.42,0,0,0-2.763-.536,4.675,4.675,0,0,0-5.03,5.022c0,3.129,1.91,5.055,4.827,5.055a5.233,5.233,0,0,0,2.153-.341V152.9h-2.544v-1.3h4.12Z" transform="translate(-75.998 -18.552)" fill="#fff"/>
      <path id="Path_8003" data-name="Path 8003" d="M175.383,152.329h-4.876v4.51h5.42V158.2H168.89V145.69h6.761v1.357h-5.128V151H175.4Z" transform="translate(-78.933 -18.583)" fill="#fff"/>
      <path id="Path_8004" data-name="Path 8004" d="M185,158.2V145.69h1.763l4.006,6.322a37.12,37.12,0,0,1,2.251,4.063h0c-.146-1.625-.187-3.185-.187-5.136v-5.233h1.528v12.506h-1.625l-3.974-6.347a40.3,40.3,0,0,1-2.34-4.177h-.057c.1,1.585.13,3.088.13,5.16V158.2Z" transform="translate(-81.952 -18.583)" fill="#fff"/>
      <path id="Path_8005" data-name="Path 8005" d="M210.534,151.762c0,4.307-2.617,6.59-5.81,6.59s-5.623-2.56-5.623-6.347c0-3.974,2.438-6.566,5.81-6.566S210.534,148.057,210.534,151.762Zm-9.7.2c0,2.674,1.446,5.071,3.99,5.071s4.006-2.357,4.006-5.2c0-2.479-1.3-5.079-3.99-5.079S200.831,149.227,200.831,151.965Z" transform="translate(-84.594 -18.536)" fill="#fff"/>
      <path id="Path_8006" data-name="Path 8006" d="M217.223,147.063h-3.8V145.69h9.264v1.373h-3.827V158.2h-1.625Z" transform="translate(-87.277 -18.583)" fill="#fff"/>
      <path id="Path_8007" data-name="Path 8007" d="M231.368,145.69H238.1v1.357h-5.12V151.2h4.729v1.333h-4.729v5.688H231.36Z" transform="translate(-90.639 -18.583)" fill="#fff"/>
      <path id="Path_8008" data-name="Path 8008" d="M253.005,151.762c0,4.307-2.617,6.59-5.8,6.59-3.307,0-5.623-2.56-5.623-6.347,0-3.974,2.438-6.566,5.8-6.566S253.005,148.057,253.005,151.762Zm-9.7.2c0,2.674,1.446,5.071,3.99,5.071s4.006-2.357,4.006-5.2c0-2.479-1.3-5.079-3.99-5.079S243.3,149.227,243.3,151.965Z" transform="translate(-92.554 -18.536)" fill="#fff"/>
      <path id="Path_8009" data-name="Path 8009" d="M259.831,145.69v7.4c0,2.8,1.243,3.99,2.917,3.99,1.853,0,3.039-1.227,3.039-3.99v-7.4h1.625V153c0,3.844-2.023,5.42-4.729,5.42-2.56,0-4.494-1.463-4.494-5.347v-7.362Z" transform="translate(-95.666 -18.583)" fill="#fff"/>
      <path id="Path_8010" data-name="Path 8010" d="M273,158.2V145.69h1.763l4.006,6.322a35.66,35.66,0,0,1,2.243,4.063h.041c-.146-1.625-.187-3.185-.187-5.136v-5.233h1.52v12.506h-1.625l-3.966-6.347a38.842,38.842,0,0,1-2.34-4.177H274.4c.089,1.585.13,3.088.13,5.16V158.2Z" transform="translate(-98.441 -18.583)" fill="#fff"/>
      <path id="Path_8011" data-name="Path 8011" d="M288,145.83a23.443,23.443,0,0,1,3.437-.26,7.172,7.172,0,0,1,5.063,1.56,5.77,5.77,0,0,1,1.763,4.494,6.6,6.6,0,0,1-1.8,4.876,7.715,7.715,0,0,1-5.534,1.8,24.98,24.98,0,0,1-2.934-.2Zm1.625,11.06a9.345,9.345,0,0,0,1.625.1c3.454,0,5.323-1.934,5.323-5.306,0-2.95-1.625-4.827-5.063-4.827a8.768,8.768,0,0,0-1.893.171Z" transform="translate(-101.252 -18.56)" fill="#fff"/>
      <path id="Path_8257" data-name="Path 8257" d="M264.606,90s.638-5.571,0-8.337-2.552-2.724-2.552-2.724L261.585,90l-8,1.581s-2.52,1.573-2.52,2.974,2.52,2.631,2.52,2.631-2.381,1.914-2.52,3.409,1.962,2.57,1.962,2.57-2.335,1.729-1.962,3.1,3.455,2.382,3.455,2.382-2.833,1.355-1.494,3.161,9.031,1.744,9.031,1.744v4.421l4.139-4.048Z" transform="translate(-47.036 -6.725)" fill="#eea886"/>
      <path id="Path_8258" data-name="Path 8258" d="M252.608,90s-.638-5.571,0-8.337,2.552-2.724,2.552-2.724L255.628,90l8,1.581s2.52,1.573,2.52,2.974-2.52,2.631-2.52,2.631,2.381,1.914,2.52,3.409-1.962,2.57-1.962,2.57,2.335,1.729,1.962,3.1-3.455,2.382-3.455,2.382,2.833,1.355,1.493,3.161-9.03,1.744-9.03,1.744v4.421l-4.139-4.048Z" transform="translate(-212.811 -6.725)" fill="#eea886"/>
      <path id="Path_8259" data-name="Path 8259" d="M-4036.522,758.954l4.784-.785,4.558-.748.132.748Z" transform="translate(4243.316 -668.568)" fill="#8b624e"/>
      <path id="Path_8262" data-name="Path 8262" d="M-4027.049,758.954l-4.784-.785-4.558-.748-.132.748Z" transform="translate(4078.354 -668.568)" fill="#8b624e"/>
      <path id="Path_8260" data-name="Path 8260" d="M-4036.522,758.954l4.784-.785,4.558-.748.132.748Z" transform="translate(4243.316 -662.879)" fill="#8b624e"/>
      <path id="Path_8263" data-name="Path 8263" d="M-4027.049,758.954l-4.784-.785-4.558-.748-.132.748Z" transform="translate(4078.354 -662.879)" fill="#8b624e"/>
      <path id="Path_8261" data-name="Path 8261" d="M-4036.522,758.954l4.784-.785,4.558-.748.132.748Z" transform="translate(4243.316 -657.191)" fill="#8b624e"/>
      <path id="Path_8264" data-name="Path 8264" d="M-4027.049,758.954l-4.784-.785-4.558-.748-.132.748Z" transform="translate(4078.354 -657.191)" fill="#8b624e"/>
    </g>
  </g>
</svg>
