<svg xmlns="http://www.w3.org/2000/svg" width="320" height="200" viewBox="0 0 320 200">
  <g id="add_driver" transform="translate(-446 -1944)">
    <rect id="Rectangle_2725" data-name="Rectangle 2725" width="320" height="138.42" transform="translate(446 1944)" fill="#f6f9fe"/>
    <g id="Group_6189" data-name="Group 6189" transform="translate(446 2082)">
      <path id="Path_6166" data-name="Path 6166" d="M-70,0H250V62H-70Z" transform="translate(70)" fill="#ee0006"/>
      <text id="Add_Drivers" data-name="Add Drivers" transform="translate(160 35.911)" fill="#fff" font-family="RTA Custom, Helvetica Neue, Helvetica, Arial, sans-serif" font-size="1.125em"><tspan y="0" x="-77.8">Add More Drivers</tspan></text>
    </g>
    <path id="Subtraction_41" data-name="Subtraction 41" d="M833.347,11226.358a31.83,31.83,0,0,1-12.262-2.429,31.448,31.448,0,0,1-10.013-6.621,30.767,30.767,0,0,1-6.748-9.819,30.425,30.425,0,0,1,0-24.047,30.778,30.778,0,0,1,6.748-9.818,31.448,31.448,0,0,1,10.013-6.621,32.228,32.228,0,0,1,22.052-.9,15.483,15.483,0,0,0-1.527,6.745,15.841,15.841,0,0,0,22.109,14.417,30.5,30.5,0,0,1,1.124,8.207,30.163,30.163,0,0,1-2.477,12.021,30.743,30.743,0,0,1-6.751,9.819,31.426,31.426,0,0,1-10.01,6.621A31.823,31.823,0,0,1,833.347,11226.358Zm-3.477-27.448v14.006h5.641v-14.006h14.1v-5.6h-14.1v-14H829.87v14h-14.1v5.6Zm26.394-18.166h-.172a11.628,11.628,0,0,1-5.345-1.218,5.817,5.817,0,0,1-1.614-1.175,8.026,8.026,0,0,1,.794-3.874,4.2,4.2,0,0,1,2.172-2.136c.113-.013,2.722-.3,4.244-.3a35.6,35.6,0,0,1,3.793.3,3.127,3.127,0,0,1,2.292,1.854,7.773,7.773,0,0,1,.625,4.155,5.763,5.763,0,0,1-1.575,1.2A10.746,10.746,0,0,1,856.264,11180.744Zm.118-9.746a4.241,4.241,0,1,1,3.947-4.229A4.1,4.1,0,0,1,856.382,11171Z" transform="translate(-226.848 -9181.537)" fill="#171c8f"/>
  </g>
</svg>
