<svg xmlns="http://www.w3.org/2000/svg" xmlns:xlink="http://www.w3.org/1999/xlink" width="338.984" height="233.41" viewBox="0 0 338.984 233.41">
  <defs>
    <linearGradient id="linear-gradient" x1="0.881" y1="0.5" x2="0.121" y2="0.5" gradientUnits="objectBoundingBox">
      <stop offset="0" stop-color="#828282"/>
      <stop offset="0.502" stop-color="#d5d5d5"/>
      <stop offset="1" stop-color="#767676"/>
    </linearGradient>
    <linearGradient id="linear-gradient-2" x1="0.173" y1="1.028" x2="1.13" y2="-0.857" gradientUnits="objectBoundingBox">
      <stop offset="0" stop-opacity="0"/>
      <stop offset="0.99"/>
    </linearGradient>
    <linearGradient id="linear-gradient-3" x1="1.168" y1="0.748" x2="-1.133" y2="-0.091" xlink:href="#linear-gradient-2"/>
    <linearGradient id="linear-gradient-4" x1="-0.054" y1="0.662" x2="2.03" y2="0.033" xlink:href="#linear-gradient-2"/>
    <linearGradient id="linear-gradient-5" x1="0.881" y1="0.5" x2="0.121" y2="0.5" gradientUnits="objectBoundingBox">
      <stop offset="0" stop-color="#d3d3d3"/>
      <stop offset="0.502" stop-color="#fff"/>
      <stop offset="1" stop-color="#cbcbcb"/>
    </linearGradient>
  </defs>
  <g id="Add_employee" transform="translate(-790.016 -2621.812)">
    <path id="Path_10519" data-name="Path 10519" d="M20.955,238.573c-26.522-19.11-19.94-64.748-18.214-79.448.957-8.093,2.955-16.185,7.071-23.115,11.859-19.98,37.114-25.028,55.78-38.115C86.362,83.411,99.585,58.428,121.937,46.8c12.3-6.4,26.318-8.13,40.046-8.9,24.923-1.4,52.2.953,70.722,18.458,13.4,12.66,20.076,31.343,31.98,45.541,10.494,12.525,24.667,21.113,35.651,33.173,16.314,17.9,24.652,45.278,15.832,68.213-8.195,21.248-20.739,35.19-27.245,37.29-20.883,6.75-61.5,2.211-83.345,3.756-23.408,1.65-49.5,3.392-72.951,3.467-36.186.12-85.558,2.107-111.643-9.263" transform="translate(789.264 2584.241)" fill="#efeefb"/>
    <g id="Group_5953" data-name="Group 5953" transform="translate(804.932 2694.008)">
      <g id="Group_5951" data-name="Group 5951" transform="translate(178.665 19.052)">
        <path id="Path_10499" data-name="Path 10499" d="M-4970.37-4059.2l6.774,25.692,2.29,8.65,7.25,13.865H-5034.7v-3.562l5.979-12.975,6.741-30.784,9.286-9.413s14.883-1.4,16.282-1.4h15.392l8.777,4.452Z" transform="translate(5045.552 4088.497)" fill="url(#linear-gradient)"/>
        <path id="Path_8948" data-name="Path 8948" d="M120.38,282.979V268.125s6.34-23.827,28.371-26.558,45.869.907,45.869.907,23.245,3.016,27.459,31.684V285.17S163.535,302.093,120.38,282.979Z" transform="translate(-120.38 -175.788)" fill="#fff"/>
        <path id="Path_8949" data-name="Path 8949" d="M169.226,184.239c-.941-.581-4.788,1.982-5.823,2.383a2.992,2.992,0,0,0-1.122.773c-1.633,1.743-1.54,4.457-1.023,6.782a25.84,25.84,0,0,0,1.162,3.83,5.811,5.811,0,0,0,.866,1.6c1.162,1.377,3.2,1.563,4.986,1.354a3.293,3.293,0,0,0,2.72-1.395,3.161,3.161,0,0,0,.279-1.162C171.754,193.705,173.34,186.726,169.226,184.239Z" transform="translate(-137.363 -161.463)" fill="#f7af87"/>
        <path id="Path_8950" data-name="Path 8950" d="M238.768,187.508c1.319-.918,7.327,1.286,8.809,1.925a3.731,3.731,0,0,1,2.04,3.092,8.63,8.63,0,0,1-.663,3.789,12.738,12.738,0,0,1-2.354,4.2,6.323,6.323,0,0,1-4.184,2.185,4.26,4.26,0,0,1-4.039-2.15,6.974,6.974,0,0,1-.535-2.981,5.77,5.77,0,0,1,.261-2.325C238.743,193.647,237.414,188.45,238.768,187.508Z" transform="translate(-169.57 -162.776)" fill="#f7af87"/>
        <path id="Path_8951" data-name="Path 8951" d="M183.738,241.822c-.668,2.316-1.227,2.94-1.292,3.964.038.6-.246-.551,0,0,.736,4.9,2.474,10.922,12.937,11.3,12.269-.452,13.1-10.57,13.128-10.836a2.121,2.121,0,0,0-.285-.982c-1.5-3.231-1.226-7.4-.831-11.193a1.9,1.9,0,0,0-.058-.941.965.965,0,0,0-.581-.482c-2.6-1.093-5.387-.413-8.136-.517-3.777-.139-7.439-1.877-11.222-1.883-1.685,0-1.813.628-2.051,2.737a70.375,70.375,0,0,1-1.608,8.835Z" transform="translate(-146.335 -180.771)" fill="#f7af87"/>
        <path id="Path_8952" data-name="Path 8952" d="M184.59,228s2.179,8.543,7.462,14.139,17.789,4.527,16.312-.471c-1.244-4.19,1.087-13.668,1.087-13.668Z" transform="translate(-147.275 -179.829)" fill="url(#linear-gradient-2)"/>
        <path id="Path_8954" data-name="Path 8954" d="M211.258,181.95c-1.558,15.565-8.833,28.406-19.734,28.406S171.79,197.645,171.79,181.95s7.009-33.39,17.915-33.39S214.444,150.135,211.258,181.95Z" transform="translate(-140.752 -146.554)" fill="#f7af87"/>
        <path id="Path_8959" data-name="Path 8959" d="M243.612,200.306a2.737,2.737,0,0,0,1.831-.442,1.924,1.924,0,0,0,.715-.581c.477-.75-.047-1.79.3-2.6a2.2,2.2,0,0,1,1.633-1.093,1.162,1.162,0,0,1,.732,0,1.215,1.215,0,0,1,.535,1.093,7.229,7.229,0,0,1-1.65,5.079,6.747,6.747,0,0,1-4.754,2.383.488.488,0,0,1-.273-.041.447.447,0,0,1-.186-.267,3.185,3.185,0,0,1,.581-3.121" transform="translate(-171.453 -166.228)" fill="url(#linear-gradient-3)"/>
        <path id="Path_8960" data-name="Path 8960" d="M164.947,197.995c.267.447.808.622,1.255.883a3.1,3.1,0,0,1,1.5,2.586,1.616,1.616,0,0,1-.988,1.65,1.875,1.875,0,0,1-1.743-.773,6.671,6.671,0,0,1-1.7-4.818c.035-.581.285-2.046,1.215-1.743C165.231,196.042,164.586,197.39,164.947,197.995Z" transform="translate(-138.342 -166.316)" fill="url(#linear-gradient-4)"/>
        <path id="Union_44" data-name="Union 44" d="M72.874,63.916c-3.31-5.217-5.368-20.31-5.368-20.31s-.118-6.45-2-10.764a15.337,15.337,0,0,0-5.54-6.492,8.524,8.524,0,0,0-10.019-4.366c-6,1.6-8.152,1.311-8.669,1.187-.533.124-2.756.409-8.945-1.187A8.856,8.856,0,0,0,21.992,26.35a15.53,15.53,0,0,0-5.716,6.492c-1.946,4.314-2.068,10.764-2.068,10.764s-1.5,14.53-4.912,19.747S0,75.78,0,75.78,3.508,66.812,5.088,61.2,7.6,43.606,7.6,43.606s.77-11.836,6.608-21.621,9.71-17.444,15-20.06C33.9-.394,39.96-.021,41.275.093c1.274-.114,7.148-.487,11.694,1.832C58.1,4.541,61.848,12.2,67.506,21.984s6.4,21.621,6.4,21.621,1.541,13.328,3.073,18.94,5.871,14.188,5.871,14.188A136.465,136.465,0,0,1,72.874,63.916Z" transform="translate(9.242 0)" fill="#fff"/>
        <path id="Path_10505" data-name="Path 10505" d="M2.387,0s10.33.8,20.872.8,21.3-.8,21.3-.8a2.387,2.387,0,0,1,0,4.774s-10.749.8-21.291.8-20.877-.8-20.877-.8A2.387,2.387,0,0,1,2.387,0Z" transform="translate(27.347 7.571)"/>
        <path id="Path_10506" data-name="Path 10506" d="M2.387,0s11.7.8,23.038.8S47.737,0,47.737,0a2.387,2.387,0,0,1,0,4.774s-10.593.8-21.93.8-23.42-.8-23.42-.8A2.387,2.387,0,0,1,2.387,0Z" transform="translate(24.96 13.936)"/>
        <path id="Path_10500" data-name="Path 10500" d="M-4970.583-3971.581s.56,15.833,0,21.111c-.032.026-4.724,0-4.724,0v-21.17s1.165.129,2.34.129S-4970.583-3971.581-4970.583-3971.581Z" transform="translate(5021.835 4047.665)" fill="#dfdfdf"/>
        <path id="Union_46" data-name="Union 46" d="M19.891,37.085V37.06c-.929-.014-5.492-.209-8.839-2.593C7.309,31.8,4.6,26.42,4.6,26.42A43.609,43.609,0,0,1,2.019,20.3,78.874,78.874,0,0,1,0,12.623V0H.676S.054,12.8,2.5,19.067s3.124,5.608,5.964,9.408q.15.2.3.391c.395-1.434,1.765-6.24,2.519-6.724S17.919,19.6,19.8,18.954v-.2l.286.1.286-.1v.2c1.877.651,7.766,2.709,8.511,3.188.661.424,1.794,4.167,2.33,6.051,2.662-3.489,3.367-3.023,5.752-9.126C39.407,12.8,38.785,0,38.785,0h.676V12.623A79.108,79.108,0,0,1,37.443,20.3a43.575,43.575,0,0,1-2.581,6.117s-2.71,5.381-6.452,8.048a16.139,16.139,0,0,1-8.5,2.619Zm2.446-7.143L21.652,32l2.74,1.565a15.327,15.327,0,0,0,6.089-4.435,9.677,9.677,0,0,0-.443-2.531,10.111,10.111,0,0,0-1.915-3.163l-8.041-1.247-8.041,1.247A10.121,10.121,0,0,0,10.126,26.6a10.623,10.623,0,0,0-.46,3.3,15.146,15.146,0,0,0,5.4,3.669L17.809,32l-.685-2.055,2.936-.024v.024Z" transform="translate(30.658 26.651)"/>
      </g>
      <g id="Group_5952" data-name="Group 5952" transform="translate(0 6.462)">
        <ellipse id="Ellipse_440" data-name="Ellipse 440" cx="24" cy="27.5" rx="24" ry="27.5" transform="translate(26.069 12.53)" fill="#e49d7d"/>
        <path id="Path_10511" data-name="Path 10511" d="M-4101.992-3329.014s-9.591-8.442-20.154-9.37-21.215,6.364-21.215,6.364l9.724-15.027,13.436-2.652,14.32,9.016Z" transform="translate(4173.835 3358.188)"/>
        <path id="Path_10515" data-name="Path 10515" d="M-4157.437-3082.687s9.314.682,12.418,7.481c1.574,3.448,5.256,9.236,8.229,18.7s2.438,8.169,2.438,8.169-12.9,11.094-54.789,11.32-53.2-11.32-53.2-11.32-.194,1.662,1.47-7.256,6.531-18.045,6.531-18.045,4.607-8.607,13.2-7.729S-4157.437-3082.687-4157.437-3082.687Z" transform="translate(4242.351 3165.865)" fill="#3c3c3c"/>
        <path id="Path_10512" data-name="Path 10512" d="M-4106.924-3233.416a34.017,34.017,0,0,1-7.426,16.619c-6.669,8.245-13.966,8.044-13.966,8.044s-6.721-.008-13.259-6.807a38.184,38.184,0,0,1-8.664-15.734l1.769,28.109,20.154,18.386,10.253-1.591,11.139-25.987Z" transform="translate(4178.768 3274.789)"/>
        <path id="Path_10518" data-name="Path 10518" d="M-4118.3-3081.338a5.956,5.956,0,0,1,2.1.35,6.579,6.579,0,0,1,1.834,1.2s-18.814,31.038-47.164,24.134c-24.269-6.381-27.617-23.537-27.617-23.537l24.9,10.147Z" transform="translate(4206.676 3165.716)"/>
        <path id="Union_48" data-name="Union 48" d="M13.547,102.536C5.132,96.939,0,86.138,0,86.138s3.693-5.439,5.492-15.4,1.7-24.453,1.7-24.453S5.963,32.422,7.767,22.85,14.41,8,14.41,8A38.928,38.928,0,0,1,23.2,2.713,48.826,48.826,0,0,1,34.2,0V12.4s-23.558-.88-19.787,33.886C17.234,83.34,33.658,83.706,33.658,83.706v.122c3.571-.23,16.693-3.264,19.128-35.215,4.843-35.449-18.57-36.12-18.57-36.12V.046A46.16,46.16,0,0,1,44.677,2.713,38.96,38.96,0,0,1,53.464,8S58.3,13.279,60.106,22.85s.576,23.432.576,23.432.217,11.8,3.222,20.283S70.976,83.83,70.976,83.83s-8.235,13.109-16.649,18.706c-7.431,4.942-18.244,5.708-20.669,5.819v.169S21.961,108.132,13.547,102.536Z" transform="translate(17.396 0)" fill="#2e2e2e"/>
        <path id="Path_10516" data-name="Path 10516" d="M-4022.266-3191.826s.324,11.693-3.87,20.189-12.908,13.793-12.908,13.793a67.082,67.082,0,0,0,10.816-5.948,36.651,36.651,0,0,0,7.393-7.134,19.915,19.915,0,0,1-3.418,14.561c-5.038,7.249-16.736,14.432-16.736,14.432s11.061-3.109,18.1-8.051a31.777,31.777,0,0,0,10.043-11.716s-4.425-10.027-6.591-16.214A66.718,66.718,0,0,1-4022.266-3191.826Z" transform="translate(4100.412 3244.96)" fill="#4f4e4e"/>
        <path id="Path_10517" data-name="Path 10517" d="M-4179.844-3161.643s-.151,10,2.928,16.7a24.137,24.137,0,0,0,9.385,10.117s-6.307-3.3-9.385-6.455-2.928-6.172-2.928-6.172l-6.214,9.9a56.838,56.838,0,0,0,4.428-12.142A116.1,116.1,0,0,0-4179.844-3161.643Z" transform="translate(4204.458 3223.312)" fill="#4f4e4e"/>
      </g>
      <g id="Group_5958" data-name="Group 5958" transform="translate(75.461 2)">
        <path id="Path_10499-2" data-name="Path 10499" d="M-4946.626-4055.533l9.274,35.174,3.135,11.842,9.927,18.983H-5034.7v-4.876l8.186-17.764,9.23-42.145,12.713-12.887s20.376-1.916,22.292-1.916h21.072l12.017,6.1Z" transform="translate(5049.556 4095.648)" fill="url(#linear-gradient-5)"/>
        <path id="Path_8948-2" data-name="Path 8948" d="M120.38,298.638V278.3s8.68-32.62,38.842-36.36,62.8,1.241,62.8,1.241,31.825,4.129,37.593,43.377v15.077S179.463,324.806,120.38,298.638Z" transform="translate(-120.38 -151.886)" fill="#fff"/>
        <path id="Path_8949-2" data-name="Path 8949" d="M172.29,184.27c-1.289-.8-6.555,2.713-7.972,3.262a4.1,4.1,0,0,0-1.536,1.058c-2.236,2.387-2.108,6.1-1.4,9.285a35.371,35.371,0,0,0,1.591,5.243,7.956,7.956,0,0,0,1.185,2.2c1.591,1.886,4.376,2.14,6.826,1.854,1.448-.167,3.063-.6,3.723-1.909a4.327,4.327,0,0,0,.382-1.591C175.751,197.231,177.923,187.676,172.29,184.27Z" transform="translate(-128.667 -153.089)" fill="#f7af87"/>
        <path id="Path_8950-2" data-name="Path 8950" d="M238.619,187.59c1.112-1.257,6.179,1.76,7.429,2.635a5.85,5.85,0,0,1,1.72,4.233,18.508,18.508,0,0,1-.559,5.187,22.142,22.142,0,0,1-1.985,5.752,5.2,5.2,0,0,1-3.529,2.992c-1.391.176-2.719-.972-3.406-2.944a14.942,14.942,0,0,1-.451-4.082,12.6,12.6,0,0,1,.221-3.182C238.6,195.994,237.477,188.879,238.619,187.59Z" transform="translate(-144.382 -153.73)" fill="#f7af87"/>
        <path id="Path_8951-2" data-name="Path 8951" d="M184.252,246.093c-.914,3.171-1.68,4.025-1.768,5.427.052.824-.337-.754,0,0,1.008,6.7,3.387,14.953,17.711,15.469,16.8-.618,17.93-14.471,17.973-14.835a2.9,2.9,0,0,0-.39-1.345c-2.053-4.424-1.679-10.128-1.138-15.324a2.594,2.594,0,0,0-.08-1.289,1.321,1.321,0,0,0-.8-.66c-3.556-1.5-7.375-.565-11.139-.708-5.172-.191-10.184-2.57-15.363-2.578-2.307,0-2.482.859-2.809,3.747a96.356,96.356,0,0,1-2.2,12.1Z" transform="translate(-133.045 -162.51)" fill="#f7af87"/>
        <path id="Path_8952-2" data-name="Path 8952" d="M184.59,228s2.984,11.7,10.216,19.357,24.354,6.2,22.333-.644c-1.7-5.736,1.488-18.713,1.488-18.713Z" transform="translate(-133.503 -162.05)" fill="url(#linear-gradient-2)"/>
        <path id="Path_8954-2" data-name="Path 8954" d="M225.824,194.274c-2.133,21.31-12.093,38.89-27.017,38.89s-27.017-17.4-27.017-38.89,9.6-45.714,24.527-45.714S230.187,150.717,225.824,194.274Z" transform="translate(-129.296 -145.814)" fill="#f7af87"/>
        <path id="Union_44-2" data-name="Union 44" d="M99.77,87.506C95.238,80.363,92.421,59.7,92.421,59.7a40.462,40.462,0,0,0-3.1-10.663,99.944,99.944,0,0,0-6.556-11.912c-.353-.561-.674-1.049-.674-1.049S78.059,27.522,68.377,30.1c-8.212,2.185-11.161,1.795-11.868,1.626-.729.169-3.773.559-12.247-1.626a12.125,12.125,0,0,0-14.153,5.978A60.844,60.844,0,0,0,24.3,46.219,119.464,119.464,0,0,0,19.452,59.7S17.4,79.592,12.727,86.736,0,103.749,0,103.749,4.8,91.472,6.966,83.788,10.4,59.7,10.4,59.7s1.055-16.2,9.047-29.6S32.746,6.216,39.989,2.635C46.411-.54,54.71-.029,56.508.128c1.743-.157,9.787-.668,16.01,2.507C79.537,6.216,84.675,16.7,92.421,30.1s8.768,29.6,8.768,29.6S103.3,77.946,105.4,85.63s8.038,19.426,8.038,19.426S104.3,94.648,99.77,87.506Z" transform="translate(12.653 0)" fill="#fff"/>
        <rect id="Rectangle_2950" data-name="Rectangle 2950" width="64" height="6" rx="3" transform="translate(37.608 10.992)"/>
        <rect id="Rectangle_2951" data-name="Rectangle 2951" width="68" height="7" rx="3.5" transform="translate(34.608 18.992)"/>
        <path id="Path_10500-2" data-name="Path 10500" d="M-4968.841-3971.488s.767,41.211,0,54.948c-.044.068-6.466,0-6.466,0v-55.1a17.852,17.852,0,0,0,3.2.335C-4970.5-3971.3-4968.841-3971.488-4968.841-3971.488Z" transform="translate(5039.008 4075.724)" fill="#dfdfdf"/>
        <path id="Union_46-2" data-name="Union 46" d="M27.188,52.551c-.21,0-7.013-.028-12.057-3.622C10.006,45.279,6.3,37.912,6.3,37.912a59.674,59.674,0,0,1-3.533-8.375A108.145,108.145,0,0,1,0,19.023L.343,2.158,2.561-.732V1.742S.87,17.683,4.219,26.257c3.273,8.381,3.472,9.231,7.11,14.122a29.775,29.775,0,0,1,3.278-8.325c2.338-3.648,11.175-4.525,12.315-4.624v-.01l.061,0,.061,0v.01c1.14.1,9.978.976,12.316,4.624a29.546,29.546,0,0,1,3.247,8.2c3.549-4.784,3.774-5.69,7.019-14,3.35-8.574,1.659-24.516,1.659-24.516V0l2.561,3.79V19.023A108.006,108.006,0,0,1,51.08,29.536a59.674,59.674,0,0,1-3.533,8.375s-3.71,7.367-8.834,11.018a22.056,22.056,0,0,1-11.52,3.584v.038ZM30.4,42.735l-.937,2.813,3.75,2.143a20.981,20.981,0,0,0,8.337-6.072,13.265,13.265,0,0,0-.606-3.466,13.843,13.843,0,0,0-2.622-4.329l-11.34-1.759L15.644,33.824a13.824,13.824,0,0,0-2.622,4.329,13.426,13.426,0,0,0-.614,3.6,20.951,20.951,0,0,0,8.222,5.937l3.75-2.143-.937-2.813,3.606.035v-.035Z" transform="translate(42.153 34.745)"/>
      </g>
    </g>
    <g id="Group_5957" data-name="Group 5957" transform="translate(239.246 1258.246)">
      <g id="Ellipse_371" data-name="Ellipse 371" transform="translate(824.754 1515.754)" fill="#161c8f" stroke="#fff" stroke-width="8">
        <circle cx="32.5" cy="32.5" r="32.5" stroke="none"/>
        <circle cx="32.5" cy="32.5" r="28.5" fill="none"/>
      </g>
      <path id="Union_4" data-name="Union 4" d="M7.647,17.647V12.353H2.353a2.353,2.353,0,1,1,0-4.706H7.647V2.353a2.353,2.353,0,1,1,4.705,0V7.647h5.294a2.353,2.353,0,1,1,0,4.706H12.352v5.294a2.353,2.353,0,1,1-4.705,0Z" transform="translate(847.754 1537.754)" fill="#fff"/>
    </g>
  </g>
</svg>
