<svg xmlns="http://www.w3.org/2000/svg" xmlns:xlink="http://www.w3.org/1999/xlink" width="173.809" height="195.806" viewBox="0 0 173.809 195.806">
  <defs>
    <linearGradient id="linear-gradient" x1="0.118" y1="1.391" x2="0.919" y2="-0.476" gradientUnits="objectBoundingBox">
      <stop offset="0" stop-color="#010101" stop-opacity="0"/>
      <stop offset="1" stop-color="#fdfaff"/>
    </linearGradient>
    <linearGradient id="linear-gradient-2" x1="0.89" y1="0.074" x2="-1.333" y2="2.485" gradientUnits="objectBoundingBox">
      <stop offset="0" stop-color="#010101" stop-opacity="0"/>
      <stop offset="0.95" stop-color="#010101"/>
    </linearGradient>
    <linearGradient id="linear-gradient-3" y1="0.5" x2="1" y2="0.5" gradientUnits="objectBoundingBox">
      <stop offset="0" stop-color="#7f30c7" stop-opacity="0"/>
      <stop offset="1" stop-color="#7f30c7"/>
    </linearGradient>
    <linearGradient id="linear-gradient-11" x1="0.482" y1="-2.566" x2="0.561" y2="11.612" xlink:href="#linear-gradient-2"/>
    <linearGradient id="linear-gradient-12" x1="0.468" y1="-1.566" x2="0.524" y2="2.273" xlink:href="#linear-gradient-2"/>
    <linearGradient id="linear-gradient-13" x1="0.655" y1="-2.697" x2="0.025" y2="10.586" xlink:href="#linear-gradient-2"/>
    <linearGradient id="linear-gradient-14" x1="0.565" y1="-3.771" x2="0.26" y2="16.726" xlink:href="#linear-gradient-2"/>
    <linearGradient id="linear-gradient-15" x1="0.5" y1="1.051" x2="0.498" y2="-1.05" gradientUnits="objectBoundingBox">
      <stop offset="0" stop-color="#fff" stop-opacity="0"/>
      <stop offset="0.95" stop-color="#fff"/>
    </linearGradient>
    <linearGradient id="linear-gradient-16" x1="0" y1="0.5" x2="1" y2="0.5" xlink:href="#linear-gradient-2"/>
    <linearGradient id="linear-gradient-17" x1="0" y1="0.5" x2="1" y2="0.5" xlink:href="#linear-gradient-2"/>
    <linearGradient id="linear-gradient-18" x1="0" y1="0.5" x2="1" y2="0.5" xlink:href="#linear-gradient-15"/>
    <linearGradient id="linear-gradient-19" x1="-0.033" y1="1.016" x2="0.816" y2="0.194" xlink:href="#linear-gradient-2"/>
    <linearGradient id="linear-gradient-20" x1="0" y1="0.5" x2="1" y2="0.5" xlink:href="#linear-gradient-2"/>
    <linearGradient id="linear-gradient-21" x1="0.365" y1="-2.909" x2="0.597" y2="2.97" xlink:href="#linear-gradient-2"/>
    <linearGradient id="linear-gradient-22" x1="0.357" y1="-3.131" x2="0.603" y2="3.113" xlink:href="#linear-gradient-2"/>
  </defs>
  <g id="Add_contract" transform="translate(-912.191 -2066.194)">
    <g id="note_taking_monochromatic" transform="translate(842 2036.526)">
      <path id="Path_8770" data-name="Path 8770" d="M294.049,70.55V228.085a16.05,16.05,0,0,1-16.04,16.061H172.2a16.045,16.045,0,0,1-16.04-16.061V70.55A16.04,16.04,0,0,1,172.2,54.51H278.009a16.05,16.05,0,0,1,16.04,16.04Z" transform="translate(-85.969 -24.842)" fill="#171c8e"/>
      <path id="Path_10498" data-name="Path 10498" d="M0,10H111.972V167.8H0Z" transform="translate(81.851 33.955)" fill="url(#linear-gradient)"/>
      <path id="Path_8772" data-name="Path 8772" d="M293.252,79.43V202.266H195.307S181.732,200,181.015,181.834s.718-102.4.718-102.4Z" transform="translate(-97.801 -2.326)" fill="#fff"/>
      <path id="Path_8777" data-name="Path 8777" d="M203.8,367.213a2.333,2.333,0,0,0-.192.161h-8.119s-13.575-2.855-14.292-25.735c0,0,4.884,15.395,21.621,12.1C202.821,353.743,193.953,368.2,203.8,367.213Z" transform="translate(-97.986 -167.434)" fill="#fff"/>
      <path id="Path_8778" data-name="Path 8778" d="M203.8,367.213a2.333,2.333,0,0,0-.192.161h-8.119s-13.575-2.855-14.292-25.735c0,0,4.884,15.395,21.621,12.1C202.821,353.743,193.953,368.2,203.8,367.213Z" transform="translate(-97.986 -167.434)" fill="url(#linear-gradient-2)"/>
      <rect id="Rectangle_2830" data-name="Rectangle 2830" width="82.748" height="2.954" rx="1.477" transform="translate(100.237 100.182)" fill="url(#linear-gradient-3)"/>
      <rect id="Rectangle_2945" data-name="Rectangle 2945" width="68.901" height="2.954" rx="1.477" transform="translate(100.463 148.552)" fill="url(#linear-gradient-3)"/>
      <rect id="Rectangle_2831" data-name="Rectangle 2831" width="82.748" height="2.954" rx="1.477" transform="translate(100.237 109.05)" fill="url(#linear-gradient-3)"/>
      <rect id="Rectangle_2946" data-name="Rectangle 2946" width="35.614" height="2.954" rx="1.477" transform="translate(100.463 157.419)" fill="url(#linear-gradient-3)"/>
      <rect id="Rectangle_2832" data-name="Rectangle 2832" width="82.748" height="2.954" rx="1.477" transform="translate(100.237 117.912)" fill="url(#linear-gradient-3)"/>
      <rect id="Rectangle_2947" data-name="Rectangle 2947" width="48.617" height="2.954" rx="1.477" transform="translate(100.463 166.282)" fill="url(#linear-gradient-3)"/>
      <rect id="Rectangle_2833" data-name="Rectangle 2833" width="82.748" height="2.954" rx="1.477" transform="translate(100.237 126.78)" fill="url(#linear-gradient-3)"/>
      <rect id="Rectangle_2834" data-name="Rectangle 2834" width="82.748" height="2.954" rx="1.477" transform="translate(100.237 135.648)" fill="url(#linear-gradient-3)"/>
    </g>
    <g id="Group_5953" data-name="Group 5953" transform="translate(944.925 2096.237)">
      <path id="Path_10485" data-name="Path 10485" d="M318.145,334.347c5.327-.042,10.712.2,15.924-.89a4.191,4.191,0,0,0-2.13-3.669,10.453,10.453,0,0,0-4.243-1.256,90.852,90.852,0,0,0-14.117-.35q-16.346.452-32.691,1-8.172.272-16.344.57a12.5,12.5,0,0,0-7.6,2.437,1.556,1.556,0,0,0,.488,2.783c9.038,2.359,19.55,1.748,28.594,1.266C296.734,335.673,307.41,334.429,318.145,334.347Z" transform="translate(-256.276 -307.671)" fill="url(#linear-gradient-11)"/>
      <path id="Path_10486" data-name="Path 10486" d="M336.934,304.254c.958.162,1.882.48,2.835.656a19.145,19.145,0,0,0,3.663.2,261.072,261.072,0,0,0,26.86-1.8,5.155,5.155,0,0,0,1.738-.416,10.455,10.455,0,0,0,1.442-1.068,7.871,7.871,0,0,1,5.309-1.176c1.848.144,3.657.61,5.5.728a1.3,1.3,0,0,0,.764-.114c.426-.258.44-.86.4-1.354-.164-1.888-.494-3.937-1.9-5.2-1.492-1.35-3.709-1.4-5.719-1.372a24.344,24.344,0,0,0-4.917.4c-1.706.384-3.3,1.14-4.981,1.63-3.367.98-6.944.858-10.45.728l-19.422-.722a26.021,26.021,0,0,0-8.01.528c-2.587.728-6.585,3.151-6.345,6.347.2,2.745.672,3.813,2.543,3.665C328.524,305.726,334.662,303.866,336.934,304.254Z" transform="translate(-310.217 -279.878)" fill="#161c8f"/>
      <path id="Path_10487" data-name="Path 10487" d="M336.934,304.254c.958.162,1.882.48,2.835.656a19.145,19.145,0,0,0,3.663.2,261.072,261.072,0,0,0,26.86-1.8,5.155,5.155,0,0,0,1.738-.416,10.455,10.455,0,0,0,1.442-1.068,7.871,7.871,0,0,1,5.309-1.176c1.848.144,3.657.61,5.5.728a1.3,1.3,0,0,0,.764-.114c.426-.258.44-.86.4-1.354-.164-1.888-.494-3.937-1.9-5.2-1.492-1.35-3.709-1.4-5.719-1.372a24.344,24.344,0,0,0-4.917.4c-1.706.384-3.3,1.14-4.981,1.63-3.367.98-6.944.858-10.45.728l-19.422-.722a26.021,26.021,0,0,0-8.01.528c-2.587.728-6.585,3.151-6.345,6.347.2,2.745.672,3.813,2.543,3.665C328.524,305.726,334.662,303.866,336.934,304.254Z" transform="translate(-310.217 -279.878)" fill="url(#linear-gradient-12)"/>
      <path id="Path_10488" data-name="Path 10488" d="M275.248,327.07l-.372.024c-5.027.364-12.4-1.1-13.411-1.61s-1.82-2.735-1.4-5.695a3.559,3.559,0,0,0,1.4,2.633c1.018.514,8.384,1.974,13.411,1.61h.03c-.022.224-.03.45-.03.684A7.612,7.612,0,0,0,275.248,327.07Z" transform="translate(-259.217 -301.042)" fill="#161c8f"/>
      <path id="Path_10489" data-name="Path 10489" d="M441.023,332.077h0l-8.634.878s-12.259.436-22.959.856a7.69,7.69,0,0,0,.2-1.7,7.182,7.182,0,0,0-.124-1.36c10.684-.42,22.889-.856,22.889-.856l8.376-.854a7.474,7.474,0,0,0-.062.932A6.924,6.924,0,0,0,441.023,332.077Z" transform="translate(-378.806 -308.443)" fill="#161c8f"/>
      <path id="Path_10490" data-name="Path 10490" d="M275.248,327.07l-.372.024c-5.027.364-12.4-1.1-13.411-1.61s-1.82-2.735-1.4-5.695a3.559,3.559,0,0,0,1.4,2.633c1.018.514,8.384,1.974,13.411,1.61h.03c-.022.224-.03.45-.03.684A7.612,7.612,0,0,0,275.248,327.07Z" transform="translate(-259.217 -301.042)" fill="url(#linear-gradient-13)"/>
      <path id="Path_10491" data-name="Path 10491" d="M441.023,332.077h0l-8.634.878s-12.259.436-22.959.856a7.69,7.69,0,0,0,.2-1.7,7.182,7.182,0,0,0-.124-1.36c10.684-.42,22.889-.856,22.889-.856l8.376-.854a7.474,7.474,0,0,0-.062.932A6.924,6.924,0,0,0,441.023,332.077Z" transform="translate(-378.806 -308.443)" fill="url(#linear-gradient-14)"/>
      <path id="Path_10492" data-name="Path 10492" d="M334.675,247.683v-.116a6.545,6.545,0,0,0-12.955-1.524,4.831,4.831,0,0,0-.11.6l-8.376.854s-12.2.436-22.889.856a1.052,1.052,0,0,0-.032-.172,7.582,7.582,0,0,0-14.849,0h0a7.507,7.507,0,0,0-.124.84h-.03c-5.027.364-12.4-1.1-13.411-1.61a3.559,3.559,0,0,1-1.4-2.633v-.062c.444-3,2.114-4.375,4.453-6.2,2.082-1.624,9-3.551,11.647-4.251l.746-.2c1.056-.28,6.922-3.115,11.11-5.175a23.394,23.394,0,0,1,9.262-2.377c1.4-.062,3.015-.132,4.7-.2,3.1-.124,6.465-.24,9.278-.28a54.528,54.528,0,0,1,14.817,2.084c.38.11,2.681,3.713,3.667,4.917s4.211,4.049,4.211,4.049,1,.108,1.664,4.117c0,.07.024.132.03.2A8.818,8.818,0,0,1,334.675,247.683Z" transform="translate(-259.656 -226.03)" fill="#161c8f"/>
      <path id="Path_10493" data-name="Path 10493" d="M263.65,246.824a14.9,14.9,0,0,0,5.749.978,10.4,10.4,0,0,0,2.817-.294,12.828,12.828,0,0,0,2.549-1.13q3.437-1.83,6.892-3.621a13.762,13.762,0,0,1,3.113-1.3,14.013,14.013,0,0,1,3.209-.254l8.66-.014c8.2-.014,16.414-2.643,24.594-3.069a104.317,104.317,0,0,1,11.887.06,16.439,16.439,0,0,1-4.081-2.581,2.086,2.086,0,0,1-.786-1.092,8.015,8.015,0,0,1,.06-1.232,2.085,2.085,0,0,0-1.326-1.71,6.011,6.011,0,0,0-2.24-.368q-9.866-.374-19.732-.724a49.792,49.792,0,0,0-7.858.148c-8.652,1.08-16.07,6.519-24.281,9.456a44.5,44.5,0,0,0-5.729,2.2C265.34,243.225,264.4,244.918,263.65,246.824Z" transform="translate(-262.176 -229.518)" fill="url(#linear-gradient-15)"/>
      <path id="Path_10494" data-name="Path 10494" d="M366.922,227.5c-.108.172-.474.318-1.174.436-4.537.762-12.579,6.557-15.8,7.762s-8.75.108-8.75.108a3.391,3.391,0,0,1-.092-.366l.746-.2c1.056-.28,6.922-3.115,11.109-5.175a23.4,23.4,0,0,1,9.262-2.377C363.629,227.632,365.237,227.562,366.922,227.5Z" transform="translate(-324.147 -227.206)" fill="url(#linear-gradient-16)"/>
      <path id="Path_10495" data-name="Path 10495" d="M401.373,240.589a.582.582,0,0,0,.4,1.034c6.077-.4,25.36-1.7,27.194-2.068,2.188-.438,7-.874,7.8-2.4a4.867,4.867,0,0,0,.31-3.245s-14.489-2.563-21.753-.936C409.619,234.247,404.057,238.428,401.373,240.589Z" transform="translate(-372.187 -231.154)" fill="url(#linear-gradient-17)"/>
      <path id="Path_10496" data-name="Path 10496" d="M291.21,284.293s5.323-4.157,6.489-4.449,8.314-.072,8.314-.072a18.153,18.153,0,0,1-3.355,2.042C301.418,282.255,292.886,284.585,291.21,284.293Z" transform="translate(-284.225 -268.962)" fill="url(#linear-gradient-18)"/>
      <ellipse id="Ellipse_432" data-name="Ellipse 432" cx="5.923" cy="5.923" rx="5.923" ry="5.923" transform="translate(17.265 17.342)" fill="#606161"/>
      <ellipse id="Ellipse_433" data-name="Ellipse 433" cx="5.923" cy="5.923" rx="5.923" ry="5.923" transform="translate(17.265 17.342)" fill="url(#linear-gradient-19)"/>
      <ellipse id="Ellipse_434" data-name="Ellipse 434" cx="4.241" cy="4.241" rx="4.241" ry="4.241" transform="translate(19.016 19.1)" fill="#161c8f"/>
      <ellipse id="Ellipse_435" data-name="Ellipse 435" cx="5.579" cy="5.579" rx="5.579" ry="5.579" transform="translate(62.916 15.988)" fill="#606161"/>
      <ellipse id="Ellipse_436" data-name="Ellipse 436" cx="5.579" cy="5.579" rx="5.579" ry="5.579" transform="translate(62.916 15.988)" fill="url(#linear-gradient-20)"/>
      <ellipse id="Ellipse_437" data-name="Ellipse 437" cx="3.995" cy="3.995" rx="3.995" ry="3.995" transform="translate(64.564 17.644)" fill="#161c8f"/>
      <ellipse id="Ellipse_438" data-name="Ellipse 438" cx="3.521" cy="3.521" rx="3.521" ry="3.521" transform="translate(19.752 19.914)" fill="url(#linear-gradient-21)"/>
      <ellipse id="Ellipse_439" data-name="Ellipse 439" cx="3.193" cy="3.193" rx="3.193" ry="3.193" transform="translate(65.384 18.426)" fill="url(#linear-gradient-22)"/>
    </g>
    <g id="Group_5954" data-name="Group 5954" transform="translate(196.246 681.246)">
      <g id="Ellipse_371" data-name="Ellipse 371" transform="translate(824.754 1515.754)" fill="#161c8f" stroke="#fff" stroke-width="8">
        <circle cx="32.5" cy="32.5" r="32.5" stroke="none"/>
        <circle cx="32.5" cy="32.5" r="28.5" fill="none"/>
      </g>
      <path id="Union_4" data-name="Union 4" d="M7.647,17.647V12.353H2.353a2.353,2.353,0,1,1,0-4.706H7.647V2.353a2.353,2.353,0,1,1,4.705,0V7.647h5.294a2.353,2.353,0,1,1,0,4.706H12.352v5.294a2.353,2.353,0,1,1-4.705,0Z" transform="translate(847.754 1537.754)" fill="#fff"/>
    </g>
  </g>
</svg>
