<svg xmlns="http://www.w3.org/2000/svg" width="48" height="48" viewBox="0 0 48 48">
  <g id="add_circle" transform="translate(-1343.5 -732.996)">
    <circle id="Ellipse_335" data-name="Ellipse 335" cx="24" cy="24" r="24" transform="translate(1343.5 732.996)" fill="#e00"/>
    <path id="Path_7529" data-name="Path 7529" d="M843.591,1479.315a12.709,12.709,0,1,1,12.71-12.709,12.708,12.708,0,0,1-12.71,12.709m0-26.691a13.98,13.98,0,1,0,13.981,13.982,13.981,13.981,0,0,0-13.981-13.982m6.991,13.345h-6.355v-6.354a.636.636,0,1,0-1.271,0v6.354H836.6a.636.636,0,1,0,0,1.271h6.355v6.355a.636.636,0,0,0,1.271,0v-6.355h6.355a.636.636,0,0,0,0-1.271" transform="translate(524.406 -709.609)" fill="#fff" fill-rule="evenodd"/>
  </g>
</svg>
