<svg xmlns="http://www.w3.org/2000/svg" width="40" height="27.195" viewBox="0 0 40 27.195">
    <defs>
        <style>.a{fill:#171c8f;}</style>
    </defs>
    <path class="a" d="M40.072,97.633A1.36,1.36,0,0,0,38.645,96.2H1.553A1.542,1.542,0,0,0,.5,96.587a1.465,1.465,0,0,0-.4.9q.02,12.419.04,24.846a1.363,1.363,0,0,0,.34.627,1.62,1.62,0,0,0,1.12.407c.9.033,16.059.04,36.8.013a1.531,1.531,0,0,0,1.68-1.693C40.1,120.479,40.112,110.846,40.072,97.633ZM13.746,107.36q-5.79,5.79-11.566,11.553V99.893Q8,103.653,13.746,107.36Zm24.246-7.466v19.126q-5.79-5.83-11.58-11.666Q32.2,103.633,37.992,99.893ZM34.365,98.9l-14.279,9.22q-7.13-4.62-14.279-9.22Zm-18.2,10.013c1.333.693,2.66,1.38,3.993,2.073,1.307-.707,2.607-1.407,3.913-2.113l11.693,11.793H4.433Q10.293,114.786,16.166,108.913Z" transform="translate(-0.1 -96.2)" />
</svg>