<svg xmlns="http://www.w3.org/2000/svg" width="149.997" height="149.996" viewBox="0 0 149.997 149.996">
  <g id="Item_normal" transform="translate(-1316.501 -1205.004)">
    <path id="Subtraction_31" data-name="Subtraction 31" d="M-7837.5,24170a74.537,74.537,0,0,1-29.192-5.895,74.736,74.736,0,0,1-23.839-16.074,74.741,74.741,0,0,1-16.074-23.838A74.515,74.515,0,0,1-7912.5,24095a74.525,74.525,0,0,1,5.894-29.193,74.75,74.75,0,0,1,16.074-23.84,74.735,74.735,0,0,1,23.839-16.07A74.537,74.537,0,0,1-7837.5,24020a74.544,74.544,0,0,1,29.194,5.895,74.735,74.735,0,0,1,23.839,16.07,74.748,74.748,0,0,1,16.072,23.84A74.541,74.541,0,0,1-7762.5,24095a74.539,74.539,0,0,1-5.893,29.191,74.739,74.739,0,0,1-16.072,23.838,74.736,74.736,0,0,1-23.839,16.074A74.547,74.547,0,0,1-7837.5,24170Zm-11.386-109.143c-3.893,0-6.612,2.453-6.612,5.969v55.2a6.671,6.671,0,0,0,6.612,6.715h22.777a6.671,6.671,0,0,0,6.612-6.715v-55.2c0-3.516-2.719-5.969-6.612-5.969Zm11.756,63.406a1.971,1.971,0,0,1-2.208-2.238,1.421,1.421,0,0,1-.012-1.43,1.922,1.922,0,0,1,1.485-.809c1.414,0,2.936.7,2.936,2.238A3.311,3.311,0,0,1-7837.13,24124.264Zm13.224-9.7h0v0l-27.186,0v-49.23h27.188Z" transform="translate(9229 -22815)" fill="#b9b9b9"/>
  </g>
</svg>
