<?xml version="1.0" encoding="utf-8"?>
<!DOCTYPE svg PUBLIC "-//W3C//DTD SVG 1.1//EN" "http://www.w3.org/Graphics/SVG/1.1/DTD/svg11.dtd">
<svg xmlns="http://www.w3.org/2000/svg" viewBox="0 0 62 50">
    <style>:root&gt;svg{display:none}:root&gt;svg:target{display:block}</style>
    <!-- start danger/error -->
    <svg xmlns="http://www.w3.org/2000/svg" viewBox="0 0 512 512" id="danger">
        <g>
            <path d="m256 0c-141.164062 0-256 114.835938-256 256s114.835938 256 256 256 256-114.835938 256-256-114.835938-256-256-256zm94.273438 320.105469c8.339843 8.34375 8.339843 21.824219 0 30.167969-4.160157 4.160156-9.621094 6.25-15.085938 6.25-5.460938 0-10.921875-2.089844-15.082031-6.25l-64.105469-64.109376-64.105469 64.109376c-4.160156 4.160156-9.621093 6.25-15.082031 6.25-5.464844 0-10.925781-2.089844-15.085938-6.25-8.339843-8.34375-8.339843-21.824219 0-30.167969l64.109376-64.105469-64.109376-64.105469c-8.339843-8.34375-8.339843-21.824219 0-30.167969 8.34375-8.339843 21.824219-8.339843 30.167969 0l64.105469 64.109376 64.105469-64.109376c8.34375-8.339843 21.824219-8.339843 30.167969 0 8.339843 8.34375 8.339843 21.824219 0 30.167969l-64.109376 64.105469zm0 0" data-original="#000000" class="active-path" data-old_color="#000000" fill="#FFFFFF" />
        </g>
    </svg>
    <!-- end danger/error -->
    <!-- start danger/error color -->
    <svg xmlns="http://www.w3.org/2000/svg" viewBox="0 0 512 512" id="danger-color">
        <g>
            <path d="m256 0c-141.164062 0-256 114.835938-256 256s114.835938 256 256 256 256-114.835938 256-256-114.835938-256-256-256zm94.273438 320.105469c8.339843 8.34375 8.339843 21.824219 0 30.167969-4.160157 4.160156-9.621094 6.25-15.085938 6.25-5.460938 0-10.921875-2.089844-15.082031-6.25l-64.105469-64.109376-64.105469 64.109376c-4.160156 4.160156-9.621093 6.25-15.082031 6.25-5.464844 0-10.925781-2.089844-15.085938-6.25-8.339843-8.34375-8.339843-21.824219 0-30.167969l64.109376-64.105469-64.109376-64.105469c-8.339843-8.34375-8.339843-21.824219 0-30.167969 8.34375-8.339843 21.824219-8.339843 30.167969 0l64.105469 64.109376 64.105469-64.109376c8.34375-8.339843 21.824219-8.339843 30.167969 0 8.339843 8.34375 8.339843 21.824219 0 30.167969l-64.109376 64.105469zm0 0" data-original="#000000" class="active-path" data-old_color="#000000" fill="#ED0000" />
        </g>
    </svg>
    <!-- end danger/error color-->
    <!-- start info -->
    <svg xmlns="http://www.w3.org/2000/svg" viewBox="0 0 96.25 96.25" id="info">
        <g>
            <g>
                <path d="M48.125,0C21.547,0,0,21.546,0,48.125S21.547,96.25,48.125,96.25c26.579,0,48.125-21.546,48.125-48.125S74.704,0,48.125,0z    M55.191,80.261c0,0.829-0.67,1.5-1.5,1.5H42.558c-0.829,0-1.5-0.671-1.5-1.5V37.829c0-0.829,0.671-1.5,1.5-1.5h11.135   c0.828,0,1.5,0.671,1.5,1.5v42.432H55.191z M48.125,31.988c-4.825,0-8.75-3.925-8.75-8.75c0-4.825,3.925-8.75,8.75-8.75   s8.75,3.925,8.75,8.75C56.875,28.063,52.95,31.988,48.125,31.988z" data-original="#000000" class="active-path" data-old_color="#000000" fill="#FFFFFF" />
            </g>
        </g>
    </svg>
    <!-- end info -->
    <!-- start info color-->
    <svg xmlns="http://www.w3.org/2000/svg" viewBox="0 0 96.25 96.25" id="info-color">
        <g>
            <g>
                <path d="M48.125,0C21.547,0,0,21.546,0,48.125S21.547,96.25,48.125,96.25c26.579,0,48.125-21.546,48.125-48.125S74.704,0,48.125,0z    M55.191,80.261c0,0.829-0.67,1.5-1.5,1.5H42.558c-0.829,0-1.5-0.671-1.5-1.5V37.829c0-0.829,0.671-1.5,1.5-1.5h11.135   c0.828,0,1.5,0.671,1.5,1.5v42.432H55.191z M48.125,31.988c-4.825,0-8.75-3.925-8.75-8.75c0-4.825,3.925-8.75,8.75-8.75   s8.75,3.925,8.75,8.75C56.875,28.063,52.95,31.988,48.125,31.988z" data-original="#000000" class="active-path" data-old_color="#000000" fill="#72b5fe" />
            </g>
        </g>
    </svg>
    <!-- end info color-->
    <!-- start success -->
    <svg xmlns="http://www.w3.org/2000/svg" viewBox="0 0 477.867 477.867" id="success">
        <g>
            <g>
                <g>
                    <path d="M238.933,0C106.974,0,0,106.974,0,238.933s106.974,238.933,238.933,238.933s238.933-106.974,238.933-238.933    C477.726,107.033,370.834,0.141,238.933,0z M370.466,165.666L199.799,336.333c-6.665,6.663-17.468,6.663-24.132,0l-68.267-68.267    c-6.78-6.548-6.968-17.352-0.42-24.132c6.548-6.78,17.352-6.968,24.132-0.42c0.142,0.138,0.282,0.277,0.42,0.42l56.201,56.201    l158.601-158.601c6.78-6.548,17.584-6.36,24.132,0.419C376.854,148.567,376.854,159.052,370.466,165.666z" data-original="#000000" class="active-path" data-old_color="#000000" fill="#FFFFFF" />
                </g>
            </g>
        </g>
    </svg>
    <!-- end success -->
    <!-- start success color -->
    <svg xmlns="http://www.w3.org/2000/svg" viewBox="0 0 477.867 477.867" id="success-color">
        <g>
            <g>
                <g>
                    <path d="M238.933,0C106.974,0,0,106.974,0,238.933s106.974,238.933,238.933,238.933s238.933-106.974,238.933-238.933    C477.726,107.033,370.834,0.141,238.933,0z M370.466,165.666L199.799,336.333c-6.665,6.663-17.468,6.663-24.132,0l-68.267-68.267    c-6.78-6.548-6.968-17.352-0.42-24.132c6.548-6.78,17.352-6.968,24.132-0.42c0.142,0.138,0.282,0.277,0.42,0.42l56.201,56.201    l158.601-158.601c6.78-6.548,17.584-6.36,24.132,0.419C376.854,148.567,376.854,159.052,370.466,165.666z" data-original="#000000" class="active-path" data-old_color="#000000" fill="#00B154" />
                </g>
            </g>
        </g>
    </svg>
    <!-- end success color-->
    <!-- start warning -->
    <svg xmlns="http://www.w3.org/2000/svg" viewBox="0 0 512 512" id="warning">
        <g>
            <g>
                <g>
                    <path d="M501.362,383.95L320.497,51.474c-29.059-48.921-99.896-48.986-128.994,0L10.647,383.95    c-29.706,49.989,6.259,113.291,64.482,113.291h361.736C495.039,497.241,531.068,433.99,501.362,383.95z M256,437.241    c-16.538,0-30-13.462-30-30c0-16.538,13.462-30,30-30c16.538,0,30,13.462,30,30C286,423.779,272.538,437.241,256,437.241z     M286,317.241c0,16.538-13.462,30-30,30c-16.538,0-30-13.462-30-30v-150c0-16.538,13.462-30,30-30c16.538,0,30,13.462,30,30    V317.241z" data-original="#000000" class="active-path" data-old_color="#000000" fill="#FFFFFF" />
                </g>
            </g>
        </g>
    </svg>
    <!-- end warning -->
    <!-- start warning color -->
    <svg xmlns="http://www.w3.org/2000/svg" viewBox="0 0 512 512" id="warning-color">
        <g>
            <g>
                <g>
                    <path d="M501.362,383.95L320.497,51.474c-29.059-48.921-99.896-48.986-128.994,0L10.647,383.95    c-29.706,49.989,6.259,113.291,64.482,113.291h361.736C495.039,497.241,531.068,433.99,501.362,383.95z M256,437.241    c-16.538,0-30-13.462-30-30c0-16.538,13.462-30,30-30c16.538,0,30,13.462,30,30C286,423.779,272.538,437.241,256,437.241z     M286,317.241c0,16.538-13.462,30-30,30c-16.538,0-30-13.462-30-30v-150c0-16.538,13.462-30,30-30c16.538,0,30,13.462,30,30    V317.241z" data-original="#000000" class="active-path" data-old_color="#000000" fill="#FF7000" />
                </g>
            </g>
        </g>
    </svg>
    <!-- end warning color-->

    <!-- start close button  -->
    <svg xmlns="http://www.w3.org/2000/svg" viewBox="0 0 511.76 511.76" id="close-warning">
        <g>
            <g>
                <g>
                    <path d="M436.896,74.869c-99.84-99.819-262.208-99.819-362.048,0c-99.797,99.819-99.797,262.229,0,362.048    c49.92,49.899,115.477,74.837,181.035,74.837s131.093-24.939,181.013-74.837C536.715,337.099,536.715,174.688,436.896,74.869z     M361.461,331.317c8.341,8.341,8.341,21.824,0,30.165c-4.16,4.16-9.621,6.251-15.083,6.251c-5.461,0-10.923-2.091-15.083-6.251    l-75.413-75.435l-75.392,75.413c-4.181,4.16-9.643,6.251-15.083,6.251c-5.461,0-10.923-2.091-15.083-6.251    c-8.341-8.341-8.341-21.845,0-30.165l75.392-75.413l-75.413-75.413c-8.341-8.341-8.341-21.845,0-30.165    c8.32-8.341,21.824-8.341,30.165,0l75.413,75.413l75.413-75.413c8.341-8.341,21.824-8.341,30.165,0    c8.341,8.32,8.341,21.824,0,30.165l-75.413,75.413L361.461,331.317z" data-original="#000000" class="active-path" data-old_color="#000000" fill="#FF7000" />
                </g>
            </g>
        </g>
    </svg>
    <svg xmlns="http://www.w3.org/2000/svg" viewBox="0 0 511.76 511.76" id="close-success">
        <g>
            <g>
                <g>
                    <path d="M436.896,74.869c-99.84-99.819-262.208-99.819-362.048,0c-99.797,99.819-99.797,262.229,0,362.048    c49.92,49.899,115.477,74.837,181.035,74.837s131.093-24.939,181.013-74.837C536.715,337.099,536.715,174.688,436.896,74.869z     M361.461,331.317c8.341,8.341,8.341,21.824,0,30.165c-4.16,4.16-9.621,6.251-15.083,6.251c-5.461,0-10.923-2.091-15.083-6.251    l-75.413-75.435l-75.392,75.413c-4.181,4.16-9.643,6.251-15.083,6.251c-5.461,0-10.923-2.091-15.083-6.251    c-8.341-8.341-8.341-21.845,0-30.165l75.392-75.413l-75.413-75.413c-8.341-8.341-8.341-21.845,0-30.165    c8.32-8.341,21.824-8.341,30.165,0l75.413,75.413l75.413-75.413c8.341-8.341,21.824-8.341,30.165,0    c8.341,8.32,8.341,21.824,0,30.165l-75.413,75.413L361.461,331.317z" data-original="#000000" class="active-path" data-old_color="#000000" fill="#00B154" />
                </g>
            </g>
        </g>
    </svg>
    <svg xmlns="http://www.w3.org/2000/svg" viewBox="0 0 511.76 511.76" id="close-danger">
        <g>
            <g>
                <g>
                    <path d="M436.896,74.869c-99.84-99.819-262.208-99.819-362.048,0c-99.797,99.819-99.797,262.229,0,362.048    c49.92,49.899,115.477,74.837,181.035,74.837s131.093-24.939,181.013-74.837C536.715,337.099,536.715,174.688,436.896,74.869z     M361.461,331.317c8.341,8.341,8.341,21.824,0,30.165c-4.16,4.16-9.621,6.251-15.083,6.251c-5.461,0-10.923-2.091-15.083-6.251    l-75.413-75.435l-75.392,75.413c-4.181,4.16-9.643,6.251-15.083,6.251c-5.461,0-10.923-2.091-15.083-6.251    c-8.341-8.341-8.341-21.845,0-30.165l75.392-75.413l-75.413-75.413c-8.341-8.341-8.341-21.845,0-30.165    c8.32-8.341,21.824-8.341,30.165,0l75.413,75.413l75.413-75.413c8.341-8.341,21.824-8.341,30.165,0    c8.341,8.32,8.341,21.824,0,30.165l-75.413,75.413L361.461,331.317z" data-original="#000000" class="active-path" data-old_color="#000000" fill="#ED0000" />
                </g>
            </g>
        </g>
    </svg>
    <svg xmlns="http://www.w3.org/2000/svg" viewBox="0 0 511.76 511.76" id="close-info">
        <g>
            <g>
                <g>
                    <path d="M436.896,74.869c-99.84-99.819-262.208-99.819-362.048,0c-99.797,99.819-99.797,262.229,0,362.048    c49.92,49.899,115.477,74.837,181.035,74.837s131.093-24.939,181.013-74.837C536.715,337.099,536.715,174.688,436.896,74.869z     M361.461,331.317c8.341,8.341,8.341,21.824,0,30.165c-4.16,4.16-9.621,6.251-15.083,6.251c-5.461,0-10.923-2.091-15.083-6.251    l-75.413-75.435l-75.392,75.413c-4.181,4.16-9.643,6.251-15.083,6.251c-5.461,0-10.923-2.091-15.083-6.251    c-8.341-8.341-8.341-21.845,0-30.165l75.392-75.413l-75.413-75.413c-8.341-8.341-8.341-21.845,0-30.165    c8.32-8.341,21.824-8.341,30.165,0l75.413,75.413l75.413-75.413c8.341-8.341,21.824-8.341,30.165,0    c8.341,8.32,8.341,21.824,0,30.165l-75.413,75.413L361.461,331.317z" data-original="#000000" class="active-path" data-old_color="#000000" fill="#72b5fe" />
                </g>
            </g>
        </g>
    </svg>
    <!-- end close button -->
</svg>