<svg xmlns="http://www.w3.org/2000/svg" width="100.273" height="101.064" viewBox="0 0 100.273 101.064">
  <g id="Available" transform="translate(-480.998 -804)">
    <g id="Group_6171" data-name="Group 6171" transform="translate(0 1.998)">
      <path id="Subtraction_37" data-name="Subtraction 37" d="M20952,12172a49.84,49.84,0,1,1,19.461-3.929A49.717,49.717,0,0,1,20952,12172Zm-11.85-38.956h22.818v6.119h5.576v-6.119h5.576v-8.159a8.282,8.282,0,0,0-6.082-8.154l-2.533-11.728h-27.891l-2.533,11.728a8.281,8.281,0,0,0-6.084,8.154v8.159h5.576v6.119h5.576v-6.118Zm25.354-5.608a2.408,2.408,0,0,1-2.535-2.551c0-1.471.971-3.058,2.535-3.058a3.28,3.28,0,0,1,3.041,3.058C20968.547,12126.459,20966.969,12127.435,20965.506,12127.435Zm-27.889,0c-1.463,0-3.041-.976-3.041-2.551a3.28,3.28,0,0,1,3.041-3.058c1.564,0,2.535,1.587,2.535,3.058A2.408,2.408,0,0,1,20937.617,12127.435Zm27.377-11.216h-26.865l1.518-8.671h23.83l1.518,8.67Z" transform="translate(-20421 -11270)" fill="#be97e3"/>
      <g id="Component_152" data-name="Component 152" transform="translate(481.271 869.066)">
        <path id="Path_6159" data-name="Path 6159" d="M30,0H130V34H30Z" transform="translate(-30)" fill="#7f30c7"/>
        <text id="Available-2" data-name="Available" transform="translate(50.249 21.5)" fill="#fff" font-size="14" font-family="RTA Custom, Helvetica Neue, Helvetica, Arial, sans-serif" font-weight="600"><tspan x="-30.45" y="0">Available</tspan></text>
      </g>
    </g>
  </g>
</svg>
