<svg xmlns="http://www.w3.org/2000/svg" width="320" height="200" viewBox="0 0 320 200">
  <g id="add_addons" transform="translate(-804 -1944)">
    <rect id="Rectangle_2725" data-name="Rectangle 2725" width="320" height="138.42" transform="translate(804 1944)" fill="#f6f9fe"/>
    <g id="Group_6189" data-name="Group 6189" transform="translate(804 2082)">
      <path id="Path_6166" data-name="Path 6166" d="M-70,0H250V62H-70Z" transform="translate(70)" fill="#ee0006"/>
      <text id="Add_Add-ons" data-name="Add Add-ons" transform="translate(160 35.911)" fill="#fff" font-size="20" font-family="RTA Custom, Helvetica Neue, Helvetica, Arial, sans-serif"><tspan x="-58.51" y="0">Add Add-ons</tspan></text>
    </g>
    <path id="Subtraction_39" data-name="Subtraction 39" d="M27.895,56.01a27.922,27.922,0,0,1-19.724-8.1,27.555,27.555,0,0,1-5.978-8.79,27.533,27.533,0,0,1,0-21.529A27.874,27.874,0,0,1,17.037,2.875a28.226,28.226,0,0,1,19.808-.718A14.954,14.954,0,0,0,50.862,22.1a14.823,14.823,0,0,0,4.071-.566,27.48,27.48,0,0,1-7.315,26.374,27.922,27.922,0,0,1-19.723,8.1ZM11.685,26.624v5.325H24.947V45.263h5.3V31.949H43.514V26.624H30.252V13.313h-5.3V26.624ZM45.239,14.3h-2.4V11.915h-2.4V8.3a3.542,3.542,0,0,1,2.618-3.4L44.038,0H56.055l.986,4.891A3.543,3.543,0,0,1,59.66,8.3v3.618h-2.4V14.3h-2.4V11.915H45.239V14.3ZM56.055,7.15a1.191,1.191,0,1,0,1.2,1.191A1.2,1.2,0,0,0,56.055,7.15Zm-12.018,0a1.191,1.191,0,1,0,1.2,1.191A1.2,1.2,0,0,0,44.037,7.15ZM45,1.192l-.721,3.574H55.814l-.721-3.574Z" transform="translate(933.998 1984.998)" fill="#171c8f"/>
  </g>
</svg>
