<svg xmlns="http://www.w3.org/2000/svg" width="61" height="49.024" viewBox="0 0 61 49.024">
  <path id="API_icon" d="M17536.846,1864.025V1861.3c-.682,0-1.365,0-1.365-.683l-2.049,2.044-3.418-2.727,2.047-2.044c0-.683-.682-1.365-.682-2.048h-2.732v-4.088h2.732c0-.683.682-1.366.682-2.048l-2.047-2.044,3.418-2.727,2.049,2.044c0-.683.684-.683,1.365-.683v-2.727h4.1l.684,2.727a2.129,2.129,0,0,1,1.369.683l2.049-2.044,2.73,2.727-1.365,2.044a2.507,2.507,0,0,0,.684,2.048h2.73v4.088h-2.73a2.506,2.506,0,0,0-.684,2.048l1.365,2.044-2.73,2.727-2.049-2.044a2.128,2.128,0,0,1-1.369.683l-.684,2.727Zm-1.365-10.228a4.4,4.4,0,0,0,4.1,4.092c2.047,0,3.416-2.048,3.416-4.092a3.227,3.227,0,0,0-3.416-3.41C17537.527,1850.387,17535.48,1851.753,17535.48,1853.8Zm-24.949,2.222-.693-4.183c-.686-.7-1.381-.7-2.764-1.4l-3.463,3.488-4.844-5.58,3.463-3.488a3.636,3.636,0,0,1-1.385-2.792H17496v-6.976l4.844-.7c0-.7.691-1.4,1.385-2.092l-3.463-4.183,4.844-4.884,3.463,3.488c1.383-.7,2.078-.7,2.764-1.4l.693-4.884h6.924v4.884c1.383.7,2.074.7,2.77,1.4l3.457-3.488,4.844,4.884-2.77,4.183c0,.7.691,1.4.691,2.092l4.844.7v6.976h-4.844c0,1.4-.691,2.092-.691,2.792l2.77,3.488-4.844,5.58-3.457-3.488c-.7.7-1.387.7-2.77,1.4v4.183Zm-4.846-16.739a8.457,8.457,0,0,0,8.307,8.372c4.152,0,8.307-4.188,8.307-8.372a8.45,8.45,0,0,0-8.307-8.371A8.032,8.032,0,0,0,17505.686,1839.28Zm34.291,2.509V1838.4c-.7,0-1.393-.678-2.088-.678l-2.787,2.035-3.484-3.392,2.787-2.718c-.7-.678-.7-1.357-1.395-2.035h-3.48v-5.427h3.48c.7-.678.7-1.357,1.395-2.035l-2.787-2.04,3.484-4.071,2.787,2.714c.7-.678,1.393-.678,2.088-1.357V1816h5.574v3.392c.7.678,1.393.678,2.088,1.357l2.787-2.714,3.484,4.071-2.092,2.04c0,.678.7,1.357.7,2.035H17556v5.427h-3.484c0,.678-.7,1.357-.7,2.035l2.092,2.718-3.484,3.392-2.787-2.035c-.7,0-1.393.678-2.088.678v3.392Zm-1.393-12.216c0,2.035,2.092,4.071,4.875,4.071a4.436,4.436,0,0,0,4.18-4.071,4.58,4.58,0,0,0-4.18-4.749A4.7,4.7,0,0,0,17538.584,1829.573Z" transform="translate(-17495.502 -1815.501)" fill="#fff" stroke="rgba(0,0,0,0)" stroke-miterlimit="10" stroke-width="1"/>
</svg>
