<svg xmlns="http://www.w3.org/2000/svg" xmlns:xlink="http://www.w3.org/1999/xlink" width="330.25" height="220.468" viewBox="0 0 330.25 220.468">
  <defs>
    <linearGradient id="linear-gradient" x1="0.198" y1="0.739" x2="0.926" gradientUnits="objectBoundingBox">
      <stop offset="0" stop-color="#cbcccd"/>
      <stop offset="1" stop-color="#a7a8a9"/>
    </linearGradient>
    <linearGradient id="linear-gradient-2" x1="0.197" y1="0.744" x2="0.82" y2="-0.031" xlink:href="#linear-gradient"/>
    <linearGradient id="linear-gradient-3" x1="0.197" y1="0.739" x2="1.394" y2="-0.456" xlink:href="#linear-gradient"/>
    <linearGradient id="linear-gradient-4" x1="0.246" y1="0.837" x2="0.798" y2="0.165" gradientUnits="objectBoundingBox">
      <stop offset="0" stop-color="#dfdfdf"/>
      <stop offset="1" stop-color="#f9f9f9"/>
    </linearGradient>
  </defs>
  <g id="car_1_" data-name="car (1)" transform="translate(-7.919 -25.22)">
    <path id="Path_8015" data-name="Path 8015" d="M335.143,131.6l-127.5-74.147a6.017,6.017,0,0,0-6.017,0L10.954,166.614a6.017,6.017,0,0,0,0,10.452l121.931,70.4a19.684,19.684,0,0,0,19.676,0L335.125,142.048a6.017,6.017,0,0,0,.017-10.452Z" transform="translate(0 -4.412)" fill="#cbcccd"/>
    <path id="Path_8016" data-name="Path 8016" d="M188.369,100.993a3.086,3.086,0,0,1-.387-5.071c.542-.438,1-.808,1.238-.963a81.428,81.428,0,0,1,18.386-8.381l10.908-3.438,4.3.5a241.971,241.971,0,0,1-29.793,20.028Z" transform="translate(-25.124 -8.133)" fill="url(#linear-gradient)"/>
    <path id="Path_8017" data-name="Path 8017" d="M168.419,104.349a2.235,2.235,0,0,1-.284-3.662c.4-.318.722-.585.86-.7a58.83,58.83,0,0,1,13.315-6.017c2.63-.86,6.464-2.218,9.094-3.034l1.9.946a174.822,174.822,0,0,1-21.489,14.475Z" transform="translate(-22.383 -9.229)" fill="url(#linear-gradient-2)"/>
    <path id="Path_8018" data-name="Path 8018" d="M299.549,184.853a3.086,3.086,0,0,1-.387-5.071c.542-.438,1-.808,1.238-.963a81.428,81.428,0,0,1,18.421-8.381L329.729,167l4.3.5a241.977,241.977,0,0,1-29.793,20.028Z" transform="translate(-40.737 -19.91)" fill="url(#linear-gradient-3)"/>
    <path id="Path_8019" data-name="Path 8019" d="M135.107,248.919l-6.507-3.756L330.428,128.63l6.963,4.049L135.107,248.919" transform="translate(-16.947 -14.521)" fill="#a7a8a9"/>
    <path id="Path_8020" data-name="Path 8020" d="M33.287,189.879l-6.507-3.756L228.608,69.59l6.963,4.049L33.287,189.879" transform="translate(-2.649 -6.231)" fill="#a7a8a9"/>
    <path id="Path_8021" data-name="Path 8021" d="M54.87,208.935l58.2-33.317,54.488-32.475,22.014-12.894,46.142,36.876-127.8,72.591Z" transform="translate(-6.593 -14.749)" fill="url(#linear-gradient-4)"/>
    <path id="Path_8022" data-name="Path 8022" d="M110.535,164.708l5.768-9.722c6.318-4.934,21.928-16.555,21.928-16.555,4.513-5.673,16.942-18.051,16.942-18.051,8.836-6.5,41.835-24.068,44.32-24.369s11.131,1.625,12.464,1.719,5.372-2.63,5.372-2.63c11.982.989,23.7,10.813,29.294,15.068a15.068,15.068,0,0,1,5.69,10.908s.593,20.527.249,21.61-3.662,3.438-3.662,3.438.112-11.57-8.26-7.47-10.186,18.378-10.96,19.108-41.7,24.4-50.758,29.647c.086-2.579-.241-5.209-2.175-7.057-2.252-2.149-5.57-1.865-8.235-.782a14.415,14.415,0,0,0-6.687,5.3c-2.407,2.966-3.567,6.877-4.143,10.581-.069.464-.318,6.877-.421,6.877-22.074,7.229-46.537-19.272-47.027-21.343S110.535,164.708,110.535,164.708Z" transform="translate(-14.345 -9.813)" fill="#161c8f"/>
    <path id="Path_8023" data-name="Path 8023" d="M110.487,164.738l5.768-9.722c6.318-4.934,21.928-16.555,21.928-16.555,4.513-5.673,16.942-18.051,16.942-18.051,8.836-6.5,41.835-24.068,44.32-24.369s11.131,1.625,12.464,1.719,5.372-2.63,5.372-2.63c11.982.989,23.7,10.813,29.294,15.068a15.068,15.068,0,0,1,5.69,10.908s.593,20.527.249,21.61-3.662,3.438-3.662,3.438.112-11.57-8.26-7.47-10.169,18.361-10.942,19.108-41.7,24.4-50.758,29.647c.086-2.579-.241-5.209-2.175-7.057-2.252-2.149-5.57-1.865-8.235-.782a14.415,14.415,0,0,0-6.687,5.3c-2.407,2.966-3.567,6.877-4.143,10.581-.069.464-.318,6.877-.421,6.877-22.074,7.229-46.537-19.272-47.027-21.343S110.487,164.738,110.487,164.738Z" transform="translate(-14.341 -9.817)" fill="#2e2e75" opacity="0.33"/>
    <path id="Path_8024" data-name="Path 8024" d="M127.913,195.192c8.252,5.235,16.736,7.53,31.117,5.613-.258,1.023-1.2,5.063-1.367,6.077-.069.464-.318,6.877-.421,6.877-22.074,7.229-46.537-19.272-47.027-21.343-.447-1.917.189-14.166.292-16.065C114.469,184.576,115.449,187.292,127.913,195.192Z" transform="translate(-14.343 -21.223)" fill="#2e2e75" opacity="0.33"/>
    <path id="Path_8025" data-name="Path 8025" d="M119.937,192.66s-.12,3.318-.06,3.378a46.271,46.271,0,0,0,12.782,7.779l.06-3.232A77.99,77.99,0,0,1,119.937,192.66Z" transform="translate(-15.719 -23.513)" fill="#d7fbff"/>
    <path id="Path_8026" data-name="Path 8026" d="M162.872,125.432c-1.719-1.642-17.02,15.378-17.982,17.673s-2.381,3.765.791,7.289,21.094,14.02,24.653,14.888,5.493,2.759,10.315-1.65,12.068-18.816,12.068-18.816S171.554,133.787,162.872,125.432Z" transform="translate(-19.071 -14.057)" fill="#a8ebef"/>
    <path id="Path_8027" data-name="Path 8027" d="M145.186,141.664s-3.387-2.862-5.673-1.831,2.759,4.891,2.759,4.891Z" transform="translate(-18.396 -16.063)" fill="#1f1971"/>
    <ellipse id="Ellipse_351" data-name="Ellipse 351" cx="14.131" cy="9.447" rx="14.131" ry="9.447" transform="matrix(0.435, -0.9, 0.9, 0.435, 211.382, 150.032)" fill="#2e2e75"/>
    <ellipse id="Ellipse_352" data-name="Ellipse 352" cx="7.685" cy="5.14" rx="7.685" ry="5.14" transform="matrix(0.435, -0.9, 0.9, 0.435, 218.996, 146.161)" fill="#ddd"/>
    <path id="Path_8028" data-name="Path 8028" d="M142.219,200.943a4.229,4.229,0,0,1-1.719-.971c-.86-.946-.266-2.175.413-3.043a4.513,4.513,0,0,1,2.639-1.607,58.627,58.627,0,0,1,6.326-1.272c1.418-.206,2.845-.378,4.3-.481a16.658,16.658,0,0,1,4.642.052c1.607.344,1.229,2.415.67,3.49a10.882,10.882,0,0,1-4.3,4.04,9.825,9.825,0,0,1-4.057,1.246,18.86,18.86,0,0,1-4.539-.352,25.025,25.025,0,0,1-3.266-.774C142.959,201.175,142.589,201.072,142.219,200.943Z" transform="translate(-18.558 -23.621)" fill="#a8ebef"/>
    <path id="Path_8029" data-name="Path 8029" d="M110.61,174.493s2.673,5.243,4.246,6.576,2.329.43,2.527-.9-.791-15.386-1.014-15.386S112.269,166.688,110.61,174.493Z" transform="translate(-14.42 -19.598)" fill="#a8ebef"/>
    <path id="Path_8030" data-name="Path 8030" d="M121.942,181.184c.473.223,1,.67,1.367.86q4,2.424,7.968,4.9l3.971,2.467c.86.542,2.8,1.195,1.943,2.484a16.838,16.838,0,0,1-3.309,3.481,1.978,1.978,0,0,1-2.647.344c-1.943-1.135-3.885-2.252-5.819-3.438-1.487-.86-3.189-1.986-3.653-3.782a33.447,33.447,0,0,1-1-5.708c-.052-.645-.163-1.986.86-1.814a1.47,1.47,0,0,1,.318.206Z" transform="translate(-15.842 -21.87)" fill="#a8ebef"/>
    <path id="Path_8031" data-name="Path 8031" d="M144.386,209.576a1.633,1.633,0,0,1,1.169,1.53c0,1.642-1.5,1.564-2.647,1.607-1.435.06-14.338-4.3-22.736-10.882s-9.842-12.163-9.842-12.163l.077-4.3s2.054,8.931,13.066,15.472a80.8,80.8,0,0,0,14.295,6.7c1.547.55,3.1,1.049,4.685,1.487a15.343,15.343,0,0,1,1.934.55Z" transform="translate(-14.381 -22.489)" fill="#a8ebef"/>
    <path id="Path_8032" data-name="Path 8032" d="M245.644,116.475l9.154.567s1.315.5.542-1.719-9.627-11.235-21.4-13.959c0,0-16.332-2.819-13.3-1.659C222.349,100.358,235.647,106.641,245.644,116.475Z" transform="translate(-29.819 -10.42)" fill="#a8ebef"/>
    <path id="Path_8033" data-name="Path 8033" d="M249.2,135.376c2.991-2.115,6.017-4.221,8.922-6.4a15.215,15.215,0,0,0-5.355-1.719,27.5,27.5,0,0,0-3.438,0Z" transform="translate(-33.882 -14.322)" fill="#a8ebef"/>
    <path id="Path_8034" data-name="Path 8034" d="M221.084,134.14a55.872,55.872,0,0,0-17.191,12.894,64.838,64.838,0,0,0-11.467,19.246,1.341,1.341,0,0,0,1.951,1.625c5.114-3.189,15.24-9.533,22.538-14.226l1.831-1.178v-.129l2.046-1.461Z" transform="translate(-25.897 -15.295)" fill="#a8ebef"/>
    <path id="Path_8035" data-name="Path 8035" d="M243.817,127.54a47.405,47.405,0,0,0-7.874,1.805c-1.848.584-3.688,1.272-5.5,2.029l-.292,15.73,12.825-9.172.653-.464Z" transform="translate(-31.207 -14.368)" fill="#a8ebef"/>
    <ellipse id="Ellipse_353" data-name="Ellipse 353" cx="14.613" cy="9.533" rx="14.613" ry="9.533" transform="matrix(0.435, -0.9, 0.9, 0.435, 139.15, 191.088)" fill="#0b096e"/>
    <ellipse id="Ellipse_354" data-name="Ellipse 354" cx="7.951" cy="5.183" rx="7.951" ry="5.183" transform="matrix(0.435, -0.9, 0.9, 0.435, 146.82, 186.986)" fill="#ddd"/>
    <path id="Path_8036" data-name="Path 8036" d="M176.752,166.693l-1.633-33.9-3.5-2.622,1.582,35.595Z" transform="translate(-22.988 -14.738)" fill="#fff"/>
    <path id="Path_8037" data-name="Path 8037" d="M162.332,126.56l2.278,35.26-6.619-3.859-.791-26.776Z" transform="translate(-20.963 -14.231)" fill="#fff"/>
    <path id="Union_27" data-name="Union 27" d="M-19479.883-16281.554a1.256,1.256,0,0,1-1.256-1.257v-9.6c-6.191-.7-12.074-3.131-11.941-10.669a43.2,43.2,0,0,1,3.076-13.986c1.986-5.406,3.385-10.934,8.336-14.466,9.658-6.9,15.107,16.569,16.336,21.9.078.342.156.689.229,1.037.611,2.813,1.67,6.2,1.053,9.069-1.027,4.79-7.285,7.368-11.668,7.368h-.094v9.349a1.256,1.256,0,0,1-1.256,1.257Z" transform="translate(19673.551 16358.021)" fill="#00b054"/>
    <path id="Path_8039" data-name="Path 8039" d="M239.256,49.417q-.112-.516-.232-1.04c-1.083-4.71-5.475-23.613-13.169-23.148,2.286,9.962,5.647,20.492,3.851,30.687a23.32,23.32,0,0,1-4.066,9.877c1.023.052,2.029.069,3,.06,4.384,0,10.642-2.579,11.664-7.367C240.923,55.615,239.875,52.228,239.256,49.417Z" transform="translate(-30.574 0)" fill="#009647"/>
    <path id="Union_28" data-name="Union 28" d="M-19484.615-16301.832a1.259,1.259,0,0,1-1.262-1.262v-5.3c-3.734-.424-7.277-1.9-7.2-6.446a25.958,25.958,0,0,1,1.838-8.448c1.2-3.269,2.045-6.609,5.035-8.743,5.836-4.168,9.139,10.024,9.877,13.238l.166.627c.367,1.692,1,3.757.637,5.474-.621,2.882-4.4,4.452-7.051,4.452h-.088v5.151a1.257,1.257,0,0,1-1.256,1.262Z" transform="translate(19654.072 16384.711)" fill="#00b054"/>
    <path id="Path_8041" data-name="Path 8041" d="M204.478,70.892l-.138-.627c-.653-2.845-3.309-14.269-7.951-13.985,1.375,6.017,3.438,12.378,2.329,18.541a14.088,14.088,0,0,1-2.458,5.965h1.814c2.647,0,6.43-1.573,7.049-4.453C205.492,74.64,204.847,72.594,204.478,70.892Z" transform="translate(-26.448 -4.361)" fill="#009647"/>
    <path id="Path_8042" data-name="Path 8042" d="M253.637,96.722l21.687-12.464-6.963-4.049L246.7,92.717Z" transform="translate(-33.531 -7.722)" fill="#a7a8a9"/>
    <path id="Path_8043" data-name="Path 8043" d="M268.967,105.842l21.687-12.455-6.963-4.057L262.03,101.837Z" transform="translate(-35.684 -9.003)" fill="#a7a8a9"/>
    <path id="Path_8044" data-name="Path 8044" d="M282.507,113.732l21.687-12.455-6.971-4.057L275.57,109.727Z" transform="translate(-37.585 -10.111)" fill="#a7a8a9"/>
    <path id="Path_8045" data-name="Path 8045" d="M297.007,122.832l21.678-12.455-6.963-4.057L290.07,118.827Z" transform="translate(-39.621 -11.388)" fill="#a7a8a9"/>
    <path id="Path_8046" data-name="Path 8046" d="M311.567,131.1l21.687-12.464-6.963-4.049L304.63,127.1Z" transform="translate(-41.666 -12.55)" fill="#a7a8a9"/>
    <path id="Path_8047" data-name="Path 8047" d="M326.707,140.7l21.687-12.455-6.963-4.057L319.77,136.7Z" transform="translate(-43.792 -13.898)" fill="#a2b3f9"/>
    <path id="Union_26" data-name="Union 26" d="M-19480.859-16285.8a1.263,1.263,0,0,1-1.264-1.262v-8.731c-5.672-.647-11.07-2.876-10.957-9.785a39.534,39.534,0,0,1,2.816-12.8c1.816-4.951,3.107-10.024,7.643-13.268,8.865-6.326,13.863,15.209,14.994,20.092.074.318.146.631.215.925.563,2.583,1.527,5.685.959,8.316-.934,4.364-6.668,6.756-10.689,6.756h-.1v8.493a1.258,1.258,0,0,1-1.258,1.262Z" transform="translate(19770.881 16433.762)" fill="#00b054"/>
    <path id="Path_8049" data-name="Path 8049" d="M349.967,135.534q-.1-.473-.215-.954c-1-4.3-5.02-21.653-12.034-21.231,2.1,9.137,5.157,18.79,3.533,28.142a21.386,21.386,0,0,1-3.731,9.051c.937.043,1.857.06,2.751.06,4.023,0,9.756-2.39,10.693-6.756C351.488,141.216,350.525,138.113,349.967,135.534Z" transform="translate(-46.284 -12.374)" fill="#009647"/>
  </g>
</svg>
