<svg xmlns="http://www.w3.org/2000/svg" width="149.997" height="149.996" viewBox="0 0 149.997 149.996">
  <g id="category_normal" transform="translate(-1316.501 -1205.004)">
    <path id="Subtraction_31" data-name="Subtraction 31" d="M-7837.5,24170a74.537,74.537,0,0,1-29.192-5.895,74.736,74.736,0,0,1-23.839-16.074,74.741,74.741,0,0,1-16.074-23.838A74.515,74.515,0,0,1-7912.5,24095a74.525,74.525,0,0,1,5.894-29.193,74.75,74.75,0,0,1,16.074-23.84,74.735,74.735,0,0,1,23.839-16.07A74.537,74.537,0,0,1-7837.5,24020a74.544,74.544,0,0,1,29.194,5.895,74.735,74.735,0,0,1,23.839,16.07,74.748,74.748,0,0,1,16.072,23.84A74.541,74.541,0,0,1-7762.5,24095a74.539,74.539,0,0,1-5.893,29.191,74.739,74.739,0,0,1-16.072,23.838,74.736,74.736,0,0,1-23.839,16.074A74.547,74.547,0,0,1-7837.5,24170Zm-15.45-59.852h30.493v7.631h7.625v-7.631h7.625v-11.574a11.318,11.318,0,0,0-8.311-10.895l-3.13-15.645v-.006h-38.112l-3.136,15.65a11.317,11.317,0,0,0-8.3,10.895v11.574h7.625v7.631h7.625v-7.631Zm34.309-7.625a3.817,3.817,0,0,1-3.815-3.811,3.817,3.817,0,0,1,3.815-3.809,3.813,3.813,0,0,1,3.809,3.809A3.814,3.814,0,0,1-7818.642,24102.523Zm-38.124,0a3.814,3.814,0,0,1-3.81-3.811,3.814,3.814,0,0,1,3.81-3.809,3.813,3.813,0,0,1,3.809,3.809A3.814,3.814,0,0,1-7856.766,24102.523Zm37.359-15.244H-7856l2.287-11.434h32.022l2.286,11.432Z" transform="translate(9229 -22815)" fill="#b9b9b9"/>
  </g>
</svg>
