<svg xmlns="http://www.w3.org/2000/svg" width="149.997" height="149.996" viewBox="0 0 149.997 149.996">
  <g id="Image_normal" transform="translate(-1316.501 -1205.004)">
    <path id="Subtraction_31" data-name="Subtraction 31" d="M-7837.5,24170a74.537,74.537,0,0,1-29.192-5.895,74.736,74.736,0,0,1-23.839-16.074,74.741,74.741,0,0,1-16.074-23.838A74.515,74.515,0,0,1-7912.5,24095a74.525,74.525,0,0,1,5.894-29.193,74.75,74.75,0,0,1,16.074-23.84,74.735,74.735,0,0,1,23.839-16.07A74.537,74.537,0,0,1-7837.5,24020a74.544,74.544,0,0,1,29.194,5.895,74.735,74.735,0,0,1,23.839,16.07,74.748,74.748,0,0,1,16.072,23.84A74.541,74.541,0,0,1-7762.5,24095a74.539,74.539,0,0,1-5.893,29.191,74.739,74.739,0,0,1-16.072,23.838,74.736,74.736,0,0,1-23.839,16.074A74.547,74.547,0,0,1-7837.5,24170Zm-7.2-73.512c-6.857,0-13.8,4.6-13.8,13.387v9.27h42.479v-9.27c0-7.758-5.806-13.387-13.806-13.387Zm6.818-25.49a10.63,10.63,0,0,0-10.615,10.621,10.628,10.628,0,0,0,10.615,10.617,10.631,10.631,0,0,0,10.622-10.617A10.633,10.633,0,0,0-7837.883,24071Z" transform="translate(9229 -22815)" fill="#b9b9b9"/>
  </g>
</svg>
