<svg id="Login_icon" xmlns="http://www.w3.org/2000/svg" width="52" height="52" viewBox="0 0 52 52">
  <path id="Path_6992" data-name="Path 6992" d="M1315.277,546.188a16.727,16.727,0,0,0-16.589,16.575c0,1.51,0,3.771.758,5.274l-20.353,20.353v9.8h9.046v-6.033h6.04v-6.026l6.026.752,8.287-9.039c2.261.745,3.765.745,6.012,1.5a16.724,16.724,0,0,0,16.589-16.582c0-9.046-6.784-16.575-15.817-16.575m0,19.595a4.523,4.523,0,1,1,0-9.046c3.006,0,5.268,2.261,5.268,4.523,0,3.013-2.261,4.523-5.268,4.523m4.509-2.261h0" transform="translate(-1279.094 -546.188)" fill="#fff" fill-rule="evenodd"/>
</svg>
