<svg xmlns="http://www.w3.org/2000/svg" xmlns:xlink="http://www.w3.org/1999/xlink" width="313.902" height="300.037" viewBox="0 0 313.902 300.037">
  <defs>
    <filter id="Path_8149" x="11.051" y="0" width="302.851" height="214.189" filterUnits="userSpaceOnUse">
      <feOffset dy="3" input="SourceAlpha"/>
      <feGaussianBlur stdDeviation="3" result="blur"/>
      <feFlood flood-opacity="0.161"/>
      <feComposite operator="in" in2="blur"/>
      <feComposite in="SourceGraphic"/>
    </filter>
    <linearGradient id="linear-gradient" x1="2.587" y1="3.116" x2="3.587" y2="3.116" gradientUnits="objectBoundingBox">
      <stop offset="0" stop-color="#ecc4d7"/>
      <stop offset="0.42" stop-color="#efd4d1"/>
      <stop offset="1" stop-color="#f2eac9"/>
    </linearGradient>
    <linearGradient id="linear-gradient-2" x1="-0.6" y1="-2.131" x2="2.53" y2="-0.429" gradientUnits="objectBoundingBox">
      <stop offset="0" stop-opacity="0"/>
      <stop offset="0.91" stop-opacity="0.8"/>
      <stop offset="1"/>
    </linearGradient>
    <linearGradient id="linear-gradient-3" x1="12.923" y1="1.845" x2="13.919" y2="1.845" xlink:href="#linear-gradient"/>
  </defs>
  <g id="Search_notfound" transform="translate(-791.478 -935.506)">
    <g id="search_engine" transform="translate(741.002 815.506)">
      <path id="Path_8146" data-name="Path 8146" d="M53.576,574.636c-15.606,7.553,31.913,11.958,49.19,10.85l75.853-4.843c3.279-.206,11.983-.3,9.43-2.378C174.983,567.627,74.169,564.661,53.576,574.636Z" transform="translate(0 -165.618)" fill="#161c8f" opacity="0.18"/>
      <g transform="matrix(1, 0, 0, 1, 50.48, 120)" filter="url(#Path_8149)">
        <path id="Path_8149-2" data-name="Path 8149" d="M367.371,138.565V309.624a12.565,12.565,0,0,1-12.565,12.565H95.122a12.565,12.565,0,0,1-12.6-12.515V138.565A12.571,12.571,0,0,1,95.085,126H354.8a12.565,12.565,0,0,1,12.571,12.559h0Z" transform="translate(-62.47 -120)" fill="#fff"/>
      </g>
      <path id="Path_8150" data-name="Path 8150" d="M140.969,479.512c-.519,3.348-19.936,38.658-19.936,38.658a10.9,10.9,0,0,1,7.74,5.156H111.19l13.91-43.8s.626-20.937-3.022-32.282c-2.4-7.565-2.259-16.332-1.877-21.338.181-2.5.413-4.055.413-4.055l25.95,11.726S141.488,476.177,140.969,479.512Z" transform="translate(-22.723 -110.724)" fill="#25233a"/>
      <path id="Path_8151" data-name="Path 8151" d="M178.127,524.184H160.312v-.094L157.1,478.048S142.04,459.7,133.28,446.316s-7.259-22.226-7.259-22.226h23.966c1.214.488,2.853,5.244,3.911,7.628,4.462,10.112,14.586,31.031,15.475,35.042,2.847,12.671-1.045,50.754-1.045,50.754C173.747,518,178.127,524.184,178.127,524.184Z" transform="translate(-28.237 -111.562)" fill="#3f3d56"/>
      <path id="Path_8152" data-name="Path 8152" d="M327.939,273.189H137.55V256.35H327.939Zm-189.763-.626H327.313V256.976H138.176Z" transform="translate(-32.588 -48.784)" fill="#161c8f"/>
      <rect id="Rectangle_2685" data-name="Rectangle 2685" width="25.092" height="16.832" transform="translate(295.344 207.572)" fill="#161c8f"/>
      <circle id="Ellipse_369" data-name="Ellipse 369" cx="4.255" cy="4.255" r="4.255" transform="translate(302.29 210.857)" fill="none" stroke="#fff" stroke-miterlimit="10" stroke-width="0.73"/>
      <rect id="Rectangle_2686" data-name="Rectangle 2686" width="1.345" height="5.544" transform="matrix(0.6, -0.8, 0.8, 0.6, 309.285, 218.255)" fill="#fff"/>
      <path id="Subtraction_31" data-name="Subtraction 31" d="M284.856,16.708H0V12.565A12.571,12.571,0,0,1,12.57,0H272.292a12.565,12.565,0,0,1,12.564,12.559v4.149ZM27,6.583A2.666,2.666,0,1,0,29.668,9.25V9.235a2.665,2.665,0,0,0-2.656-2.652Zm-7.66,0A2.666,2.666,0,1,0,22.009,9.25V9.235a2.662,2.662,0,0,0-2.656-2.652Zm-7.666,0A2.666,2.666,0,1,0,14.343,9.25V9.235a2.664,2.664,0,0,0-2.657-2.652Z" transform="translate(70.521 126)" fill="#161c8f"/>
      <path id="Path_8157" data-name="Path 8157" d="M125.244,363.4l-5.832,10.444a19.555,19.555,0,0,1-2.2-1.8c-4.537-4.174-13.766-15.594-4.856-33.659,0,0,4.1-11.169,6.4-15.95a7.172,7.172,0,0,1,1.251-2.09C121.371,319.406,125.244,363.4,125.244,363.4Z" transform="translate(-21.759 -72.732)" fill="#161c8f"/>
      <ellipse id="Ellipse_370" data-name="Ellipse 370" cx="5.97" cy="11.827" rx="5.97" ry="11.827" transform="translate(111.66 212.875) rotate(-34.83)" fill="none" stroke="#3f3d56" stroke-miterlimit="10" stroke-width="2"/>
      <path id="Path_8158" data-name="Path 8158" d="M176.5,290.661l3.592,4.968,1.89-1.414-3.636-4.656Z" transform="translate(-47.165 -61.213)" fill="#3f3d56"/>
      <rect id="Rectangle_2687" data-name="Rectangle 2687" width="3.535" height="16.344" transform="translate(129.852 231.523) rotate(-40.03)" fill="#091240"/>
      <path id="Path_8159" data-name="Path 8159" d="M145.711,259.99s1.633,3.754,3.01,7.753c.363,1.032,2.4,1.69,2.691,2.7.576,1.99-.951,2.616-1.026,3.754-.257,3.867,1.158,8.078-5.35,10.444-5.769,2.1-3.442,11.514-3.442,11.514s-7.39,3.266-10.638-.857c0,0,1.208-12.377-3.948-23.034S135.824,249.847,145.711,259.99Z" transform="translate(-28.228 -48.695)" fill="url(#linear-gradient)"/>
      <path id="Path_8160" data-name="Path 8160" d="M132.52,314.064l.626-3.054s10.231.563,11.263,1.527a9.305,9.305,0,0,1,1.721,2.428Z" transform="translate(-30.705 -69.241)" fill="#25233a"/>
      <path id="Path_8161" data-name="Path 8161" d="M148.584,383.38H126.871c-3.379-.106-4.781-.713-4.693-4.049.163-6.088,0-48.1,1.633-57.568.995-5.826,5.269-6.952,6.214-7.133h.175s6.47.557,9.155.519c2.86-.044,6.358,4.149,6.358,4.149s2.228,8.629,4.218,15.969c.97,3.592,1.877,6.883,2.453,8.692,1.2,3.836,2.572,21.513,3.3,31.857a7.108,7.108,0,0,1-6.62,7.553h0Z" transform="translate(-26.833 -70.596)" fill="#161c8f"/>
      <path id="Path_8162" data-name="Path 8162" d="M159.14,394.043h-6.257l-2.5-50.923,10.106,2.778c.97,3.592,1.877,6.883,2.453,8.692,1.2,3.836,2.572,21.513,3.3,31.857a7.1,7.1,0,0,1-6.577,7.578h0Z" transform="translate(-37.39 -81.259)" fill="url(#linear-gradient-2)"/>
      <path id="Path_8163" data-name="Path 8163" d="M142.781,256.823l-2.422-.263a5.006,5.006,0,0,1-2.165,3.848,3.023,3.023,0,0,0-1.251-1.126c-.889,1.033.15,2.566.169,3.917a7.165,7.165,0,0,1-.388,1.877,9.806,9.806,0,0,0-.188,4.155c-.914-.069-1.345-1.3-2.234-1.477s-1.483.626-1.7,1.4a3.579,3.579,0,0,0,2.659,4.3h.125c.206.031.451.063.563.238a.682.682,0,0,1,.063.4,16.031,16.031,0,0,1-.914,5.119A6.79,6.79,0,0,1,131.7,283c-1.1.482-2.628.444-3.229-.626.094.557-.582,1-1.139.882a2.259,2.259,0,0,1-1.251-1.051c-1.752-2.553-2.2-5.738-3.229-8.66-.895-2.553-2.246-4.925-3.285-7.428a15.017,15.017,0,0,1-1.383-7.9,9.837,9.837,0,0,1,7.584-7.966,9.736,9.736,0,0,0,2.1-.513,20.181,20.181,0,0,0,1.7-1.1,9.318,9.318,0,0,1,3.754-.939,22.153,22.153,0,0,1,4.074.081c5.006.382,4.812,5.15,5.175,6.176C142.6,254.226,143.056,256.854,142.781,256.823Z" transform="translate(-25.298 -45.528)" fill="#3f3d56"/>
      <path id="Path_8164" data-name="Path 8164" d="M182.316,291.372a3.816,3.816,0,0,1,.344-1.389,1.252,1.252,0,0,1,1.158-.713c.626.069.976.67,1.251,1.208.4.763.795,1.527,1.189,2.3.907-.419,1.94.307,2.5,1.139a9,9,0,0,0,1.677,2.434,2.831,2.831,0,0,1,.663.557,1.8,1.8,0,0,1,.181,1.2l-.131,1.614a4.446,4.446,0,0,1-.976,2.947,4.505,4.505,0,0,1-2.5.939,7.377,7.377,0,0,1-2.4.094,6.846,6.846,0,0,1-2.941-1.621c-1.208-.976-4.505-4.167-2.347-5.438.838-.494,1.3.075,1.877-.9S182.228,292.467,182.316,291.372Z" transform="translate(-48.2 -61.105)" fill="url(#linear-gradient-3)"/>
      <path id="Path_8165" data-name="Path 8165" d="M177.834,333.319c-1.7,7.509-7,11.889-12.333,12.809a11.207,11.207,0,0,1-7.108-.995c-6.758-3.492-13.973-21.851-13.61-27.658.175-2.778,1.364-4.074,3.016-4.1,1.8-.044,4.161,1.427,6.358,4.13s4,6.339,5.832,9.048a13.361,13.361,0,0,0,2.29,2.741,3.962,3.962,0,0,0,1.877.957,3.367,3.367,0,0,0,2.609-.832c5.006-3.873,2.991-19.041,2.991-19.041l2.584-.15,5.294-.313S180.318,322.293,177.834,333.319Z" transform="translate(-35.29 -68.83)" fill="#161c8f"/>
      <path id="Path_8166" data-name="Path 8166" d="M260.938,223.075h-3.054V222.1a1.713,1.713,0,0,0-.117-.827.409.409,0,0,0-.389-.175.486.486,0,0,0-.447.233,1.448,1.448,0,0,0-.146.729,2.237,2.237,0,0,0,.165.972,2.587,2.587,0,0,0,.973.768,9.2,9.2,0,0,1,2.733,2.11,4.911,4.911,0,0,1,.564,2.674,4.6,4.6,0,0,1-.311,1.945,2.441,2.441,0,0,1-1.206,1.07,5,5,0,0,1-2.091.428,4.668,4.668,0,0,1-2.227-.5,2.48,2.48,0,0,1-1.216-1.264,6.553,6.553,0,0,1-.282-2.169v-.817h3.024V228.8a1.946,1.946,0,0,0,.126.9.477.477,0,0,0,.447.2.545.545,0,0,0,.486-.253,1.459,1.459,0,0,0,.156-.759,2.353,2.353,0,0,0-.3-1.449,9.651,9.651,0,0,0-1.517-1.138,13.514,13.514,0,0,1-1.6-1.167,2.664,2.664,0,0,1-.661-.972,5.942,5.942,0,0,1,.107-3.744,2.518,2.518,0,0,1,1.186-1.04,4.863,4.863,0,0,1,1.945-.37,5.143,5.143,0,0,1,2.159.408,2.285,2.285,0,0,1,1.186,1.031,5.551,5.551,0,0,1,.292,2.11Z" transform="translate(-85.021 -42.781)" fill="#161c8f"/>
      <path id="Path_8167" data-name="Path 8167" d="M271.07,219.3H276.5v2.5h-2.168v2.373h2.032v2.383h-2.032v2.752h2.383v2.509h-5.64Z" transform="translate(-85.498 -42.79)" fill="#161c8f"/>
      <path id="Path_8168" data-name="Path 8168" d="M292.05,219.3l1.857,12.515h-3.326l-.175-2.256h-1.167l-.194,2.256H285.68l1.663-12.515Zm-1.731,8.042q-.253-2.13-.5-5.251-.5,3.588-.622,5.251Z" transform="translate(-85.902 -42.79)" fill="#161c8f"/>
      <path id="Path_8169" data-name="Path 8169" d="M303.32,219.3h2.3a18.483,18.483,0,0,1,3.112.175,2.13,2.13,0,0,1,1.332.9,4.163,4.163,0,0,1,.515,2.334,3.725,3.725,0,0,1-.36,1.945,1.945,1.945,0,0,1-1.4.622,2.47,2.47,0,0,1,1.3.642,1.994,1.994,0,0,1,.418.739,13.047,13.047,0,0,1,.078,1.848v3.306H307.56v-4.162a2.858,2.858,0,0,0-.156-1.245c-.107-.156-.389-.243-.836-.243v5.65H303.32Zm3.248,2.139v2.781a1.508,1.508,0,0,0,.768-.146c.156-.107.224-.428.224-.972v-.739a.973.973,0,0,0-.214-.778A1.2,1.2,0,0,0,306.568,221.439Z" transform="translate(-86.387 -42.79)" fill="#161c8f"/>
      <path id="Path_8170" data-name="Path 8170" d="M328.293,224.738h-3.258V222.56a3.664,3.664,0,0,0-.107-1.177.447.447,0,0,0-.457-.233.5.5,0,0,0-.515.282,4.779,4.779,0,0,0-.107,1.235V228.5a4.474,4.474,0,0,0,.058,1.2.477.477,0,0,0,.486.282.457.457,0,0,0,.486-.282,4.268,4.268,0,0,0,.117-1.313v-1.6h3.258v.486a9.363,9.363,0,0,1-.282,2.752,2.761,2.761,0,0,1-1.148,1.429,4.171,4.171,0,0,1-2.324.613,4.717,4.717,0,0,1-2.353-.525,2.441,2.441,0,0,1-1.225-1.429,9.384,9.384,0,0,1-.3-2.752V223.7a17.683,17.683,0,0,1,.088-2.032,2.918,2.918,0,0,1,.554-1.3,3.063,3.063,0,0,1,1.274-.972,5.222,5.222,0,0,1,4.25.195,2.655,2.655,0,0,1,1.225,1.381,8.277,8.277,0,0,1,.3,2.587Z" transform="translate(-86.862 -42.783)" fill="#161c8f"/>
      <path id="Path_8171" data-name="Path 8171" d="M345.788,219.3v12.515H342.53v-5.261h-.972v5.261H338.3V219.3h3.258v4.473h.972V219.3Z" transform="translate(-87.351 -42.79)" fill="#161c8f"/>
      <path id="Path_8172" data-name="Path 8172" d="M126.112,382.381a7.787,7.787,0,0,1,.788.964c-3.379-.1-4.781-.707-4.693-4.042.163-6.088,0-48.1,1.633-57.568.995-5.826,5.269-6.952,6.214-7.133h.156a19.279,19.279,0,0,0-4.086,9.324C125.386,329.418,124.373,380.553,126.112,382.381Z" transform="translate(-26.845 -70.585)" fill="#fff" opacity="0.24"/>
      <path id="Path_8173" data-name="Path 8173" d="M165.5,348.2a11.207,11.207,0,0,1-7.108-.995c-6.758-3.492-13.973-21.851-13.61-27.658.175-2.778,1.364-4.074,3.016-4.1,0,.626-2.709,7.409,5.45,21.826C158.755,347,164.055,347.409,165.5,348.2Z" transform="translate(-35.29 -70.899)" fill="#fff" opacity="0.24"/>
      <path id="Path_8174" data-name="Path 8174" d="M171.38,339.241a6.3,6.3,0,0,1-2.29-2.741,13.36,13.36,0,0,0,2.29,2.741Z" transform="translate(-44.392 -78.781)" fill="#fff"/>
      <path id="Path_8175" data-name="Path 8175" d="M175.76,330.474a3.366,3.366,0,0,0,2.609-.832c5.006-3.873,2.991-19.041,2.991-19.041l2.584-.15S186.485,334.441,175.76,330.474Z" transform="translate(-46.888 -69.032)" fill="#fff" opacity="0.24"/>
      <path id="Path_8176" data-name="Path 8176" d="M111.186,354.838c-1.3,8.26,6.063,15.694,6.063,15.694v2.8c-4.537-4.174-13.766-15.594-4.856-33.659,0,0,4.1-11.169,6.4-15.95v1.427S112.494,346.6,111.186,354.838Z" transform="translate(-21.774 -73.998)" fill="#fff" opacity="0.24"/>
      <path id="Path_8177" data-name="Path 8177" d="M161.139,524.184a9.66,9.66,0,0,0,.275,1.94l-1.032-1.94-.05-.094-3.216-46.042S142.06,459.7,133.3,446.316s-7.259-22.226-7.259-22.226h1.746a4.008,4.008,0,0,1,.532.231s1.733,15.813,28.916,49.809c0,0,5.356,4.931,4.124,23.622C160.245,514.341,160.9,521.306,161.139,524.184Z" transform="translate(-28.244 -111.562)" fill="#fff" opacity="0.24"/>
      <path id="Path_8178" data-name="Path 8178" d="M127.835,483.707l-14.492,42.075H111.19l13.91-43.8s.626-20.937-3.022-32.282c-2.4-7.565-2.259-16.332-1.877-21.338l2.591,10.012a72.773,72.773,0,0,0,3.285,16.207C128.8,462.551,127.835,483.707,127.835,483.707Z" transform="translate(-22.723 -113.16)" fill="#fff" opacity="0.24"/>
      <rect id="Rectangle_2948" data-name="Rectangle 2948" width="49" height="7" rx="3.5" transform="translate(281.998 324.494)" fill="#c6c6c6"/>
      <g id="Group_5956" data-name="Group 5956" transform="translate(281.465 278.306)">
        <path id="Path_7099" data-name="Path 7099" d="M1328.813,1154.371l-22.1-38.939a2.751,2.751,0,0,0-5.1,0l-22.1,38.939c-.567,1.719.566,4.583,2.833,4.583h44.2c1.7,0,3.4-2.863,2.266-4.583m-27.766-29.777h6.8V1141.2h-6.8Zm3.4,26.915a3.436,3.436,0,0,1,0-6.872,3.436,3.436,0,0,1,0,6.872" transform="translate(-1279.371 -1113.714)" fill="#171c8e" fill-rule="evenodd"/>
      </g>
    </g>
  </g>
</svg>
