<svg xmlns="http://www.w3.org/2000/svg" width="39.623" height="39.523" viewBox="0 0 39.623 39.523"><defs><style>.a{fill:#171c8f;}</style></defs><path class="a" d="M39.464,2.695A3.944,3.944,0,0,0,36.076,0H3.441C3.2.1,2.933.059,2.688.145A4.124,4.124,0,0,0,0,3.9Q0,14.686,0,25.468a3.9,3.9,0,0,0,1.513,3.118,4.608,4.608,0,0,0,3.1.984q6.727,0,13.448-.007a1.614,1.614,0,0,1,1.09.39c3.765,3.084,7.523,6.189,11.294,9.26.172.139.343.4.581.277.211-.112.119-.4.119-.608.007-2.926,0-5.852.007-8.771,0-.159-.053-.337.092-.476a1.03,1.03,0,0,1,.528-.066c1.427-.04,2.853.066,4.28-.079a4.012,4.012,0,0,0,3.54-3.732.144.144,0,0,0,.033-.02V3.547C39.537,3.276,39.576,2.972,39.464,2.695ZM37.152,25.085a1.693,1.693,0,0,1-1.9,1.876c-2.1,0-4.2.007-6.3-.007-.3,0-.383.073-.383.383.013,2.193.007,4.379.007,6.572v.449c-2.952-2.417-5.832-4.775-8.7-7.146a1.067,1.067,0,0,0-.733-.251q-7.361.01-14.729.007a1.7,1.7,0,0,1-1.9-1.909q0-10.343-.013-20.686A1.808,1.808,0,0,1,4.419,2.464c10.284.026,20.568.013,30.851.013a1.685,1.685,0,0,1,1.876,1.889Q37.156,14.719,37.152,25.085Z" transform="translate(0)"/><path class="a" d="M222.024,166.763a2.56,2.56,0,0,0-1.592-2.437,2.736,2.736,0,0,0-2.913.568c-.185.159-.383.3-.555.429-.865-1.651-3.335-1.532-4.432.02a2.638,2.638,0,0,1-.112-.793c-.026-.172-.092-.238-.271-.238q-.773.02-1.546,0c-.192-.007-.244.073-.231.251.026.4.053.8.053,1.2.007,1.975.013,3.943.007,5.918,0,.251.033.363.324.35.568-.026,1.136-.02,1.7,0,.264.013.31-.079.31-.324-.013-1.38-.007-2.761-.007-4.135a1.557,1.557,0,0,1,.489-1.215,1.012,1.012,0,0,1,1.671.4,2.488,2.488,0,0,1,.159.9c0,1.341.007,2.682-.007,4.022,0,.258.04.363.324.35.568-.026,1.136-.02,1.7,0,.258.007.317-.073.31-.324-.013-1.314-.007-2.629,0-3.943a3.812,3.812,0,0,1,.066-.727,1.194,1.194,0,0,1,1.149-.964c.515,0,.865.317,1.024.925a3.911,3.911,0,0,1,.086,1.037c.007,1.222.007,2.45-.007,3.672,0,.251.059.33.317.324.594-.02,1.182-.013,1.777-.007.172,0,.258-.033.251-.231C222.057,170.112,222.163,168.434,222.024,166.763Z" transform="translate(-196.476 -153.289)"/><path class="a" d="M106.182,167.8c-.515-.3-1.1-.429-1.631-.694-.284-.145-.568-.31-.482-.694s.39-.482.733-.5a2.916,2.916,0,0,1,1.532.3c.271.139.343.046.4-.2a8.6,8.6,0,0,1,.258-1c.1-.277-.007-.383-.258-.462a5.8,5.8,0,0,0-2.014-.291,3.461,3.461,0,0,0-2.087.694,2.152,2.152,0,0,0,.066,3.527,4.656,4.656,0,0,0,1.275.621,3.537,3.537,0,0,1,.812.357.6.6,0,0,1,.277.627.534.534,0,0,1-.423.449,2.112,2.112,0,0,1-.839.073,5.423,5.423,0,0,1-1.81-.555c-.119.489-.218.971-.363,1.44-.073.238.007.317.2.4a5.817,5.817,0,0,0,3.712.2,2.362,2.362,0,0,0,1.744-1.546A2.245,2.245,0,0,0,106.182,167.8Z" transform="translate(-94.888 -153.392)"/><path class="a" d="M414.521,167.764c-.449-.2-.9-.357-1.354-.555a.558.558,0,0,1-.39-.667.632.632,0,0,1,.634-.469,2.976,2.976,0,0,1,1.4.192c.535.192.535.192.674-.357.3-1.222.31-1.242-.951-1.433a4.107,4.107,0,0,0-3.078.535,2.167,2.167,0,0,0,.04,3.686,4.708,4.708,0,0,0,1,.489c.264.092.528.192.786.31.3.132.535.337.482.707s-.33.489-.661.535a4.315,4.315,0,0,1-2.417-.535c-.126.489-.231.951-.363,1.407-.066.231-.013.343.218.429a5.835,5.835,0,0,0,3.672.2,2.307,2.307,0,0,0,1.8-1.724A2.258,2.258,0,0,0,414.521,167.764Z" transform="translate(-383.201 -153.537)"/></svg>