<svg id="carIcon" xmlns="http://www.w3.org/2000/svg" width="60" height="45.428" viewBox="0 0 60 45.428">
  <path id="Path_6830" data-name="Path 6830" d="M462.59,196.055H449.781l-3.371,15.6a10.982,10.982,0,0,0-8.09,10.847v10.849h7.416v8.137h7.416v-8.137h30.337v8.137H490.9v-8.137h7.416V222.5a10.982,10.982,0,0,0-8.09-10.847l-3.371-15.6H474.051m12.808,22.375A4.362,4.362,0,0,1,490.9,222.5c0,2.035-2.023,3.39-4.045,3.39a3.193,3.193,0,0,1-3.371-3.39c0-2.033,1.348-4.068,3.371-4.068m-2.7-18.985,2.023,11.527h-35.73l2.022-11.527Zm-34.382,26.442c-2.022,0-4.045-1.355-4.045-3.39a4.362,4.362,0,0,1,4.045-4.068c2.023,0,3.371,2.034,3.371,4.068a3.193,3.193,0,0,1-3.371,3.39" transform="translate(-438.32 -196.055)" fill="#fff" fill-rule="evenodd"/>
</svg>
