<svg id="wifi" xmlns="http://www.w3.org/2000/svg" width="36.269" height="29.534" viewBox="0 0 36.269 29.534">
  <path id="Path_7054" data-name="Path 7054" d="M727.5,1116.733l3.049,3.325a16.113,16.113,0,0,1,6.861,0l3.43-3.325a22.863,22.863,0,0,0-6.86-1.478,18.43,18.43,0,0,0-6.479,1.478" transform="translate(-715.778 -1099.283)" fill="#171c8e" fill-rule="evenodd"/>
  <path id="Path_7055" data-name="Path 7055" d="M715.154,1103.681l3.345,3.083a18.358,18.358,0,0,1,17.841,0l3.345-3.083a21.445,21.445,0,0,0-24.53,0" transform="translate(-709.285 -1091.61)" fill="#171c8e" fill-rule="evenodd"/>
  <path id="Path_7056" data-name="Path 7056" d="M721.974,1088.172a23.44,23.44,0,0,1,14.734,4.8l3.4-3.2a28.882,28.882,0,0,0-36.269,0l3.4,3.2a23.44,23.44,0,0,1,14.734-4.8" transform="translate(-703.84 -1083.37)" fill="#171c8e" fill-rule="evenodd"/>
  <path id="Path_7057" data-name="Path 7057" d="M734.7,1134.381a2.668,2.668,0,1,1,2.668,2.668,2.668,2.668,0,0,1-2.668-2.668" transform="translate(-719.23 -1107.515)" fill="#171c8e" fill-rule="evenodd"/>
</svg>
