<?xml version="1.0" encoding="utf-8"?><!DOCTYPE svg PUBLIC "-//W3C//DTD SVG 1.1//EN" "http://www.w3.org/Graphics/SVG/1.1/DTD/svg11.dtd"><svg viewBox="0 0 62 50" xmlns="http://www.w3.org/2000/svg" xmlns:xlink="http://www.w3.org/1999/xlink"><style>:root>svg{display:none}:root>svg:target{display:block}</style><svg viewBox="0 0 40 50" id="address-add" xmlns="http://www.w3.org/2000/svg"><path fill="#A9AAAC" d="M14.3 26.8c0-1 .8-1.8 1.9-1.8h2.3v-2.2c0-1 .8-1.8 1.9-1.8h.3c1 0 1.9.8 1.9 1.8V25h2.3c1 0 1.9.8 1.9 1.8s-.8 1.8-1.9 1.8h-2.3v2.2c0 1-.8 1.8-1.9 1.8h-.3c-1 0-1.9-.8-1.9-1.8v-2.2h-2.3c-1.1.1-1.9-.7-1.9-1.8zm25.5 21L33 37.3c-.4-.7-1.3-.9-2-.4-.7.4-.9 1.3-.5 2l.3-.2.1-.1-.4.2 5.4 8.2H4.2l5.6-8.2c.5-.7.3-1.6-.4-2l-.3.4.2-.4c-.7-.4-1.6-.3-2 .4L.2 47.8c-.3.4-.3 1-.1 1.5.3.4.8.7 1.4.7h37c.5 0 1-.3 1.3-.7l-.4-.2h-.1l.4.2c.4-.5.4-1.1.1-1.5zM9 33.7c-1.1-2.2-2-4.7-2-6.9 0-7 5.9-12.8 13.2-12.8s13.2 5.8 13.2 12.8c0 2.1-.9 4.5-2.1 6.6-1.1 2.2-2.6 4.2-3.6 5.5-1.4 1.8-2.9 3.5-4.2 4.8-2 1.9-3 2.3-3.8 2.3s-1.7-.4-3.6-2.4l.4-.3-.5.5c-1.2-1.3-2.6-3-3.9-4.9-.7-1-2-3-3.1-5.2zm.9-6.9c0 1.4.5 3 1.3 4.8s1.9 3.6 3.1 5.3 2.4 3.2 3.4 4.4c.5.6 1 1 1.4 1.4.3.2.5.4.6.5.2-.1.4-.3.7-.5.4-.4.9-.8 1.5-1.4 1.1-1.2 2.5-2.7 3.7-4.4 1.3-1.7 2.5-3.5 3.4-5.3s1.4-3.4 1.4-4.8c0-5.5-4.6-10-10.2-10-5.7.1-10.3 4.6-10.3 10z"/></svg><svg viewBox="0 0 40 50" id="address-add_primary" xmlns="http://www.w3.org/2000/svg"><path fill="#1B0E92" d="M.1 48.4s-.2.8 0 1c.1.3.8.6.8.6H39c.4 0 .7-.2.9-.5s.2-.7 0-1l-7-11.3c0-.1-.1-.1-.1-.2-.3-.3-.6-.4-1-.3h-3c-.2.2-.3.4-.5.6-1.4 1.9-2.9 3.8-4.3 5.2-2.1 2.1-3 2.4-3.5 2.4-.6 0-1.4-.3-3.4-2.4-1.3-1.4-2.7-3.2-4-5.2-.1-.2-.3-.4-.4-.6H8.2c-.3 0-.7.2-.8.5L.1 48.4M20.8 14c-6.1 0-11 5.1-11 11.3 0 6.3 8.8 17.5 10.5 18.2 2-.8 11.5-11.9 11.5-18.2.1-6.2-4.9-11.3-11-11.3zm4.6 13.7h-2.9v2.9c0 .8-.6 1.4-1.4 1.4h-.3c-.8 0-1.4-.6-1.4-1.4v-2.9h-2.9c-.8 0-1.4-.6-1.4-1.4 0-.8.6-1.4 1.4-1.4h2.9v-3c0-.8.6-1.4 1.4-1.4h.3c.8 0 1.4.6 1.4 1.4v2.9h2.9c.8 0 1.4.6 1.4 1.4 0 .9-.6 1.5-1.4 1.5z"/></svg><svg viewBox="0 0 24 24" id="alert" xmlns="http://www.w3.org/2000/svg"><path fill="#F62400" d="M12.1 0h-.2C5.3 0 0 5.3 0 11.9v.2C0 18.7 5.3 24 11.9 24h.2C18.7 24 24 18.7 24 12.1v-.2C24 5.3 18.7 0 12.1 0zm1.4 19h-3V9h3v10zm0-13.5c0 .8-.7 1.5-1.5 1.5s-1.5-.7-1.5-1.5S11.2 4 12 4s1.5.7 1.5 1.5z"/><path fill="#FFF" d="M12 4c-.9 0-1.5.7-1.5 1.5S11.2 7 12 7s1.5-.7 1.5-1.5S12.8 4 12 4zM10.5 9h3v10h-3z"/></svg><svg viewBox="0 0 16 16" id="arrow-down" xmlns="http://www.w3.org/2000/svg"><path fill="none" d="M13.3 3H2.7L8 9.7z"/><path fill="#333" d="M8 13l8-10h-2.7L8 9.7 2.7 3H0z"/></svg><svg viewBox="0 0 16 16" id="arrow-down-white" xmlns="http://www.w3.org/2000/svg"><path fill="none" d="M13.3 3H2.7L8 9.7z"/><path class="aenoblind" fill="#FFF" d="M8 13l8-10h-2.7L8 9.7 2.7 3H0z"/></svg><svg viewBox="0 0 18 18" id="arrow-down-wide-white" xmlns="http://www.w3.org/2000/svg"><path fill="none" d="M13.3 3H2.7L8 9.7z"/><path fill="#FFF" d="M9 14l9-10h-2l-7 8-7-8H0z"/></svg><svg viewBox="0 0 16 16" id="arrow-left" xmlns="http://www.w3.org/2000/svg"><path fill="none" d="M13 13.3V2.7L6.3 8z"/><path fill="#333" d="M3 8l10 8v-2.7L6.3 8 13 2.7V0z"/></svg><svg viewBox="0 0 4 8" id="arrow-left-rounded_white" xmlns="http://www.w3.org/2000/svg"><path fill="#FFF" d="M.1 3.5l3-3.4c.2-.1.5-.1.8 0 .1.2.1.6 0 .8L1.2 4l2.6 3.1c.2.2.2.6 0 .8s-.5.1-.7-.2l-3-3.4c-.1-.2-.1-.5 0-.8z"/></svg><svg viewBox="0 0 16 16" id="arrow-left-white" xmlns="http://www.w3.org/2000/svg"><path fill="none" d="M13.3 3H2.7L8 9.7z"/><path fill="#FFF" d="M3 8l10 8v-2.7L6.3 8 13 2.7V0z"/></svg><svg viewBox="0 0 16 16" id="arrow-right" xmlns="http://www.w3.org/2000/svg"><path fill="none" d="M3 2.7v10.6L9.7 8z"/><path fill="#333" d="M13 8L3 0v2.7L9.7 8 3 13.3V16z"/></svg><svg viewBox="0 0 16 16" id="arrow-right-white" xmlns="http://www.w3.org/2000/svg"><path fill="none" d="M13.3 3H2.7L8 9.7z"/><path class="aknoblind" fill="#FFF" d="M13 8L3 0v2.7L9.7 8 3 13.3V16z"/></svg><svg viewBox="0 0 17 18" id="arrow-right_back" xmlns="http://www.w3.org/2000/svg"><title>Rectangle 7</title><desc>Created using Figma</desc><g transform="translate(-3827 -778)"><mask id="alb"><use xlink:href="#ala" fill="#fff" transform="scale(1 -1) rotate(-45 963.507 -5013.096)"/></mask><g mask="url(#alb)"><use xlink:href="#alc" transform="scale(1 -1) rotate(-45 963.507 -5013.096)" fill="#333"/></g></g><defs><path id="ala" fill-rule="evenodd" d="M12 0v12H0"/><path id="alc" d="M14 0a2 2 0 1 0-4 0h4zm-2 12v2a2 2 0 0 0 2-2h-2zM0 10a2 2 0 1 0 0 4v-4zM10 0v12h4V0h-4zm2 10H0v4h12v-4z"/></defs></svg><svg viewBox="0 0 4 8" id="arrow-rigth-rounded_white" xmlns="http://www.w3.org/2000/svg"><path fill="#FFF" d="M3.9 4.3l-3 3.4c-.2.3-.5.4-.7.2s-.2-.6 0-.8L2.8 4 .1.9C0 .7 0 .3.1.1c.3-.1.6-.1.8 0l3 3.4c.1.3.1.6 0 .8z"/></svg><svg viewBox="0 0 16 16" id="arrow-top" xmlns="http://www.w3.org/2000/svg"><path fill="none" d="M2.7 13h10.6L8 6.3z"/><path fill="#333" d="M8 3L0 13h2.7L8 6.3l5.3 6.7H16z"/></svg><svg viewBox="0 0 16 16" id="arrow-top_white" xmlns="http://www.w3.org/2000/svg"><path fill="none" d="M13.3 3H2.7L8 9.7z"/><path fill="#FFF" d="M8 3L0 13h2.7L8 6.3l5.3 6.7H16z"/></svg><svg viewBox="0 0 24 26" id="calendar" xmlns="http://www.w3.org/2000/svg"><path fill="#1B0E92" d="M22.8 2.3h-4.3V1.1C18.5.5 18 0 17.3 0c-.6 0-1.2.5-1.2 1.1v1.1H8.5V1.1C8.5.5 8 0 7.4 0c-.7 0-1.2.5-1.2 1.1v1.1h-5C.5 2.3 0 2.8 0 3.4v21.4c0 .7.5 1.2 1.2 1.2h21.7c.6 0 1.2-.5 1.2-1.1V3.4c-.1-.6-.6-1.1-1.3-1.1zm-1.1 21.4H2.3V11.2h19.4v12.5zm0-14.8H2.3V4.6h3.9v1.1c0 .6.5 1.1 1.2 1.1.6 0 1.2-.5 1.2-1.1V4.6h7.7v1.1c0 .6.5 1.1 1.2 1.1.6 0 1.2-.5 1.2-1.1V4.6h3.1v4.3zM6.2 15.7h2.3v-2.3H6.2v2.3zm4.6 0h2.3v-2.3h-2.3v2.3zm4.7 0h2.3v-2.3h-2.3v2.3zm-9.3 4.6h2.3V18H6.2v2.3zm4.6 0h2.3V18h-2.3v2.3z"/></svg><svg viewBox="0 0 30 20" id="card" xmlns="http://www.w3.org/2000/svg"><path fill="#1B1991" d="M27.2 0H2.8C1.3 0 0 1.2 0 2.7v14.5C0 18.8 1.3 20 2.8 20h24.4c1.5 0 2.8-1.2 2.8-2.7V2.7C30 1.2 28.7 0 27.2 0zm.4 16.8c0 .7-.6 1.3-1.3 1.3H3.7c-.7 0-1.3-.6-1.3-1.3V9.4h25.3v7.4zm0-11.6H2.4v-2c0-.7.5-1.2 1.3-1.2h22.7c.7 0 1.3.6 1.3 1.3v1.9z"/></svg><svg viewBox="0 0 22 22" id="chat" xmlns="http://www.w3.org/2000/svg"><path fill="#53565A" d="M2 0h18c1.1 0 2 .9 2 2v13c0 1.1-.9 2-2 2h-4v5l-6-5H2c-1.1 0-2-.9-2-2V2C0 .9.9 0 2 0z"/></svg><svg viewBox="0 0 16 16" id="check-blue_s16" xmlns="http://www.w3.org/2000/svg"><path fill="#231B9A" d="M7.3 11.7l-4-4 1-1.1 3.1 3.2 6.9-6.9C12.7 1.1 10.5 0 8 0 3.6 0 0 3.6 0 8s3.6 8 8 8 8-3.6 8-8c0-1.4-.4-2.8-1.1-4l-7.6 7.7z"/></svg><svg viewBox="0 0 40 20" id="city-dubai" xmlns="http://www.w3.org/2000/svg"><path fill="#0E9FE2" d="M14.7 8.4V3.3h1.1c.7 0 1.3.6 1.3 1.3V8h-1.4c-.5.1-.8.3-1 .4z"/><path fill="#E4027E" d="M22.7 3.3c2.2 0 3.9 1.8 3.9 4 0 2.3-1.7 4-4 4h-5.4v2.9c0 1.3-1 2.4-2.4 2.4h-3.1c-1.3 0-2.4-1.1-2.4-2.4V8.6H11c.6.1.9.6 1 .9v3.1c0 .7.6 1.4 1.3 1.4h1.3V10c0-.7.6-1.3 1.3-1.3h6.7c.8 0 1.4-.6 1.4-1.3S23.5 6 22.7 6V3.3z"/><path fill="#0E9FE2" d="M10.6 3.4h1.3v5.1c-.7-.7-2.2-.5-2.6-.4V4.7c0-.7.5-1.3 1.3-1.3zM38.5 3.3H40v12c0 .7-.6 1.3-1.3 1.3h-1.3V4.3c0-.5.4-1 1.1-1zM5.4 3.3H0v13.3h5.4c1.3 0 2.4-1.1 2.4-2.5V5.8c0-1.4-1-2.5-2.4-2.5zm-.1 9.3c0 .8-.6 1.4-1.4 1.4H2.5V5.8h1.4c.8 0 1.4.6 1.4 1.4v5.4zM26.1 10.5c.3.6.5 1.2.5 1.9 0 1.9-1.2 3.6-3 4.1-1.1.3-2.4.1-3.6.1-.7 0-1.2-.6-1.2-1.2V12h2.6v.8c0 .8.6 1.4 1.4 1.4.8 0 1.4-.6 1.4-1.4 0-.4-.2-.7-.4-1 1.1 0 1.9-.9 2.3-1.3z"/><path fill="#E4027E" d="M21.9 11.9h.7c.4 0 .7.3.7.7 0 .4-.3.7-.7.7-.4 0-.7-.3-.7-.7v-.7z"/><path fill="#0E9FE2" d="M28.1 12h2.5v3.4c0 .7-.5 1.2-1.2 1.2h-1.2c-.1 0-.1-4.6-.1-4.6zM35.9 10.8c-.6.8-1.4 1.2-2.5 1.2v3.4c0 .7.5 1.2 1.2 1.2h1.2v-5.8zM30.6 8c-1.5 0-1.7-.2-2.5.5V5.8c0-1.2 1.2-2.4 2.3-2.4h.8c-.3.2-.5.5-.5 1V8h-.1z"/><path fill="#E4027E" d="M28.1 11.3H33.4c1.4 0 2.7-1.2 2.7-2.7V6c0-1.4-1-2.6-2.5-2.7h-1c-.7 0-1.2.5-1.2 1.2v1.2h.6c.8 0 1.4.6 1.4 1.4s-.6 1.5-1.4 1.5h-2.7c-.7 0-1.2.6-1.2 1.2v1.5zM11.5 17.3h.7c.4 0 .7.3.7.7s-.3.7-.7.7c-.4 0-.7-.3-.7-.7v-.7zM13.5 17.3h.7c.4 0 .7.3.7.7s-.3.7-.7.7-.7-.3-.7-.7v-.7z"/><path fill="#0E9FE2" d="M18.7 3.3H22v2.8c-.4.1-.7.5-.7 1v.8h-2.5V3.3h-.1z"/></svg><svg viewBox="0 0 20 20" id="contact-time" xmlns="http://www.w3.org/2000/svg"><path fill="#1B0E91" d="M10 0C4.5 0 0 4.5 0 10s4.5 10 10 10 10-4.5 10-10S15.5 0 10 0zm5 12H9c-.6 0-1-.4-1-1V5c0-.6.4-1 1-1s1 .4 1 1v5h5c.6 0 1 .4 1 1s-.4 1-1 1z"/></svg><svg viewBox="0 0 40 50" id="courier" xmlns="http://www.w3.org/2000/svg"><path fill="#A9AAAC" d="M28.7 46v.8c0 .4-.4.8-.8.8H16.1c-.5 0-.8-.3-.8-.8-.1-1.8-.7-6.4-6.4-6.7 0 0-5.2 0-6 6.4 0 .4-.4.7-.7.7H.8c-.5 0-.8-.3-.8-.8v-.5c0-.2.1-.4.2-.6.4-.6 1.4-2 1.4-4.2 0 0 0-1.2-.8-2.4v-1.1c0-.4.4-.8.8-.8h14.2c.5 0 .8.3.8.8v1.2s-.9 3.8.8 5.7c.4.5.9.7 1.5.7h8.9c.5.1.9.3.9.8zM10.5 30.3h-4V33H4.9v-2.7s-4.1-.1-4 0v6.3h9.6v-6.3zm0-2H.9v1.6h9.6v-1.6zM8.9 41.7c-2.3 0-4.2 1.9-4.2 4.2 0 2.3 1.9 4.2 4.2 4.2s4.2-1.9 4.2-4.2c0-2.4-1.9-4.2-4.2-4.2zm26.5 0c-2.3 0-4.2 1.9-4.2 4.2 0 2.3 1.9 4.2 4.2 4.2s4.2-1.9 4.2-4.2c0-2.4-1.8-4.2-4.2-4.2zm4.5-.4c-.7-1-2.1-2.3-4.8-2.5 0 0-2.8-5.1-5.6-5.5 0 0-.4-1.6.8-1.1 0 0 1.2 2 2.8 2 0 0 1.6-.4 1.2-3.1-.4-2.7-2-2-2-2s-1.6.4-2 2c0 0-.9 0-1.4-.6-.3-.4-.7-.6-1.2-.7h-.2s0-1.6-2-1.6c0 0-5.6 0-6.3-3.1 0 0-.4-.4.4-.8s.4-3.5-2.4-3.5-4.7 3.5-4.7 7.5-1.2 7.9 6.3 8.2c0 0 3.6-.4 4.4 2.7l1.2 3.1s.3 1.3 1.6 1.8c.7.3 1.7.1 2.2-.5.5-.5.7-1.3.2-2.5l-2-5.9s-1.2-2.7-5.2-2.7c0 0-2.4 0-2.8-2-.4-2 1.2-1.6 1.2-1.6s3.2 1.6 6.8 1.1c0 0 .4 0 .8 1.1l3.3 9.8c.1.3.4.4.7.2.7-.6 2.3-1.5 4.4-1.2 1.6.2 3 1 3.9 1.7.2.4.7.1.4-.3zM20.5 21.1c1.9 0 3.3-1.6 3.3-3.5v-.5c2.4 1 2.4 0 2.4 0 0-.9-2.2-1.4-3-1.5-.6-.9-1.7-1.6-2.8-1.6-1.9 0-3.3 1.6-3.3 3.5-.1 2 1.5 3.6 3.4 3.6z"/></svg><svg viewBox="0 0 40 50" id="courier_primary" xmlns="http://www.w3.org/2000/svg"><path fill="#1B0E92" d="M28.7 46v.8c0 .4-.4.8-.8.8H16.1c-.5 0-.8-.3-.8-.8-.1-1.8-.7-6.4-6.4-6.7 0 0-5.2 0-6 6.4 0 .4-.4.7-.7.7H.8c-.5 0-.8-.3-.8-.8v-.5c0-.2.1-.4.2-.6.4-.6 1.4-2 1.4-4.2 0 0 0-1.2-.8-2.4v-1.1c0-.4.4-.8.8-.8h14.2c.5 0 .8.3.8.8v1.2s-.9 3.8.8 5.7c.4.5.9.7 1.5.7h8.9c.5.1.9.3.9.8zM10.5 30.3h-4V33H4.9v-2.7s-4.1-.1-4 0v6.3h9.6v-6.3zm0-2H.9v1.6h9.6v-1.6zM8.9 41.7c-2.3 0-4.2 1.9-4.2 4.2 0 2.3 1.9 4.2 4.2 4.2s4.2-1.9 4.2-4.2c0-2.4-1.9-4.2-4.2-4.2zm26.5 0c-2.3 0-4.2 1.9-4.2 4.2 0 2.3 1.9 4.2 4.2 4.2s4.2-1.9 4.2-4.2c0-2.4-1.8-4.2-4.2-4.2zm4.5-.4c-.7-1-2.1-2.3-4.8-2.5 0 0-2.8-5.1-5.6-5.5 0 0-.4-1.6.8-1.1 0 0 1.2 2 2.8 2 0 0 1.6-.4 1.2-3.1-.4-2.7-2-2-2-2s-1.6.4-2 2c0 0-.9 0-1.4-.6-.3-.4-.7-.6-1.2-.7h-.2s0-1.6-2-1.6c0 0-5.6 0-6.3-3.1 0 0-.4-.4.4-.8s.4-3.5-2.4-3.5-4.7 3.5-4.7 7.5-1.2 7.9 6.3 8.2c0 0 3.6-.4 4.4 2.7l1.2 3.1s.3 1.3 1.6 1.8c.7.3 1.7.1 2.2-.5.5-.5.7-1.3.2-2.5l-2-5.9s-1.2-2.7-5.2-2.7c0 0-2.4 0-2.8-2-.4-2 1.2-1.6 1.2-1.6s3.2 1.6 6.8 1.1c0 0 .4 0 .8 1.1l3.3 9.8c.1.3.4.4.7.2.7-.6 2.3-1.5 4.4-1.2 1.6.2 3 1 3.9 1.7.2.4.7.1.4-.3zM20.5 21.1c1.9 0 3.3-1.6 3.3-3.5v-.5c2.4 1 2.4 0 2.4 0 0-.9-2.2-1.4-3-1.5-.6-.9-1.7-1.6-2.8-1.6-1.9 0-3.3 1.6-3.3 3.5-.1 2 1.5 3.6 3.4 3.6z"/></svg><svg viewBox="0 0 40 30" id="header-car" xmlns="http://www.w3.org/2000/svg"><title>Fill 1</title><desc>Created using Figma</desc><use xlink:href="#axa" fill="#1B0E91"/><defs><path id="axa" fill-rule="evenodd" d="M32.514 19.77c-1.378 0-2.495-1.106-2.495-2.47 0-1.365 1.117-2.47 2.495-2.47 1.378 0 2.494 1.105 2.494 2.47 0 1.364-1.116 2.47-2.494 2.47zm-3.816-9.885H7.986L9.484 2.47H30.517l1.497 7.414h-3.316zM7.486 19.77c-1.378 0-2.495-1.106-2.495-2.47 0-1.365 1.117-2.47 2.495-2.47 1.378 0 2.495 1.105 2.495 2.47 0 1.364-1.117 2.47-2.495 2.47zm27.076-9.624L32.513.002V0H7.487v.002l-2.05 10.144C2.305 10.996 0 13.834 0 17.208v7.505h4.99v4.946h4.992v-4.946h20.036v4.946h4.991v-4.946H40v-7.505c0-3.374-2.304-6.212-5.438-7.062z"/></defs></svg><svg viewBox="0 0 62 32" id="header-plate" xmlns="http://www.w3.org/2000/svg"><path fill="#1B0E91" d="M13.8 12.7l1.1 3.3h-2.3l1.2-3.3zm22.4-.9c-.9 0-1.7.7-1.7 1.6v4.4c0 .9.8 1.6 1.7 1.6.9 0 1.7-.7 1.7-1.6v-4.4c0-.9-.8-1.6-1.7-1.6zM62 3.5v24.9c0 2-1.6 3.5-3.7 3.5H3.7c-2 0-3.7-1.6-3.7-3.5V3.5C0 1.6 1.6 0 3.7 0h54.6C60.4 0 62 1.6 62 3.5zM20.7 22.6L16.1 9.4h-4.6L6.9 22.6h3.4l1.2-3.3h4.6l1.2 3.3h3.4zm20.6-9.1c0-.3 0-.6-.1-.8-.4-2.4-2.5-4.1-5.1-4.1-2.6 0-4.7 1.8-5.1 4.1 0 .3-.1.5-.1.8v4.2c0 .3 0 .6.1.8.4 2.4 2.5 4.1 5.1 4.1 2.6 0 4.7-1.8 5.1-4.1 0-.3.1-.5.1-.8v-4.2zm13.8 0c0-.3 0-.6-.1-.8-.4-2.4-2.5-4.1-5.1-4.1-2.6 0-4.7 1.8-5.1 4.1 0 .3-.1.5-.1.8v4.2c0 .3 0 .6.1.8.4 2.4 2.5 4.1 5.1 4.1 2.6 0 4.7-1.8 5.1-4.1 0-.3.1-.5.1-.8v-4.2zm-5.2-1.7c-.9 0-1.7.7-1.7 1.6v4.4c0 .9.8 1.6 1.7 1.6.9 0 1.7-.7 1.7-1.6v-4.4c.1-.9-.7-1.6-1.7-1.6z"/></svg><svg viewBox="0 0 40 50" id="kiosk" xmlns="http://www.w3.org/2000/svg"><path fill="#A9AAAC" d="M18.1 40v3.3c0 .2-.3.3-.4.2L16 41.8c-.1-.1-.1-.2 0-.3l1.7-1.7c.2 0 .4 0 .4.2zm5-.1c-.1-.1-.4 0-.4.2v3.3c0 .2.3.3.4.2l1.7-1.7c.1-.1.1-.2 0-.3l-1.7-1.7zm14.7-9.6h-.3V50h-5.1V32.6H21.5V50h-2.2V32.6h-11V50H2.4V30.3h-.2c-1.5 0-2.5-1.5-2.1-2.9l4.4-13.1c0-.1.3-.3.5-.3h28.9c.2 0 .5.1.5.4l5.5 13.2c.5 1.3-.6 2.7-2.1 2.7zm-1.6-3.9l-3.9-9.9c-.1-.2-.3-.4-.5-.4H7.2c-.3 0-.5.2-.6.4l-2.9 9.9c-.1.4.2.7.6.7h.1c1 0 2-.4 2.8-.8.4-.2.7-.3 1.2-.3.6 0 1 .2 1.4.4.7.5 1.6.6 2.4.6.8 0 1.7-.3 2.4-.6.4-.3.9-.4 1.4-.4.6 0 1 .2 1.4.4.7.5 1.6.6 2.4.6.8 0 1.7-.3 2.4-.6.4-.3.9-.4 1.4-.4.6 0 1 .2 1.4.4.7.5 1.6.6 2.4.6.8 0 1.7-.3 2.4-.6.4-.3.9-.4 1.4-.4s.8.1 1.2.3c.8.5 1.9.8 2.8.8h.1c.8 0 1.1-.4.9-.7z"/></svg><svg viewBox="0 0 40 50" id="kiosk_primary" xmlns="http://www.w3.org/2000/svg"><path fill="#1B0E92" d="M18.1 40v3.3c0 .2-.3.3-.4.2L16 41.8c-.1-.1-.1-.2 0-.3l1.7-1.7c.2 0 .4 0 .4.2zm5-.1c-.1-.1-.4 0-.4.2v3.3c0 .2.3.3.4.2l1.7-1.7c.1-.1.1-.2 0-.3l-1.7-1.7zm14.7-9.6h-.3V50h-5.1V32.6H21.5V50h-2.2V32.6h-11V50H2.4V30.3h-.2c-1.5 0-2.5-1.5-2.1-2.9l4.4-13.1c0-.1.3-.3.5-.3h28.9c.2 0 .5.1.5.4l5.5 13.2c.5 1.3-.6 2.7-2.1 2.7zm-1.6-3.9l-3.9-9.9c-.1-.2-.3-.4-.5-.4H7.2c-.3 0-.5.2-.6.4l-2.9 9.9c-.1.4.2.7.6.7h.1c1 0 2-.4 2.8-.8.4-.2.7-.3 1.2-.3.6 0 1 .2 1.4.4.7.5 1.6.6 2.4.6.8 0 1.7-.3 2.4-.6.4-.3.9-.4 1.4-.4.6 0 1 .2 1.4.4.7.5 1.6.6 2.4.6.8 0 1.7-.3 2.4-.6.4-.3.9-.4 1.4-.4.6 0 1 .2 1.4.4.7.5 1.6.6 2.4.6.8 0 1.7-.3 2.4-.6.4-.3.9-.4 1.4-.4s.8.1 1.2.3c.8.5 1.9.8 2.8.8h.1c.8 0 1.1-.4.9-.7z"/></svg><svg viewBox="0 0 40 40" id="ma-danger" xmlns="http://www.w3.org/2000/svg"><path fill="#F32300" d="M20 0C9 0 0 9 0 20s9 20 20 20 20-9 20-20S31 0 20 0zm7.5 28c-.5.5-1.2.5-1.7 0l-5.9-6-5.9 5.9c-.5.5-1.2.5-1.7 0s-.5-1.2 0-1.7l5.9-5.9-5.9-5.9c-.5-.5-.5-1.2 0-1.7s1.2-.5 1.7 0l5.9 5.9 5.9-5.9c.5-.5 1.2-.5 1.7 0s.5 1.2 0 1.7l-5.9 5.9 5.9 5.9c.5.5.5 1.3 0 1.8z"/></svg><svg viewBox="0 0 40 40" id="ma-info" xmlns="http://www.w3.org/2000/svg"><path fill="#1B0E92" d="M39.8 36.9L21.7 1.1C21-.4 19-.4 18.3 1.1L.2 36.9C-.5 38.3.5 40 1.9 40H38c1.5 0 2.5-1.7 1.8-3.1zM19.9 13.6c1.1 0 1.8.5 1.7 1.7l-.5 12.3c0 .7-.4 1.2-1.2 1.2-.8 0-1.2-.5-1.2-1.2l-.5-12.3c-.1-1.2.6-1.7 1.7-1.7zm0 21.2c-1.2 0-1.9-.6-1.9-2s.7-2.1 1.9-2.1 1.8.7 1.8 2.1c.1 1.3-.6 2-1.8 2z"/></svg><svg viewBox="0 0 40 50" id="marker" xmlns="http://www.w3.org/2000/svg"><path fill="none" d="M14.3 36.9c1.2 1.7 2.3 3.2 3.4 4.4.5.6 1 1 1.4 1.4.3.2.5.4.6.5.2-.1.4-.3.7-.5.4-.4 1-.8 1.5-1.4 1.2-1.2 2.4-2.7 3.7-4.4 1.3-1.7 2.4-3.5 3.4-5.3.9-1.7 1.5-3.4 1.5-4.8 0-5.5-4.6-10-10.2-10s-10.2 4.5-10.2 10c0 1.4.5 3 1.3 4.8s1.7 3.6 2.9 5.3zM20 21.2c3.1 0 5.7 2.4 5.7 5.5s-2.5 5.5-5.7 5.5c-3.1 0-5.7-2.5-5.7-5.5s2.6-5.5 5.7-5.5z"/><path fill="none" d="M20 29.4c1.6 0 2.7-1.2 2.7-2.7S21.4 24 20 24c-1.6 0-2.7 1.2-2.7 2.7s1.2 2.7 2.7 2.7z"/><path fill="#A9AAAC" d="M20 32.2c3.1 0 5.7-2.4 5.7-5.5s-2.5-5.5-5.7-5.5c-3.1 0-5.7 2.5-5.7 5.5s2.6 5.5 5.7 5.5zm0-8.2c1.5 0 2.7 1.2 2.7 2.7s-1.2 2.7-2.7 2.7c-1.5 0-2.7-1.2-2.7-2.7S18.4 24 20 24zm.2-10C12.9 14 7 19.8 7 26.6c0 2.2 1 4.7 2 6.9s2.3 4.2 3.1 5.3c1.3 1.9 2.6 3.6 3.9 4.9 1.9 2 2.8 2.4 3.6 2.4.7 0 1.7-.4 3.7-2.3 1.4-1.3 2.9-3.1 4.3-4.9 1.1-1.3 2.4-3.3 3.6-5.5 1.2-2.1 2-4.5 2-6.6.1-7-5.7-12.8-13-12.8zm8.7 17.6c-1 1.8-2.1 3.6-3.4 5.3-1.3 1.7-2.5 3.2-3.7 4.4-.5.6-1.1 1-1.5 1.4-.3.2-.5.4-.7.5-.1-.1-.3-.3-.6-.5-.4-.4-.9-.8-1.4-1.4-1.1-1.2-2.2-2.7-3.4-4.4-1.2-1.7-2.3-3.5-3.1-5.3s-1.3-3.4-1.3-4.8c0-5.5 4.6-10 10.2-10s10.2 4.5 10.2 10c.2 1.4-.4 3.1-1.3 4.8zm10.9 17.7c-.3.5-.8.7-1.3.7H1.4c-.5 0-1.1-.3-1.3-.7-.3-.5-.2-1 .1-1.5l7.1-10.5c.4-.6 1.4-.8 2-.4.7.4.9 1.3.4 2L4 47.2h31.7l-5.4-8.3c-.4-.7-.2-1.5.5-2 .7-.4 1.6-.2 2 .4l6.8 10.5c.5.5.5 1 .2 1.5z"/></svg><svg viewBox="0 0 40 50" id="marker_primary" xmlns="http://www.w3.org/2000/svg"><path fill="#1B0E92" d="M39.8 48.4l-7-11.3c0-.1-.1-.1-.1-.2-.3-.3-.7-.4-1-.3h-2.9c-.2.2-.3.4-.5.6-1.4 1.9-2.9 3.8-4.3 5.2-2.1 2.1-2.9 2.4-3.5 2.4s-1.5-.3-3.4-2.4c-1.3-1.4-2.6-3.2-4-5.2-.1-.2-.3-.4-.4-.6H8.3c-.4 0-.7.2-.9.5L.2 48.4c-.2.3-.2.7-.1 1.1.2.3.5.5.8.5H39c.4 0 .7-.2.9-.5.2-.4.1-.8-.1-1.1zM21 14c-6.1 0-11 5.1-11 11.3 0 6.3 8.7 17.5 10.5 18.2 2-.8 11.5-11.9 11.5-18.2C32 19.1 27 14 21 14zm4.3 11.1c0 2.5-2 4.4-4.3 4.4-2.4 0-4.3-2-4.3-4.4 0-2.5 2-4.4 4.3-4.4s4.3 1.9 4.3 4.4z"/></svg><svg viewBox="0 0 36 38" id="pdf" xmlns="http://www.w3.org/2000/svg"><path fill="#1B0E92" d="M18.5.7c-.4-.4-1-.7-1.6-.7H2.2C1 0 0 1 0 2.3v33.5C0 37 1 38 2.2 38h24.4c1.2 0 2.2-1 2.2-2.3v-2.1c0-.9-.7-1.5-1.5-1.5s-1.5.7-1.5 1.5v1.3H3V3.1h12.8V11c0 1.3 1 2.3 2.2 2.3h7.8v4.2c0 .9.7 1.5 1.5 1.5s1.5-.7 1.5-1.5v-5.4c0-.6-.2-1.2-.7-1.6L18.5.7zm.3 9.5V5.4l4.8 4.8h-4.8zm-.2 11.5c-.6-.5-1.5-.7-2.6-.7h-3.2v8.9h1.8v-3.2H16c1.1 0 2-.2 2.6-.7.6-.5.9-1.2.9-2.1 0-1-.3-1.7-.9-2.2zm-1.3 3.2c-.3.2-.7.4-1.3.4h-1.4v-2.8H16c.6 0 1 .1 1.3.4.3.2.4.6.4 1s-.2.8-.4 1zm9.7-2.8c-.9-.7-2.1-1.1-3.6-1.1h-2.9v8.9h2.9c1 0 1.8-.2 2.6-.5.7-.3 1.3-.8 1.7-1.5.4-.7.6-1.5.6-2.5 0-1.4-.5-2.5-1.3-3.3zm-1.4 5.6c-.6.5-1.3.7-2.3.7h-1v-6h1c1 0 1.7.2 2.3.7.6.5.8 1.2.8 2.3 0 1.1-.3 1.8-.8 2.3zm5.9-5.2v2.2h4.2v1.5h-4.2V30h-1.8v-9H36v1.5h-4.5z"/></svg><svg viewBox="0 0 18 18" id="phone" xmlns="http://www.w3.org/2000/svg"><path fill="#53565A" d="M17.6 14.3l-2.8-2.8c-.6-.6-1.5-.5-2 0l-1.4 1.4c-.1 0-.2-.1-.3-.2-.9-.5-2.1-1.2-3.4-2.4C6.4 9.1 5.8 7.8 5.3 7c-.1-.1-.1-.2-.2-.3l.9-.9.5-.5c.6-.6.6-1.5 0-2L3.8.5c-.6-.6-1.5-.5-2 0l-.8.8c-.3.3-.5.7-.7 1.1-.1.4-.2.8-.2 1.2-.4 3 1 5.8 4.8 9.6 5.2 5.2 9.4 4.8 9.6 4.8.4 0 .8-.1 1.2-.3.4-.2.8-.4 1.1-.6l.8-.8c.5-.6.5-1.5 0-2z"/></svg><svg viewBox="0 0 33 18" id="plate" xmlns="http://www.w3.org/2000/svg"><path fill="#1B1992" d="M26.6 12.7c1.4 0 2.5-1 2.7-2.3V7.6v-.5c-.2-1.3-1.3-2.3-2.7-2.3-1.4 0-2.5 1-2.7 2.3v3.3c.2 1.3 1.3 2.3 2.7 2.3zm-.9-5.2c0-.5.4-.9.9-.9s.9.4.9.9V10c0 .5-.4.9-.9.9s-.9-.4-.9-.9V7.5zM6.1 10.9h2.4l.6 1.9H11L8.5 5.3H6.1l-2.5 7.5h1.8l.7-1.9zm1.2-3.7L7.9 9H6.7l.6-1.8zM31 0H2C.9 0 0 .9 0 2v14c0 1.1.9 2 2 2h29c1.1 0 2-.9 2-2V2c0-1.1-.9-2-2-2zM12.8 16.1h-11V1.9h11v14.2zm18.4 0H14.7V1.9h16.5v14.2zm-12-3.4c1.4 0 2.5-1 2.7-2.3V7.6v-.5c-.2-1.3-1.3-2.3-2.7-2.3-1.4 0-2.5 1-2.7 2.3v3.3c.3 1.3 1.4 2.3 2.7 2.3zm-.9-5.2c0-.5.4-.9.9-.9s.9.4.9.9V10c0 .5-.4.9-.9.9s-.9-.4-.9-.9V7.5z"/></svg><svg viewBox="0 0 21 24" id="search" xmlns="http://www.w3.org/2000/svg"><path fill="#58585B" d="M21 10.7C21 4.8 16.3 0 10.5 0S0 4.8 0 10.7c0 5.9 4.7 10.7 10.5 10.7 1.2 0 2.3-.2 3.4-.6l3.2 3.2 3.9-4-2.4-2.5c1.5-1.8 2.4-4.2 2.4-6.8zm-10.5 7.6c-4.2 0-7.5-3.4-7.5-7.7C3 6.4 6.3 3 10.5 3S18 6.4 18 10.7c0 4.2-3.3 7.6-7.5 7.6z"/></svg><svg viewBox="0 0 24 24" id="select-arrow" xmlns="http://www.w3.org/2000/svg"><path fill="#0E1111" d="M19 8l1 1-8 8-8-8 1-1 7 7z"/></svg><svg viewBox="0 0 24 24" id="select-arrow_white" xmlns="http://www.w3.org/2000/svg"><path fill="#FFF" d="M19 8l1 1-8 8-8-8 1-1 7 7z"/></svg><svg viewBox="0 0 46 46" id="step-ready" xmlns="http://www.w3.org/2000/svg"><path fill="#FFF" d="M11 24l2-2 6 6 14-14 2 2-16 16"/></svg><svg viewBox="0 0 50 34" id="swiper-card-license" xmlns="http://www.w3.org/2000/svg"><path fill="#A9AAAC" d="M45.3 0H4.7C2.1 0 0 2.1 0 4.6v24.8C0 31.9 2.1 34 4.7 34h40.6c2.6 0 4.7-2.1 4.7-4.6V4.6C50 2.1 47.9 0 45.3 0zM47 28.5c0 1.2-1.8 2.5-3 2.5H6c-1.2 0-3-1.3-3-2.5V16h44v12.5zM47 9H3V5.5C3 4.3 4.8 3 6 3h38c1.2 0 3 1.3 3 2.5V9z"/></svg><svg viewBox="0 0 50 34" id="swiper-card-license_primary" xmlns="http://www.w3.org/2000/svg"><path fill="#1B0E92" d="M50 4.6V9H0V4.6C0 2.1 2.1 0 4.7 0h40.6C47.9 0 50 2.1 50 4.6zM0 29.4C0 31.9 2.1 34 4.7 34h40.6c2.6 0 4.7-2.1 4.7-4.6V16H0v13.4z"/></svg><svg viewBox="0 0 45 14" id="swiper-traffic-number" xmlns="http://www.w3.org/2000/svg"><path fill="#A9AAAC" d="M9.3 0H4.7L0 14h3.5l1.2-3.5h4.7l1.2 3.5H14L9.3 0zM5.8 7L7 3.5 8.2 7H5.8zM43 5H21c-1.1 0-2-.9-2-2s.9-2 2-2h22c1.1 0 2 .9 2 2s-.9 2-2 2zm-22 8c-1.1 0-2-.9-2-2s.9-2 2-2h12c1.1 0 2 .9 2 2s-.9 2-2 2H21z"/></svg><svg viewBox="0 0 45 14" id="swiper-traffic-number_white" xmlns="http://www.w3.org/2000/svg"><path fill="#FFF" d="M9.3 0H4.7L0 14h3.5l1.2-3.5h4.7l1.2 3.5H14L9.3 0zM5.8 7L7 3.5 8.2 7H5.8zM43 5H21c-1.1 0-2-.9-2-2s.9-2 2-2h22c1.1 0 2 .9 2 2s-.9 2-2 2zm-22 8c-1.1 0-2-.9-2-2s.9-2 2-2h12c1.1 0 2 .9 2 2s-.9 2-2 2H21z"/></svg><svg viewBox="0 0 14 14" id="type_0" xmlns="http://www.w3.org/2000/svg"><path fill="#a9aaac" d="M11.9 4.1C11.5 1.8 9.5 0 7 0 4.5 0 2.5 1.8 2.1 4.1c-.1.3-.1.6-.1.8V9c0 .3 0 .5.1.8C2.5 12.2 4.5 14 7 14c2.5 0 4.5-1.8 4.9-4.1.1-.3.1-.6.1-.8V4.9c0-.2 0-.5-.1-.8zM8.7 9.2c0 .9-.8 1.6-1.7 1.6-.9 0-1.7-.7-1.7-1.6V4.8c0-.8.8-1.5 1.7-1.5.9 0 1.7.7 1.7 1.6v4.3z"/></svg><svg viewBox="0 0 14 14" id="type_0_white" xmlns="http://www.w3.org/2000/svg"><path fill="#FFF" d="M11.9 4.1C11.5 1.8 9.5 0 7 0 4.5 0 2.5 1.8 2.1 4.1c-.1.3-.1.6-.1.8V9c0 .3 0 .5.1.8C2.5 12.2 4.5 14 7 14c2.5 0 4.5-1.8 4.9-4.1.1-.3.1-.6.1-.8V4.9c0-.2 0-.5-.1-.8zM8.7 9.2c0 .9-.8 1.6-1.7 1.6-.9 0-1.7-.7-1.7-1.6V4.8c0-.8.8-1.5 1.7-1.5.9 0 1.7.7 1.7 1.6v4.3z"/></svg><svg viewBox="0 0 14 14" id="type_a" xmlns="http://www.w3.org/2000/svg"><path fill="#a9aaac" d="M9.3 0H4.7L0 14h3.5l1.2-3.5h4.7l1.2 3.5H14L9.3 0zM5.8 7L7 3.5 8.2 7H5.8z"/></svg><svg viewBox="0 0 14 14" id="type_a_white" xmlns="http://www.w3.org/2000/svg"><path fill="#FFF" d="M9.3 0H4.7L0 14h3.5l1.2-3.5h4.7l1.2 3.5H14L9.3 0zM5.8 7L7 3.5 8.2 7H5.8z"/></svg><svg viewBox="0 0 14 14" id="type_b" xmlns="http://www.w3.org/2000/svg"><path fill="#A9AAAC" d="M12.3 7.7c-.5-.5-1.1-.9-2.1-1.2.5-.3 1-.7 1.3-1.2.4-.5.5-1.1.5-1.7 0-1.2-.4-2.1-1.3-2.7C9.8.3 8.5 0 6.5 0H1v14h6.3c1.9 0 3.4-.4 4.3-1.2.9-.8 1.4-1.8 1.4-3.1 0-.8-.2-1.5-.7-2zM4.7 2.8h1.6c1.3 0 1.9.5 1.9 1.4s-.6 1.4-1.8 1.4H4.7V2.8zm3.9 8c-.4.2-1 .3-1.8.3H4.7v-3h2.1c.8 0 1.4.1 1.8.3.4.3.5.7.5 1.2s-.1 1-.5 1.2z"/></svg><svg viewBox="0 0 14 14" id="type_b_white" xmlns="http://www.w3.org/2000/svg"><path fill="#FFF" d="M12.3 7.7c-.5-.5-1.1-.9-2.1-1.2.5-.3 1-.7 1.3-1.2.4-.5.5-1.1.5-1.7 0-1.2-.4-2.1-1.3-2.7C9.8.3 8.5 0 6.5 0H1v14h6.3c1.9 0 3.4-.4 4.3-1.2.9-.8 1.4-1.8 1.4-3.1 0-.8-.2-1.5-.7-2zM4.7 2.8h1.6c1.3 0 1.9.5 1.9 1.4s-.6 1.4-1.8 1.4H4.7V2.8zm3.9 8c-.4.2-1 .3-1.8.3H4.7v-3h2.1c.8 0 1.4.1 1.8.3.4.3.5.7.5 1.2s-.1 1-.5 1.2z"/></svg><svg viewBox="0 0 39 15" id="type_dubai" xmlns="http://www.w3.org/2000/svg"><path fill="#A9AAAC" d="M14.3 5V0h1.1c.7 0 1.3.6 1.3 1.3v3.3h-1.4c-.5.1-.8.3-1 .4zm7.8-5c2.1 0 3.8 1.8 3.8 3.9 0 2.2-1.7 3.9-3.9 3.9h-5.3v2.8c0 1.3-1 2.3-2.3 2.3h-3c-1.3 0-2.3-1.1-2.3-2.3V5.2h1.6c.6.1.9.6 1 .9v3c0 .7.6 1.4 1.3 1.4h1.3v-4c0-.7.6-1.3 1.3-1.3h6.5c.8 0 1.4-.6 1.4-1.3 0-.7-.6-1.3-1.4-1.3V0zM10.3.1h1.3v5c-.7-.7-2.1-.5-2.5-.4V1.4c0-.7.5-1.3 1.2-1.3zM37.5 0H39v11.7c0 .7-.6 1.3-1.3 1.3h-1.3V1c.1-.5.5-1 1.1-1zM5.3 0H0v13h5.3c1.3 0 2.3-1.1 2.3-2.4V2.4c0-1.3-1-2.4-2.3-2.4zm-.1 9.1c0 .8-.6 1.4-1.4 1.4H2.4V2.4h1.4c.8 0 1.4.6 1.4 1.4v5.3zM25.4 7c.3.6.5 1.2.5 1.9 0 1.9-1.2 3.5-2.9 4-1.1.3-2.3.1-3.5.1-.7 0-1.2-.6-1.2-1.2V8.5h2.5v.8c0 .8.6 1.4 1.4 1.4.8 0 1.4-.6 1.4-1.4 0-.4-.2-.7-.4-1 1.1 0 1.9-.9 2.2-1.3zm-4 1.4h.7c.4 0 .7.3.7.7 0 .4-.3.7-.7.7-.4 0-.7-.3-.7-.7v-.7zm6 .1h2.4v3.3c0 .7-.5 1.2-1.2 1.2h-1.2V8.5zM35 7.3c-.6.8-1.4 1.2-2.4 1.2v3.3c0 .7.5 1.2 1.2 1.2H35V7.3zm-5.2-2.7c-1.5 0-1.7-.2-2.4.5V2.4c0-1.2 1.2-2.3 2.2-2.3h.8c-.3.2-.5.5-.5 1v3.5zm-2.4 3.2h5.1c1.4 0 2.6-1.2 2.6-2.6V2.6c0-1.4-1-2.5-2.4-2.6h-1c-.7 0-1.2.5-1.2 1.2v1.2h.7c.8 0 1.4.6 1.4 1.4 0 .8-.6 1.4-1.4 1.4h-2.6c-.7 0-1.2.6-1.2 1.2v1.4zm-16.2 5.8h.7c.4 0 .7.3.7.7 0 .4-.3.7-.7.7-.4 0-.7-.3-.7-.7v-.7zm2 0h.7c.4 0 .7.3.7.7 0 .4-.3.7-.7.7-.4 0-.7-.3-.7-.7v-.7zm5-13.6h3.2v2.7c-.4.1-.7.5-.7 1v.8h-2.4V0z"/></svg><svg viewBox="0 0 39 15" id="type_dubai_white" xmlns="http://www.w3.org/2000/svg"><path fill="#FFF" d="M14.3 5V0h1.1c.7 0 1.3.6 1.3 1.3v3.3h-1.4c-.5.1-.8.3-1 .4zm7.8-5c2.1 0 3.8 1.8 3.8 3.9 0 2.2-1.7 3.9-3.9 3.9h-5.3v2.8c0 1.3-1 2.3-2.3 2.3h-3c-1.3 0-2.3-1.1-2.3-2.3V5.2h1.6c.6.1.9.6 1 .9v3c0 .7.6 1.4 1.3 1.4h1.3v-4c0-.7.6-1.3 1.3-1.3h6.5c.8 0 1.4-.6 1.4-1.3 0-.7-.6-1.3-1.4-1.3V0zM10.3.1h1.3v5c-.7-.7-2.1-.5-2.5-.4V1.4c0-.7.5-1.3 1.2-1.3zM37.5 0H39v11.7c0 .7-.6 1.3-1.3 1.3h-1.3V1c.1-.5.5-1 1.1-1zM5.3 0H0v13h5.3c1.3 0 2.3-1.1 2.3-2.4V2.4c0-1.3-1-2.4-2.3-2.4zm-.1 9.1c0 .8-.6 1.4-1.4 1.4H2.4V2.4h1.4c.8 0 1.4.6 1.4 1.4v5.3zM25.4 7c.3.6.5 1.2.5 1.9 0 1.9-1.2 3.5-2.9 4-1.1.3-2.3.1-3.5.1-.7 0-1.2-.6-1.2-1.2V8.5h2.5v.8c0 .8.6 1.4 1.4 1.4.8 0 1.4-.6 1.4-1.4 0-.4-.2-.7-.4-1 1.1 0 1.9-.9 2.2-1.3zm-4 1.4h.7c.4 0 .7.3.7.7 0 .4-.3.7-.7.7-.4 0-.7-.3-.7-.7v-.7zm6 .1h2.4v3.3c0 .7-.5 1.2-1.2 1.2h-1.2V8.5zM35 7.3c-.6.8-1.4 1.2-2.4 1.2v3.3c0 .7.5 1.2 1.2 1.2H35V7.3zm-5.2-2.7c-1.5 0-1.7-.2-2.4.5V2.4c0-1.2 1.2-2.3 2.2-2.3h.8c-.3.2-.5.5-.5 1v3.5zm-2.4 3.2h5.1c1.4 0 2.6-1.2 2.6-2.6V2.6c0-1.4-1-2.5-2.4-2.6h-1c-.7 0-1.2.5-1.2 1.2v1.2h.7c.8 0 1.4.6 1.4 1.4 0 .8-.6 1.4-1.4 1.4h-2.6c-.7 0-1.2.6-1.2 1.2v1.4zm-16.2 5.8h.7c.4 0 .7.3.7.7 0 .4-.3.7-.7.7-.4 0-.7-.3-.7-.7v-.7zm2 0h.7c.4 0 .7.3.7.7 0 .4-.3.7-.7.7-.4 0-.7-.3-.7-.7v-.7zm5-13.6h3.2v2.7c-.4.1-.7.5-.7 1v.8h-2.4V0z"/></svg><svg viewBox="0 0 14 14" id="type_p" xmlns="http://www.w3.org/2000/svg"><path fill="#A9AAAC" d="M11 1.2C10 .4 8.6 0 6.8 0H1.5v14H5V9.4h1.8C8.6 9.4 10 9 11 8.2c1-.8 1.5-1.9 1.5-3.5S12 1.9 11 1.2zM6.8 6.5H5V2.8h1.8c1.4 0 2.1.6 2.1 1.9 0 1.2-.7 1.8-2.1 1.8z"/></svg><svg viewBox="0 0 14 14" id="type_p_white" xmlns="http://www.w3.org/2000/svg"><path fill="#FFF" d="M11 1.2C10 .4 8.6 0 6.8 0H1.5v14H5V9.4h1.8C8.6 9.4 10 9 11 8.2c1-.8 1.5-1.9 1.5-3.5S12 1.9 11 1.2zM6.8 6.5H5V2.8h1.8c1.4 0 2.1.6 2.1 1.9 0 1.2-.7 1.8-2.1 1.8z"/></svg><svg viewBox="0 0 14 14" id="type_star" xmlns="http://www.w3.org/2000/svg"><path fill="#A9AAAC" d="M7.4.3c-.2-.4-.7-.4-.9 0L4.7 4.1c-.1.2-.2.3-.4.3l-3.9.5c-.4 0-.6.6-.2.9l2.9 2.9c.1.2.2.3.1.5l-.8 4.1c-.1.4.4.8.7.6l3.6-2c.1-.1.3-.1.5 0l3.6 2c.4.2.8-.1.7-.6l-.7-4.2c0-.2 0-.3.1-.5l2.8-2.8c.4-.2.3-.7-.1-.8l-4-.7c-.2 0-.3-.1-.4-.3L7.4.3z"/></svg><svg viewBox="0 0 14 14" id="type_star_white" xmlns="http://www.w3.org/2000/svg"><path fill="#FFF" d="M7.4.3c-.2-.4-.7-.4-.9 0L4.7 4.1c-.1.2-.2.3-.4.3l-3.9.5c-.4 0-.6.6-.2.9l2.9 2.9c.1.2.2.3.1.5l-.8 4.1c-.1.4.4.8.7.6l3.6-2c.1-.1.3-.1.5 0l3.6 2c.4.2.8-.1.7-.6l-.7-4.2c0-.2 0-.3.1-.5l2.8-2.8c.4-.2.3-.7-.1-.8l-4-.7c-.2 0-.3-.1-.4-.3L7.4.3z"/></svg><svg viewBox="0 0 16 20" id="user" xmlns="http://www.w3.org/2000/svg"><path fill="#1B1992" d="M11.1 8.3c1-.9 1.6-2.1 1.6-3.5C12.7 2.1 10.6 0 8 0S3.3 2.1 3.3 4.8c0 1.4.6 2.7 1.6 3.5C2 9.5 0 12.4 0 15.7v2.9c0 .8.6 1.4 1.4 1.4h13.2c.8 0 1.4-.6 1.4-1.4v-2.9c0-3.3-2-6.2-4.9-7.4zM8 1.9c1.6 0 2.8 1.3 2.8 2.9 0 1.6-1.3 2.9-2.8 2.9S5.2 6.3 5.2 4.8c0-1.6 1.2-2.9 2.8-2.9zm6.1 16.2H1.9v-2.4c0-3.4 2.7-6.2 6.1-6.2 3.4 0 6.1 2.8 6.1 6.2v2.4zM5.8 8.4z"/></svg></svg>